<?xml version="1.0" encoding="UTF-8"?> <svg xmlns="http://www.w3.org/2000/svg" width="111" height="111" viewBox="0 0 111 111" fill="none"> <rect width="111" height="111" fill="#F2D9C1"></rect> <path d="M73.1641 81.4297H67.2068L65.9959 77.7969H44.0041L42.7932 81.4297H36.8359C35.8322 81.4297 35.0195 82.2423 35.0195 83.2461C35.0195 84.2498 35.8322 85.0625 36.8359 85.0625H73.1641C74.1678 85.0625 74.9805 84.2498 74.9805 83.2461C74.9805 82.2423 74.1678 81.4297 73.1641 81.4297Z" fill="white"></path> <path d="M73.1641 37.8359C72.1617 37.8359 71.3477 38.65 71.3477 39.6523C71.3477 40.6547 72.1617 41.4688 73.1641 41.4688C74.1664 41.4688 74.9805 40.6547 74.9805 39.6523C74.9805 38.65 74.1664 37.8359 73.1641 37.8359Z" fill="white"></path> <path d="M80.4297 26.9375H29.4492C26.4446 26.9375 24 29.3821 24 32.3867V63.2656H35.0195V57.8164C35.0195 56.8127 35.8322 56 36.8359 56H39.6424C39.8302 55.4716 40.0449 54.9532 40.2881 54.4442L38.3028 52.4575C37.5932 51.748 37.5932 50.5986 38.3028 49.889L43.4398 44.752C44.1493 44.0425 45.2988 44.0425 46.0083 44.752L47.995 46.7387C48.504 46.4956 49.0219 46.2794 49.5508 46.0911V43.2852C49.5508 42.2814 50.3634 41.4688 51.3672 41.4688H58.6328C59.6366 41.4688 60.4492 42.2814 60.4492 43.2852V46.0916C60.9776 46.2794 61.496 46.496 62.005 46.7387L63.9917 44.752C64.7012 44.0429 65.8507 44.0429 66.5602 44.752L71.6972 49.889C72.4068 50.5986 72.4068 51.7485 71.6972 52.4575L69.7119 54.4442C69.9551 54.9537 70.1698 55.4716 70.3576 56H73.1641C74.1678 56 74.9805 56.8127 74.9805 57.8164V63.2656H86V32.3867C86 29.3821 83.4343 26.9375 80.4297 26.9375ZM73.1641 45.1016C70.1594 45.1016 67.7148 42.657 67.7148 39.6523C67.7148 36.6477 70.1594 34.2031 73.1641 34.2031C76.1687 34.2031 78.6133 36.6477 78.6133 39.6523C78.6133 42.657 76.1687 45.1016 73.1641 45.1016Z" fill="white"></path> <path d="M49.5508 61.4492C49.5508 62.0769 49.6955 62.6824 49.9032 63.2656H60.0968C60.3045 62.6824 60.4492 62.0769 60.4492 61.4492C60.4492 58.4446 58.0046 56 55 56C51.9949 56 49.5508 58.4446 49.5508 61.4492Z" fill="white"></path> <path d="M42.7426 58.2705C42.5354 59.0723 41.8117 59.6328 40.9829 59.6328H38.6523V63.2656H46.1568C46.0348 62.6672 45.918 62.066 45.918 61.4492C45.918 56.4418 49.9926 52.3672 55 52.3672C60.0074 52.3672 64.082 56.4418 64.082 61.4492C64.082 62.066 63.9652 62.6672 63.8432 63.2656H71.3477V59.6328H69.0171C68.1883 59.6328 67.4646 59.0723 67.2574 58.2705C66.9679 57.1442 66.5157 56.0549 65.9126 55.0331C65.4921 54.3203 65.6075 53.4121 66.1927 52.8265L67.8445 51.1733L65.2759 48.6048L63.6227 50.258C63.0371 50.8455 62.127 50.9623 61.4142 50.5366C60.3943 49.9354 59.3069 49.4813 58.1787 49.1918C57.3769 48.9846 56.8164 48.2609 56.8164 47.4321V45.1016H53.1836V47.4321C53.1836 48.2609 52.6231 48.9846 51.8213 49.1918C50.6931 49.4813 49.6057 49.9354 48.5858 50.5366C47.8763 50.9623 46.9643 50.8455 46.3773 50.258L44.7241 48.6048L42.1555 51.1733L43.8073 52.8265C44.3925 53.4121 44.5079 54.3203 44.0874 55.0331C43.4843 56.0549 43.0321 57.1442 42.7426 58.2705Z" fill="white"></path> <path d="M24 68.7148C24 71.7195 26.4446 74.1641 29.4492 74.1641H80.4297C83.4343 74.1641 86 71.7195 86 68.7148V66.8984H24V68.7148Z" fill="white"></path> </svg> 