<?xml version="1.0" encoding="UTF-8"?> <svg xmlns="http://www.w3.org/2000/svg" width="330" height="330" viewBox="0 0 330 330" fill="none"> <mask id="mask0" maskUnits="userSpaceOnUse" x="0" y="0" width="331" height="331"> <rect x="0.000488281" y="0.000976562" width="330" height="330" rx="2" fill="#F38B8B"></rect> </mask> <g mask="url(#mask0)"> <rect x="67.4756" y="-202.013" width="12.5954" height="576.951" transform="rotate(30 67.4756 -202.013)" fill="#F4EDE3"></rect> <rect x="104.365" y="-180.716" width="12.5954" height="576.951" transform="rotate(30 104.365 -180.716)" fill="#F4EDE3"></rect> <rect x="141.253" y="-159.418" width="12.5954" height="576.951" transform="rotate(30 141.253 -159.418)" fill="#F4EDE3"></rect> <rect x="178.142" y="-138.12" width="12.5954" height="576.951" transform="rotate(30 178.142 -138.12)" fill="#F4EDE3"></rect> <rect x="215.031" y="-116.822" width="12.5954" height="576.951" transform="rotate(30 215.031 -116.822)" fill="#F4EDE3"></rect> <rect x="251.92" y="-95.5247" width="12.5954" height="576.951" transform="rotate(30 251.92 -95.5247)" fill="#F4EDE3"></rect> <rect x="288.809" y="-74.2269" width="12.5954" height="576.951" transform="rotate(30 288.809 -74.2269)" fill="#F4EDE3"></rect> <rect x="325.697" y="-52.9292" width="12.5954" height="576.951" transform="rotate(30 325.697 -52.9292)" fill="#F4EDE3"></rect> <rect x="362.586" y="-31.6315" width="12.5954" height="576.951" transform="rotate(30 362.586 -31.6315)" fill="#F4EDE3"></rect> <rect x="399.164" y="-10.5133" width="12.5954" height="576.951" transform="rotate(30 399.164 -10.5133)" fill="#F4EDE3"></rect> <rect x="435.742" y="10.6049" width="12.5954" height="576.951" transform="rotate(30 435.742 10.6049)" fill="#F4EDE3"></rect> <rect x="472.319" y="31.723" width="12.5954" height="576.951" transform="rotate(30 472.319 31.723)" fill="#F4EDE3"></rect> <rect x="508.897" y="52.8412" width="12.5954" height="576.951" transform="rotate(30 508.897 52.8412)" fill="#F4EDE3"></rect> </g> </svg> 