<?xml version="1.0" encoding="UTF-8"?> <svg xmlns="http://www.w3.org/2000/svg" width="62" height="62" viewBox="0 0 62 62" fill="none"> <rect width="62" height="62" fill="#F2D9C1"></rect> <g clip-path="url(#clip0)"> <path d="M48.0401 48.4208L44.7063 41.753H46.51C47.2236 41.753 47.8026 41.174 47.8026 40.4604C47.8026 39.7468 47.2236 39.1764 46.51 39.1764H43.4137L36.9343 26.2086C37.2726 25.4249 37.4618 24.5624 37.4618 23.6559C37.4618 21.5476 36.4429 19.6779 34.8765 18.4975V15.0381C34.8766 12.8997 33.1369 11.1602 30.9986 11.1602C28.8602 11.1602 27.1292 12.8997 27.1292 15.0381V18.4974C25.5629 19.6779 24.5353 21.5476 24.5353 23.6558C24.5353 24.5623 24.7245 25.4247 25.0628 26.2085L18.5833 39.1763H15.4868C14.7727 39.1763 14.1942 39.7467 14.1942 40.4603C14.1942 41.174 14.7728 41.753 15.4868 41.753H17.2907L13.9568 48.4208C13.6379 49.0595 13.8967 49.8354 14.535 50.1552C17.7233 51.7516 21.6135 50.4523 23.2074 47.2644L25.9631 41.7529H29.7146V43.0455C29.7146 43.7591 30.2845 44.3381 30.9986 44.3381C31.7127 44.3381 32.2913 43.7591 32.2913 43.0455V41.7529H36.0342L38.7899 47.2644C40.3886 50.4617 44.2676 51.7523 47.462 50.1552C48.1007 49.8355 48.359 49.0596 48.0401 48.4208ZM32.2913 39.1763V37.875C32.2913 37.1614 31.7127 36.5824 30.9987 36.5824C30.2846 36.5824 29.7147 37.1614 29.7147 37.875V39.1763H27.2558L30.9987 31.6819L34.7417 39.1763H32.2913ZM30.9986 27.4985C28.7182 27.4985 27.1207 25.681 27.1207 23.6559C27.1207 21.5175 28.8602 19.7779 30.9986 19.7779C33.137 19.7779 34.8766 21.5175 34.8766 23.6559C34.8767 25.6748 33.2874 27.4985 30.9986 27.4985Z" fill="white"></path> </g> <defs> <clipPath id="clip0"> <rect width="39.68" height="39.68" fill="white" transform="translate(11.1592 11.1602)"></rect> </clipPath> </defs> </svg> 