<?xml version="1.0" encoding="UTF-8"?> <svg xmlns="http://www.w3.org/2000/svg" width="476" height="491" viewBox="0 0 476 491" fill="none"> <path d="M445.27 -25.547C452.921 -25.547 460.259 -22.5093 465.67 -17.1021C471.08 -11.6948 474.12 -4.36109 474.12 3.28587C474.12 -4.36109 477.159 -11.6948 482.57 -17.1021C487.98 -22.5093 495.318 -25.547 502.97 -25.547C495.318 -25.547 487.98 -28.5847 482.57 -33.992C477.159 -39.3992 474.12 -46.7329 474.12 -54.3799C474.12 -46.7329 471.08 -39.3992 465.67 -33.992C460.259 -28.5847 452.921 -25.547 445.27 -25.547Z" fill="#F3F3F3"></path> <path d="M445.27 41.9115C452.921 41.9115 460.259 44.9492 465.67 50.3564C471.08 55.7637 474.12 63.0974 474.12 70.7444C474.12 63.0974 477.159 55.7637 482.57 50.3564C487.98 44.9492 495.318 41.9115 502.97 41.9115C495.318 41.9115 487.98 38.8737 482.57 33.4665C477.159 28.0593 474.12 20.7256 474.12 13.0786C474.12 20.7256 471.08 28.0593 465.67 33.4665C460.259 38.8737 452.921 41.9115 445.27 41.9115Z" fill="#F3F3F3"></path> <path d="M445.27 109.369C452.921 109.369 460.259 112.407 465.67 117.814C471.08 123.222 474.12 130.555 474.12 138.202C474.12 130.555 477.159 123.222 482.57 117.814C487.98 112.407 495.318 109.369 502.97 109.369C495.318 109.369 487.98 106.332 482.57 100.925C477.159 95.5173 474.12 88.1836 474.12 80.5366C474.12 88.1836 471.08 95.5173 465.67 100.925C460.259 106.332 452.921 109.369 445.27 109.369Z" fill="#F3F3F3"></path> <path d="M445.27 176.828C452.921 176.828 460.259 179.865 465.67 185.272C471.08 190.68 474.12 198.013 474.12 205.66C474.12 198.013 477.159 190.68 482.57 185.272C487.98 179.865 495.318 176.828 502.97 176.828C495.318 176.828 487.98 173.79 482.57 168.383C477.159 162.975 474.12 155.642 474.12 147.995C474.12 155.642 471.08 162.975 465.67 168.383C460.259 173.79 452.921 176.828 445.27 176.828Z" fill="#F3F3F3"></path> <path d="M445.27 244.286C452.921 244.286 460.259 247.323 465.67 252.73C471.08 258.138 474.12 265.471 474.12 273.118C474.12 265.471 477.159 258.138 482.57 252.73C487.98 247.323 495.318 244.286 502.97 244.286C495.318 244.286 487.98 241.248 482.57 235.841C477.159 230.433 474.12 223.1 474.12 215.453C474.12 223.1 471.08 230.433 465.67 235.841C460.259 241.248 452.921 244.286 445.27 244.286Z" fill="#F3F3F3"></path> <path d="M445.27 311.744C452.921 311.744 460.259 314.781 465.67 320.188C471.08 325.596 474.12 332.929 474.12 340.576C474.12 332.929 477.159 325.596 482.57 320.188C487.98 314.781 495.318 311.744 502.97 311.744C495.318 311.744 487.98 308.706 482.57 303.299C477.159 297.891 474.12 290.558 474.12 282.911C474.12 290.558 471.08 297.891 465.67 303.299C460.259 308.706 452.921 311.744 445.27 311.744Z" fill="#F3F3F3"></path> <path d="M445.27 379.202C452.921 379.202 460.259 382.239 465.67 387.646C471.08 393.054 474.12 400.387 474.12 408.034C474.12 400.387 477.159 393.054 482.57 387.646C487.98 382.239 495.318 379.202 502.97 379.202C495.318 379.202 487.98 376.164 482.57 370.757C477.159 365.349 474.12 358.016 474.12 350.369C474.12 358.016 471.08 365.349 465.67 370.757C460.259 376.164 452.921 379.202 445.27 379.202Z" fill="#F3F3F3"></path> <path d="M445.27 446.66C452.921 446.66 460.259 449.697 465.67 455.104C471.08 460.512 474.12 467.845 474.12 475.492C474.12 467.845 477.159 460.512 482.57 455.104C487.98 449.697 495.318 446.66 502.97 446.66C495.318 446.66 487.98 443.622 482.57 438.215C477.159 432.807 474.12 425.474 474.12 417.827C474.12 425.474 471.08 432.807 465.67 438.215C460.259 443.622 452.921 446.66 445.27 446.66Z" fill="#F3F3F3"></path> <path d="M371.239 -16.8424C378.891 -16.8424 386.229 -13.8047 391.639 -8.39746C397.05 -2.99025 400.089 4.3435 400.089 11.9905C400.089 4.3435 403.129 -2.99025 408.539 -8.39746C413.95 -13.8047 421.288 -16.8424 428.939 -16.8424C421.288 -16.8424 413.95 -19.8802 408.539 -25.2874C403.129 -30.6946 400.089 -38.0283 400.089 -45.6753C400.089 -38.0283 397.05 -30.6946 391.639 -25.2874C386.229 -19.8802 378.891 -16.8424 371.239 -16.8424Z" fill="#F3F3F3"></path> <path d="M371.239 50.6156C378.891 50.6156 386.229 53.6533 391.639 59.0605C397.05 64.4678 400.089 71.8015 400.089 79.4485C400.089 71.8015 403.129 64.4678 408.539 59.0605C413.95 53.6533 421.288 50.6156 428.939 50.6156C421.288 50.6156 413.95 47.5779 408.539 42.1706C403.129 36.7634 400.089 29.4297 400.089 21.7827C400.089 29.4297 397.05 36.7634 391.639 42.1706C386.229 47.5779 378.891 50.6156 371.239 50.6156Z" fill="#F3F3F3"></path> <path d="M371.239 118.074C378.891 118.074 386.229 121.111 391.639 126.519C397.05 131.926 400.089 139.26 400.089 146.906C400.089 139.26 403.129 131.926 408.539 126.519C413.95 121.111 421.288 118.074 428.939 118.074C421.288 118.074 413.95 115.036 408.539 109.629C403.129 104.221 400.089 96.8877 400.089 89.2407C400.089 96.8877 397.05 104.221 391.639 109.629C386.229 115.036 378.891 118.074 371.239 118.074Z" fill="#F3F3F3"></path> <path d="M371.239 185.532C378.891 185.532 386.229 188.569 391.639 193.977C397.05 199.384 400.089 206.718 400.089 214.364C400.089 206.718 403.129 199.384 408.539 193.977C413.95 188.569 421.288 185.532 428.939 185.532C421.288 185.532 413.95 182.494 408.539 177.087C403.129 171.679 400.089 164.346 400.089 156.699C400.089 164.346 397.05 171.679 391.639 177.087C386.229 182.494 378.891 185.532 371.239 185.532Z" fill="#F3F3F3"></path> <path d="M371.239 252.99C378.891 252.99 386.229 256.027 391.639 261.435C397.05 266.842 400.089 274.176 400.089 281.822C400.089 274.176 403.129 266.842 408.539 261.435C413.95 256.027 421.288 252.99 428.939 252.99C421.288 252.99 413.95 249.952 408.539 244.545C403.129 239.137 400.089 231.804 400.089 224.157C400.089 231.804 397.05 239.137 391.639 244.545C386.229 249.952 378.891 252.99 371.239 252.99Z" fill="#F3F3F3"></path> <path d="M371.239 320.448C378.891 320.448 386.229 323.485 391.639 328.893C397.05 334.3 400.089 341.634 400.089 349.28C400.089 341.634 403.129 334.3 408.539 328.893C413.95 323.485 421.288 320.448 428.939 320.448C421.288 320.448 413.95 317.41 408.539 312.003C403.129 306.595 400.089 299.262 400.089 291.615C400.089 299.262 397.05 306.595 391.639 312.003C386.229 317.41 378.891 320.448 371.239 320.448Z" fill="#F3F3F3"></path> <path d="M371.239 387.906C378.891 387.906 386.229 390.943 391.639 396.351C397.05 401.758 400.089 409.092 400.089 416.739C400.089 409.092 403.129 401.758 408.539 396.351C413.95 390.943 421.288 387.906 428.939 387.906C421.288 387.906 413.95 384.868 408.539 379.461C403.129 374.053 400.089 366.72 400.089 359.073C400.089 366.72 397.05 374.053 391.639 379.461C386.229 384.868 378.891 387.906 371.239 387.906Z" fill="#F3F3F3"></path> <path d="M371.239 455.364C378.891 455.364 386.229 458.401 391.639 463.809C397.05 469.216 400.089 476.55 400.089 484.197C400.089 476.55 403.129 469.216 408.539 463.809C413.95 458.401 421.288 455.364 428.939 455.364C421.288 455.364 413.95 452.326 408.539 446.919C403.129 441.511 400.089 434.178 400.089 426.531C400.089 434.178 397.05 441.511 391.639 446.919C386.229 452.326 378.891 455.364 371.239 455.364Z" fill="#F3F3F3"></path> <path d="M297.209 -8.68233C304.717 -8.68233 311.916 -5.70191 317.225 -0.396717C322.533 4.90847 325.515 12.1039 325.515 19.6065C325.515 12.1039 328.497 4.90847 333.806 -0.396717C339.114 -5.70191 346.314 -8.68233 353.821 -8.68233C346.314 -8.68233 339.114 -11.6628 333.806 -16.9679C328.497 -22.2731 325.515 -29.4685 325.515 -36.9712C325.515 -29.4685 322.533 -22.2731 317.225 -16.9679C311.916 -11.6628 304.717 -8.68233 297.209 -8.68233Z" fill="#F3F3F3"></path> <path d="M297.209 58.7757C304.717 58.7757 311.916 61.7561 317.225 67.0613C322.533 72.3665 325.515 79.5619 325.515 87.0645C325.515 79.5619 328.497 72.3665 333.806 67.0613C339.114 61.7561 346.314 58.7757 353.821 58.7757C346.314 58.7757 339.114 55.7952 333.806 50.4901C328.497 45.1849 325.515 37.9895 325.515 30.4868C325.515 37.9895 322.533 45.1849 317.225 50.4901C311.916 55.7952 304.717 58.7757 297.209 58.7757Z" fill="#F3F3F3"></path> <path d="M297.209 126.234C304.717 126.234 311.916 129.214 317.225 134.519C322.533 139.824 325.515 147.02 325.515 154.523C325.515 147.02 328.497 139.824 333.806 134.519C339.114 129.214 346.314 126.234 353.821 126.234C346.314 126.234 339.114 123.253 333.806 117.948C328.497 112.643 325.515 105.447 325.515 97.9448C325.515 105.447 322.533 112.643 317.225 117.948C311.916 123.253 304.717 126.234 297.209 126.234Z" fill="#F3F3F3"></path> <path d="M297.209 193.692C304.717 193.692 311.916 196.672 317.225 201.977C322.533 207.282 325.515 214.478 325.515 221.981C325.515 214.478 328.497 207.282 333.806 201.977C339.114 196.672 346.314 193.692 353.821 193.692C346.314 193.692 339.114 190.711 333.806 185.406C328.497 180.101 325.515 172.906 325.515 165.403C325.515 172.906 322.533 180.101 317.225 185.406C311.916 190.711 304.717 193.692 297.209 193.692Z" fill="#F3F3F3"></path> <path d="M297.209 261.15C304.717 261.15 311.916 264.131 317.225 269.436C322.533 274.741 325.515 281.936 325.515 289.439C325.515 281.936 328.497 274.741 333.806 269.436C339.114 264.131 346.314 261.15 353.821 261.15C346.314 261.15 339.114 258.17 333.806 252.865C328.497 247.559 325.515 240.364 325.515 232.861C325.515 240.364 322.533 247.559 317.225 252.865C311.916 258.17 304.717 261.15 297.209 261.15Z" fill="#F3F3F3"></path> <path d="M297.209 328.608C304.717 328.608 311.916 331.589 317.225 336.894C322.533 342.199 325.515 349.394 325.515 356.897C325.515 349.394 328.497 342.199 333.806 336.894C339.114 331.589 346.314 328.608 353.821 328.608C346.314 328.608 339.114 325.628 333.806 320.323C328.497 315.017 325.515 307.822 325.515 300.319C325.515 307.822 322.533 315.017 317.225 320.323C311.916 325.628 304.717 328.608 297.209 328.608Z" fill="#F3F3F3"></path> <path d="M297.209 396.066C304.717 396.066 311.916 399.047 317.225 404.352C322.533 409.657 325.515 416.852 325.515 424.355C325.515 416.852 328.497 409.657 333.806 404.352C339.114 399.047 346.314 396.066 353.821 396.066C346.314 396.066 339.114 393.086 333.806 387.781C328.497 382.475 325.515 375.28 325.515 367.777C325.515 375.28 322.533 382.475 317.225 387.781C311.916 393.086 304.717 396.066 297.209 396.066Z" fill="#F3F3F3"></path> <path d="M297.209 463.524C304.717 463.524 311.916 466.505 317.225 471.81C322.533 477.115 325.515 484.31 325.515 491.813C325.515 484.31 328.497 477.115 333.806 471.81C339.114 466.505 346.314 463.524 353.821 463.524C346.314 463.524 339.114 460.544 333.806 455.239C328.497 449.933 325.515 442.738 325.515 435.235C325.515 442.738 322.533 449.933 317.225 455.239C311.916 460.544 304.717 463.524 297.209 463.524Z" fill="#F3F3F3"></path> <path d="M223.179 -0.522106C230.686 -0.522106 237.886 2.51564 243.194 7.92285C248.503 13.3301 251.485 20.6638 251.485 28.3108C251.485 20.6638 254.467 13.3301 259.775 7.92285C265.084 2.51564 272.283 -0.522106 279.791 -0.522106C272.283 -0.522106 265.084 -3.55984 259.775 -8.96706C254.467 -14.3743 251.485 -21.708 251.485 -29.355C251.485 -21.708 248.503 -14.3743 243.194 -8.96706C237.886 -3.55984 230.686 -0.522106 223.179 -0.522106Z" fill="#F3F3F3"></path> <path d="M223.179 66.9359C230.686 66.9359 237.886 69.9736 243.194 75.3809C248.503 80.7881 251.485 88.1218 251.485 95.7688C251.485 88.1218 254.467 80.7881 259.775 75.3809C265.084 69.9736 272.283 66.9359 279.791 66.9359C272.283 66.9359 265.084 63.8982 259.775 58.4909C254.467 53.0837 251.485 45.75 251.485 38.103C251.485 45.75 248.503 53.0837 243.194 58.4909C237.886 63.8982 230.686 66.9359 223.179 66.9359Z" fill="#F3F3F3"></path> <path d="M223.179 134.394C230.686 134.394 237.886 137.432 243.194 142.839C248.503 148.246 251.485 155.58 251.485 163.227C251.485 155.58 254.467 148.246 259.775 142.839C265.084 137.432 272.283 134.394 279.791 134.394C272.283 134.394 265.084 131.356 259.775 125.949C254.467 120.542 251.485 113.208 251.485 105.561C251.485 113.208 248.503 120.542 243.194 125.949C237.886 131.356 230.686 134.394 223.179 134.394Z" fill="#F3F3F3"></path> <path d="M223.179 201.852C230.686 201.852 237.886 204.89 243.194 210.297C248.503 215.704 251.485 223.038 251.485 230.685C251.485 223.038 254.467 215.704 259.775 210.297C265.084 204.89 272.283 201.852 279.791 201.852C272.283 201.852 265.084 198.814 259.775 193.407C254.467 188 251.485 180.666 251.485 173.019C251.485 180.666 248.503 188 243.194 193.407C237.886 198.814 230.686 201.852 223.179 201.852Z" fill="#F3F3F3"></path> <path d="M223.179 269.31C230.686 269.31 237.886 272.348 243.194 277.755C248.503 283.163 251.485 290.496 251.485 298.143C251.485 290.496 254.467 283.163 259.775 277.755C265.084 272.348 272.283 269.31 279.791 269.31C272.283 269.31 265.084 266.273 259.775 260.865C254.467 255.458 251.485 248.124 251.485 240.478C251.485 248.124 248.503 255.458 243.194 260.865C237.886 266.273 230.686 269.31 223.179 269.31Z" fill="#F3F3F3"></path> <path d="M223.179 336.768C230.686 336.768 237.886 339.806 243.194 345.213C248.503 350.621 251.485 357.954 251.485 365.601C251.485 357.954 254.467 350.621 259.775 345.213C265.084 339.806 272.283 336.768 279.791 336.768C272.283 336.768 265.084 333.731 259.775 328.323C254.467 322.916 251.485 315.583 251.485 307.936C251.485 315.583 248.503 322.916 243.194 328.323C237.886 333.731 230.686 336.768 223.179 336.768Z" fill="#F3F3F3"></path> <path d="M223.179 404.226C230.686 404.226 237.886 407.264 243.194 412.671C248.503 418.079 251.485 425.412 251.485 433.059C251.485 425.412 254.467 418.079 259.775 412.671C265.084 407.264 272.283 404.226 279.791 404.226C272.283 404.226 265.084 401.189 259.775 395.781C254.467 390.374 251.485 383.041 251.485 375.394C251.485 383.041 248.503 390.374 243.194 395.781C237.886 401.189 230.686 404.226 223.179 404.226Z" fill="#F3F3F3"></path> <path d="M223.179 471.684C230.686 471.684 237.886 474.722 243.194 480.129C248.503 485.537 251.485 492.87 251.485 500.517C251.485 492.87 254.467 485.537 259.775 480.129C265.084 474.722 272.283 471.684 279.791 471.684C272.283 471.684 265.084 468.647 259.775 463.239C254.467 457.832 251.485 450.499 251.485 442.852C251.485 450.499 248.503 457.832 243.194 463.239C237.886 468.647 230.686 471.684 223.179 471.684Z" fill="#F3F3F3"></path> <path d="M148.061 8.18248C155.712 8.18248 163.05 11.2202 168.461 16.6274C173.871 22.0347 176.911 29.3684 176.911 37.0154C176.911 29.3684 179.95 22.0347 185.361 16.6274C190.771 11.2202 198.109 8.18248 205.761 8.18248C198.109 8.18248 190.771 5.14474 185.361 -0.262468C179.95 -5.66968 176.911 -13.0034 176.911 -20.6504C176.911 -13.0034 173.871 -5.66968 168.461 -0.262468C163.05 5.14474 155.712 8.18248 148.061 8.18248Z" fill="#F3F3F3"></path> <path d="M148.061 75.6405C155.712 75.6405 163.05 78.6782 168.461 84.0854C173.871 89.4927 176.911 96.8264 176.911 104.473C176.911 96.8264 179.95 89.4927 185.361 84.0854C190.771 78.6782 198.109 75.6405 205.761 75.6405C198.109 75.6405 190.771 72.6028 185.361 67.1955C179.95 61.7883 176.911 54.4546 176.911 46.8076C176.911 54.4546 173.871 61.7883 168.461 67.1955C163.05 72.6028 155.712 75.6405 148.061 75.6405Z" fill="#F3F3F3"></path> <path d="M148.061 143.098C155.712 143.098 163.05 146.136 168.461 151.543C173.871 156.951 176.911 164.284 176.911 171.931C176.911 164.284 179.95 156.951 185.361 151.543C190.771 146.136 198.109 143.098 205.761 143.098C198.109 143.098 190.771 140.061 185.361 134.654C179.95 129.246 176.911 121.913 176.911 114.266C176.911 121.913 173.871 129.246 168.461 134.654C163.05 140.061 155.712 143.098 148.061 143.098Z" fill="#F3F3F3"></path> <path d="M148.061 210.557C155.712 210.557 163.05 213.594 168.461 219.001C173.871 224.409 176.911 231.742 176.911 239.389C176.911 231.742 179.95 224.409 185.361 219.001C190.771 213.594 198.109 210.557 205.761 210.557C198.109 210.557 190.771 207.519 185.361 202.112C179.95 196.704 176.911 189.371 176.911 181.724C176.911 189.371 173.871 196.704 168.461 202.112C163.05 207.519 155.712 210.557 148.061 210.557Z" fill="#F3F3F3"></path> <path d="M148.061 278.015C155.712 278.015 163.05 281.052 168.461 286.459C173.871 291.867 176.911 299.2 176.911 306.847C176.911 299.2 179.95 291.867 185.361 286.459C190.771 281.052 198.109 278.015 205.761 278.015C198.109 278.015 190.771 274.977 185.361 269.57C179.95 264.162 176.911 256.829 176.911 249.182C176.911 256.829 173.871 264.162 168.461 269.57C163.05 274.977 155.712 278.015 148.061 278.015Z" fill="#F3F3F3"></path> <path d="M148.061 345.473C155.712 345.473 163.05 348.51 168.461 353.917C173.871 359.325 176.911 366.658 176.911 374.305C176.911 366.658 179.95 359.325 185.361 353.917C190.771 348.51 198.109 345.473 205.761 345.473C198.109 345.473 190.771 342.435 185.361 337.028C179.95 331.62 176.911 324.287 176.911 316.64C176.911 324.287 173.871 331.62 168.461 337.028C163.05 342.435 155.712 345.473 148.061 345.473Z" fill="#F3F3F3"></path> <path d="M148.061 412.931C155.712 412.931 163.05 415.968 168.461 421.375C173.871 426.783 176.911 434.116 176.911 441.763C176.911 434.116 179.95 426.783 185.361 421.375C190.771 415.968 198.109 412.931 205.761 412.931C198.109 412.931 190.771 409.893 185.361 404.486C179.95 399.078 176.911 391.745 176.911 384.098C176.911 391.745 173.871 399.078 168.461 404.486C163.05 409.893 155.712 412.931 148.061 412.931Z" fill="#F3F3F3"></path> <path d="M148.061 480.389C155.712 480.389 163.05 483.426 168.461 488.833C173.871 494.241 176.911 501.574 176.911 509.221C176.911 501.574 179.95 494.241 185.361 488.833C190.771 483.426 198.109 480.389 205.761 480.389C198.109 480.389 190.771 477.351 185.361 471.944C179.95 466.536 176.911 459.203 176.911 451.556C176.911 459.203 173.871 466.536 168.461 471.944C163.05 477.351 155.712 480.389 148.061 480.389Z" fill="#F3F3F3"></path> <path d="M74.0305 16.8866C81.682 16.8866 89.0201 19.9243 94.4305 25.3315C99.8409 30.7388 102.88 38.0725 102.88 45.7195C102.88 38.0725 105.92 30.7388 111.33 25.3315C116.741 19.9243 124.079 16.8866 131.73 16.8866C124.079 16.8866 116.741 13.8488 111.33 8.44163C105.92 3.03442 102.88 -4.29934 102.88 -11.9463C102.88 -4.29934 99.8409 3.03442 94.4305 8.44163C89.0201 13.8488 81.682 16.8866 74.0305 16.8866Z" fill="#F3F3F3"></path> <path d="M74.0305 84.3446C81.682 84.3446 89.0201 87.3823 94.4305 92.7895C99.8409 98.1968 102.88 105.531 102.88 113.177C102.88 105.531 105.92 98.1968 111.33 92.7895C116.741 87.3823 124.079 84.3446 131.73 84.3446C124.079 84.3446 116.741 81.3069 111.33 75.8996C105.92 70.4924 102.88 63.1587 102.88 55.5117C102.88 63.1587 99.8409 70.4924 94.4305 75.8996C89.0201 81.3069 81.682 84.3446 74.0305 84.3446Z" fill="#F3F3F3"></path> <path d="M74.0305 151.803C81.682 151.803 89.0201 154.84 94.4305 160.248C99.8409 165.655 102.88 172.989 102.88 180.635C102.88 172.989 105.92 165.655 111.33 160.248C116.741 154.84 124.079 151.803 131.73 151.803C124.079 151.803 116.741 148.765 111.33 143.358C105.92 137.95 102.88 130.617 102.88 122.97C102.88 130.617 99.8409 137.95 94.4305 143.358C89.0201 148.765 81.682 151.803 74.0305 151.803Z" fill="#F3F3F3"></path> <path d="M74.0305 219.261C81.682 219.261 89.0201 222.298 94.4305 227.706C99.8409 233.113 102.88 240.447 102.88 248.093C102.88 240.447 105.92 233.113 111.33 227.706C116.741 222.298 124.079 219.261 131.73 219.261C124.079 219.261 116.741 216.223 111.33 210.816C105.92 205.408 102.88 198.075 102.88 190.428C102.88 198.075 99.8409 205.408 94.4305 210.816C89.0201 216.223 81.682 219.261 74.0305 219.261Z" fill="#F3F3F3"></path> <path d="M74.0305 286.719C81.682 286.719 89.0201 289.756 94.4305 295.164C99.8409 300.571 102.88 307.905 102.88 315.551C102.88 307.905 105.92 300.571 111.33 295.164C116.741 289.756 124.079 286.719 131.73 286.719C124.079 286.719 116.741 283.681 111.33 278.274C105.92 272.866 102.88 265.533 102.88 257.886C102.88 265.533 99.8409 272.866 94.4305 278.274C89.0201 283.681 81.682 286.719 74.0305 286.719Z" fill="#F3F3F3"></path> <path d="M74.0305 354.177C81.682 354.177 89.0201 357.214 94.4305 362.622C99.8409 368.029 102.88 375.363 102.88 383.009C102.88 375.363 105.92 368.029 111.33 362.622C116.741 357.214 124.079 354.177 131.73 354.177C124.079 354.177 116.741 351.139 111.33 345.732C105.92 340.324 102.88 332.991 102.88 325.344C102.88 332.991 99.8409 340.324 94.4305 345.732C89.0201 351.139 81.682 354.177 74.0305 354.177Z" fill="#F3F3F3"></path> <path d="M74.0305 421.635C81.682 421.635 89.0201 424.672 94.4305 430.08C99.8409 435.487 102.88 442.821 102.88 450.468C102.88 442.821 105.92 435.487 111.33 430.08C116.741 424.672 124.079 421.635 131.73 421.635C124.079 421.635 116.741 418.597 111.33 413.19C105.92 407.782 102.88 400.449 102.88 392.802C102.88 400.449 99.8409 407.782 94.4305 413.19C89.0201 418.597 81.682 421.635 74.0305 421.635Z" fill="#F3F3F3"></path> <path d="M74.0305 489.093C81.682 489.093 89.0201 492.13 94.4305 497.538C99.8409 502.945 102.88 510.279 102.88 517.926C102.88 510.279 105.92 502.945 111.33 497.538C116.741 492.13 124.079 489.093 131.73 489.093C124.079 489.093 116.741 486.055 111.33 480.648C105.92 475.24 102.88 467.907 102.88 460.26C102.88 467.907 99.8409 475.24 94.4305 480.648C89.0201 486.055 81.682 489.093 74.0305 489.093Z" fill="#F3F3F3"></path> <path d="M0.00019455 25.0467C7.65169 25.0467 14.9898 28.0271 20.4002 33.3323C25.8106 38.6375 28.8502 45.8329 28.8502 53.3355C28.8502 45.8329 31.8897 38.6375 37.3002 33.3323C42.7106 28.0271 50.0487 25.0467 57.7002 25.0467C50.0487 25.0467 42.7106 22.0662 37.3002 16.7611C31.8897 11.4559 28.8502 4.26048 28.8502 -3.24219C28.8502 4.26048 25.8106 11.4559 20.4002 16.7611C14.9898 22.0662 7.65169 25.0467 0.00019455 25.0467Z" fill="#F3F3F3"></path> <path d="M0.00019455 92.5047C7.65169 92.5047 14.9898 95.4851 20.4002 100.79C25.8106 106.095 28.8502 113.291 28.8502 120.794C28.8502 113.291 31.8897 106.095 37.3002 100.79C42.7106 95.4851 50.0487 92.5047 57.7002 92.5047C50.0487 92.5047 42.7106 89.5243 37.3002 84.2191C31.8897 78.9139 28.8502 71.7185 28.8502 64.2158C28.8502 71.7185 25.8106 78.9139 20.4002 84.2191C14.9898 89.5243 7.65169 92.5047 0.00019455 92.5047Z" fill="#F3F3F3"></path> <path d="M0.00019455 159.963C7.65169 159.963 14.9898 162.943 20.4002 168.248C25.8106 173.553 28.8502 180.749 28.8502 188.252C28.8502 180.749 31.8897 173.553 37.3002 168.248C42.7106 162.943 50.0487 159.963 57.7002 159.963C50.0487 159.963 42.7106 156.982 37.3002 151.677C31.8897 146.372 28.8502 139.176 28.8502 131.674C28.8502 139.176 25.8106 146.372 20.4002 151.677C14.9898 156.982 7.65169 159.963 0.00019455 159.963Z" fill="#F3F3F3"></path> <path d="M0.00019455 227.421C7.65169 227.421 14.9898 230.401 20.4002 235.706C25.8106 241.012 28.8502 248.207 28.8502 255.71C28.8502 248.207 31.8897 241.012 37.3002 235.706C42.7106 230.401 50.0487 227.421 57.7002 227.421C50.0487 227.421 42.7106 224.44 37.3002 219.135C31.8897 213.83 28.8502 206.635 28.8502 199.132C28.8502 206.635 25.8106 213.83 20.4002 219.135C14.9898 224.44 7.65169 227.421 0.00019455 227.421Z" fill="#F3F3F3"></path> <path d="M0.00019455 294.879C7.65169 294.879 14.9898 297.859 20.4002 303.164C25.8106 308.47 28.8502 315.665 28.8502 323.168C28.8502 315.665 31.8897 308.47 37.3002 303.164C42.7106 297.859 50.0487 294.879 57.7002 294.879C50.0487 294.879 42.7106 291.898 37.3002 286.593C31.8897 281.288 28.8502 274.093 28.8502 266.59C28.8502 274.093 25.8106 281.288 20.4002 286.593C14.9898 291.898 7.65169 294.879 0.00019455 294.879Z" fill="#F3F3F3"></path> <path d="M0.00019455 362.337C7.65169 362.337 14.9898 365.318 20.4002 370.623C25.8106 375.928 28.8502 383.123 28.8502 390.626C28.8502 383.123 31.8897 375.928 37.3002 370.623C42.7106 365.318 50.0487 362.337 57.7002 362.337C50.0487 362.337 42.7106 359.357 37.3002 354.052C31.8897 348.746 28.8502 341.551 28.8502 334.048C28.8502 341.551 25.8106 348.746 20.4002 354.052C14.9898 359.357 7.65169 362.337 0.00019455 362.337Z" fill="#F3F3F3"></path> <path d="M0.00019455 429.795C7.65169 429.795 14.9898 432.776 20.4002 438.081C25.8106 443.386 28.8502 450.581 28.8502 458.084C28.8502 450.581 31.8897 443.386 37.3002 438.081C42.7106 432.776 50.0487 429.795 57.7002 429.795C50.0487 429.795 42.7106 426.815 37.3002 421.51C31.8897 416.204 28.8502 409.009 28.8502 401.506C28.8502 409.009 25.8106 416.204 20.4002 421.51C14.9898 426.815 7.65169 429.795 0.00019455 429.795Z" fill="#F3F3F3"></path> <path d="M0.00019455 497.253C7.65169 497.253 14.9898 500.234 20.4002 505.539C25.8106 510.844 28.8502 518.039 28.8502 525.542C28.8502 518.039 31.8897 510.844 37.3002 505.539C42.7106 500.234 50.0487 497.253 57.7002 497.253C50.0487 497.253 42.7106 494.273 37.3002 488.968C31.8897 483.662 28.8502 476.467 28.8502 468.964C28.8502 476.467 25.8106 483.662 20.4002 488.968C14.9898 494.273 7.65169 497.253 0.00019455 497.253Z" fill="#F3F3F3"></path> </svg> 