<?xml version="1.0" encoding="UTF-8"?> <svg xmlns="http://www.w3.org/2000/svg" width="876" height="220" viewBox="0 0 876 220" fill="none"> <path d="M11.2571 114.706C10.6515 114.76 10.2568 114.394 10.073 113.609C10.3798 104.121 11.7384 90.993 14.1489 74.2241C14.2958 73.2955 14.3554 72.8897 14.3276 73.0066C14.5557 71.2698 14.7777 69.896 14.9937 68.8851C15.1996 67.7606 15.3259 66.8148 15.3726 66.0478C15.416 65.2428 15.4415 64.6684 15.4493 64.3243L15.6045 62.1934C15.6022 61.7359 15.6367 61.0461 15.7079 60.1243C11.3827 60.3918 8.40623 60.5973 6.77856 60.741C5.15089 60.8847 3.37682 61.0986 1.45636 61.3826C0.651426 61.3392 0.225564 61.0526 0.178775 60.5226C0.131986 59.9927 0.341266 59.5546 0.806615 59.2083C1.27196 58.8621 1.97613 58.6282 2.9191 58.5068C3.25644 58.4389 3.80363 58.3715 4.56069 58.3047L16.1637 57.5091C16.5533 55.8725 17.2023 55.0141 18.1107 54.9339C18.6407 54.8871 18.9908 55.1804 19.1612 55.8139L19.375 56.9395L19.3433 57.2284L22.1672 56.8074L24.4851 56.4883L27.6447 55.9804C29.0352 55.7432 30.6011 55.5477 32.3424 55.394L34.3864 55.2135C34.7271 55.1834 34.9714 55.1428 35.1195 55.0916C35.7797 55.224 36.1299 55.5174 36.17 55.9716C36.2702 57.1072 35.393 57.7569 33.5382 57.9206C31.4563 58.1044 28.9096 58.4246 25.8981 58.8813C23.0758 59.3212 20.5876 59.6553 18.4333 59.8837C18.0105 63.7358 17.5626 67.304 17.0896 70.5883C16.4764 74.8769 15.6763 81.5853 14.6893 90.7134C13.7401 99.8383 13.0603 107.261 12.6498 112.981C12.6108 113.404 12.4344 113.782 12.1205 114.115C11.8477 114.482 11.5599 114.68 11.2571 114.706Z" fill="#C2AC8D"></path> <path d="M46.7594 109.97C46.0023 110.036 45.2481 109.702 44.4965 108.968C43.7828 108.23 43.1593 107.216 42.626 105.928C42.1305 104.637 41.8175 103.253 41.6872 101.777C41.5268 99.9599 41.4387 98.0985 41.423 96.1925C40.8486 96.1669 40.5363 95.8702 40.4861 95.3024C40.4761 95.1888 40.4956 94.9773 40.5445 94.6678L41.5047 92.5803C41.8161 86.6017 42.7981 78.7138 44.4509 68.9165C45.6618 62.3244 47.3683 57.6723 49.5703 54.9601C50.2916 54.0572 51.0119 53.574 51.7311 53.5105C54.343 53.2799 55.7893 54.7544 56.07 57.934C56.4209 61.9085 55.0618 66.6063 51.9927 72.0272C51.1388 73.5904 49.9516 75.698 48.431 78.35C46.8413 81.0844 45.6669 83.5532 44.9077 85.7565C44.7552 86.1896 44.5153 86.4969 44.188 86.6784L44.1129 87.7723C47.3702 82.7543 50.4751 80.115 53.4276 79.8543C54.6011 79.7507 55.489 80.3018 56.0913 81.5075C56.6904 82.6753 57.0617 84.0731 57.2055 85.7007C57.4394 88.3504 57.1334 91.5819 56.2875 95.395C55.4761 99.167 54.3446 102.338 52.893 104.907C51.0372 108.085 48.9927 109.772 46.7594 109.97ZM46.6073 77.1377C47.5268 75.4543 48.1491 74.293 48.4741 73.654L49.314 72.1493C52.2841 66.4701 53.6404 62.1731 53.3831 59.2585C53.2995 58.3121 53.1809 57.6169 53.0272 57.1727C52.8702 56.6906 52.5646 56.4696 52.1104 56.5097C51.2776 56.5833 50.3937 57.8057 49.4587 60.1772C47.6164 64.8031 46.0798 71.5956 44.849 80.5546L46.6073 77.1377ZM47.0815 107.137C48.4821 107.014 49.779 105.716 50.9724 103.246C52.2036 100.772 53.1559 97.7315 53.8292 94.1243C54.4402 90.6752 54.6772 88.1747 54.5402 86.6227C54.3932 84.9572 54.21 83.9625 53.9906 83.6385C53.7646 83.2388 53.2731 83.0724 52.516 83.1393C51.1533 83.2596 49.7662 84.1831 48.3546 85.91C46.9775 87.5956 45.478 90.055 43.856 93.2882C43.8194 95.4659 43.883 97.4821 44.0468 99.3369C44.518 104.674 45.5296 107.274 47.0815 107.137Z" fill="#C2AC8D"></path> <path d="M71.4937 107.728C69.5253 107.902 67.9806 107.257 66.8594 105.792C65.776 104.323 65.1391 102.51 64.9486 100.353C64.6445 96.9079 64.9182 93.5267 65.7697 90.209C66.6557 86.8501 68.0082 84.0221 69.8272 81.7253C71.5672 79.3972 73.6485 78.1262 76.0711 77.9123C79.5536 77.6049 81.5287 80.1008 81.9966 85.4002C82.2306 88.0499 82.0342 90.7948 81.4076 93.6349C80.7809 96.4751 79.8626 99.0357 78.6525 101.317C77.4803 103.595 76.1979 105.272 74.8052 106.349C73.7331 107.168 72.6293 107.628 71.4937 107.728ZM71.7223 105.133C72.8957 105.03 74.1114 103.892 75.3694 101.721C76.6651 99.5469 77.6714 96.9022 78.3883 93.7871C79.1429 90.6686 79.4267 88.0495 79.2395 85.9298C79.0457 83.7343 78.7929 82.3833 78.4811 81.8767C78.2039 81.329 77.8849 80.9566 77.5241 80.7596C77.1634 80.5625 76.6235 80.4958 75.9043 80.5593C75.1093 80.6295 74.3033 81.0058 73.4862 81.6883C71.8419 82.9398 70.4949 84.9661 69.4452 87.7673C67.7932 91.9568 67.1344 95.9442 67.4686 99.7295C67.6958 102.303 68.591 104.017 70.1542 104.871C70.7075 105.089 71.2302 105.177 71.7223 105.133Z" fill="#C2AC8D"></path> <path d="M98.9098 71.6043C96.7143 71.7981 94.9269 71.212 93.5474 69.8461C92.2057 68.4767 91.428 66.5808 91.2141 64.1582C91.1706 63.6661 91.2853 63.2364 91.558 62.869C91.8686 62.4982 92.2321 62.2945 92.6485 62.2577C93.0649 62.221 93.3655 62.3851 93.5503 62.7503C93.7964 63.3771 94.0759 64.3824 94.3888 65.7663C94.9812 68.1554 96.2616 69.2631 98.23 69.0893C100.463 68.8921 102.34 68.116 103.861 66.761C105.416 65.3648 106.958 63.3786 108.485 60.8023C108.875 60.4627 109.24 60.2779 109.58 60.2478C110.262 60.1876 110.631 60.4793 110.688 61.1228C110.708 61.3499 110.655 61.6216 110.531 61.9378C106.796 68.0278 102.922 71.25 98.9098 71.6043ZM103.741 104.939C103.325 104.975 102.841 104.675 102.288 104.037C101.771 103.358 101.488 102.753 101.442 102.223L101.356 101.258C101.253 100.085 101.754 96.4735 102.86 90.4247L103.323 87.2367L102.075 90.6085C101.694 91.9011 101.054 93.7314 100.157 96.0995C97.8839 102.328 95.1576 105.582 91.9779 105.863C90.0853 106.03 88.7064 105.102 87.8412 103.081C87.5918 102.416 87.422 101.573 87.3317 100.551C87.1446 98.431 87.3031 95.6894 87.8072 92.326C88.0944 90.3933 88.3492 88.9593 88.5718 88.0241L88.8957 86.5077C89.1851 85.0326 89.4678 83.4817 89.7438 81.8551C90.0544 80.1873 90.1918 78.9354 90.1561 78.0993C90.2362 77.7108 90.416 77.3706 90.6955 77.0789C91.0127 76.7839 91.3606 76.6196 91.7392 76.5862C92.1177 76.5528 92.464 77.0181 92.778 77.9823C92.8649 78.9664 92.7825 80.1944 92.531 81.6663C92.2762 83.1002 92.0079 84.3828 91.7263 85.5139C91.4825 86.6417 91.3362 87.3604 91.2872 87.6699C90.1664 92.6899 89.7647 96.998 90.0822 100.594C90.1825 101.73 90.688 102.486 91.5987 102.863C91.9149 102.988 92.3379 103.027 92.8679 102.98C93.9278 102.887 95.1022 101.715 96.3913 99.4647C97.5803 97.3761 98.7446 94.7936 99.8845 91.7175C101.024 88.6413 101.923 85.8535 102.579 83.354C103.257 80.662 103.846 78.6836 104.344 77.4188C104.843 76.1541 105.452 75.4899 106.171 75.4264C106.815 75.3696 107.165 75.663 107.222 76.3065C107.265 76.7986 107.081 78.1691 106.669 80.418C106.265 82.3229 106.003 83.6812 105.884 84.4928C105.762 85.2666 105.63 86.3654 105.489 87.7894L104.808 95.6316L104.469 98.9232C104.461 99.2672 104.412 99.7866 104.32 100.481C104.384 101.2 104.539 101.664 104.786 101.871L105.358 102.507C105.481 102.61 105.56 102.851 105.593 103.23C105.627 103.609 105.43 103.969 105.002 104.312C104.616 104.69 104.195 104.898 103.741 104.939Z" fill="#C2AC8D"></path> <path d="M135.165 125.053C133.348 125.213 131.76 124.724 130.4 123.585C129.082 122.481 128.339 120.982 128.172 119.09C128.018 117.348 128.269 115.648 128.923 113.988C129.619 112.362 130.669 110.648 132.074 108.846C133.272 107.29 134.73 105.655 136.448 103.939L141.394 99.0391C141.575 98.0694 141.714 97.0463 141.81 95.9697C142.079 94.2674 142.28 92.8763 142.414 91.7963C141.373 96.4278 139.779 99.5441 137.632 101.145C136.953 101.663 136.272 101.952 135.591 102.012C134.266 102.129 133.122 101.696 132.157 100.713C131.231 99.7266 130.691 98.3628 130.537 96.6216C130.247 93.3284 130.567 89.8287 131.499 86.1224C132.427 82.3782 133.818 79.1272 135.673 76.3694C137.6 73.5671 139.832 72.054 142.368 71.83C143.579 71.7231 144.76 71.924 145.911 72.4327C146.129 72.2991 146.37 72.2206 146.635 72.1972C147.278 72.1404 147.627 72.4148 147.68 73.0204C147.737 73.6639 147.677 74.2796 147.5 74.8674C146.684 77.7243 145.54 85.0734 144.068 96.9147C144.64 96.4827 145.292 95.8721 146.023 95.0827C146.199 94.9145 146.514 94.6006 146.97 94.1407C147.422 93.6431 147.791 93.2862 148.077 93.0702C148.363 92.8542 148.62 92.7362 148.847 92.7161C149.49 92.6593 149.84 92.9527 149.897 93.5962C149.941 94.0883 149.842 94.4785 149.6 94.7668C147.41 96.7531 145.534 98.4065 143.972 99.727L143.535 105.144L143.377 106.589C143.133 109.014 142.911 111.036 142.711 112.656C142.514 114.314 142.234 115.903 141.873 117.422C141.337 119.568 140.502 121.339 139.366 122.736C138.269 124.13 136.868 124.902 135.165 125.053ZM135.521 99.2716C136.278 99.2047 137.103 98.6168 137.997 97.5079C138.888 96.3612 139.714 94.9149 140.475 93.1692C141.271 91.3822 141.871 89.5363 142.275 87.6314C142.908 84.867 143.428 82.3225 143.833 79.9978C144.094 78.6396 144.414 76.8566 144.791 74.6488C144.218 74.2035 143.477 74.021 142.568 74.1012C140.941 74.2449 139.332 75.4741 137.744 77.7888C136.193 80.1001 134.958 82.9559 134.037 86.356C133.151 89.715 132.827 92.7382 133.064 95.4257C133.301 98.1133 134.12 99.3952 135.521 99.2716ZM134.403 122.259C135.198 122.189 135.9 121.936 136.511 121.501C137.124 121.103 137.676 120.444 138.167 119.523C138.655 118.565 139.11 117.247 139.535 115.569C139.959 113.891 140.266 112.185 140.456 110.452C140.645 109.138 140.788 107.943 140.883 106.866L141 105.597C141.011 105.291 141.04 104.964 141.085 104.617C141.131 104.27 141.156 103.905 141.16 103.523L141.21 102.145C137.772 105.539 135.14 108.575 133.317 111.254C131.531 113.929 130.725 116.251 130.899 118.219C131.083 120.301 131.654 121.586 132.613 122.074C133.011 122.267 133.608 122.329 134.403 122.259Z" fill="#C2AC8D"></path> <path d="M161.486 99.7829C159.518 99.9567 157.973 99.311 156.852 97.846C155.769 96.3776 155.132 94.5645 154.941 92.4069C154.637 88.9623 154.911 85.5812 155.762 82.2634C156.648 78.9045 158.001 76.0766 159.82 73.7797C161.56 71.4516 163.641 70.1807 166.064 69.9668C169.546 69.6593 171.521 72.1553 171.989 77.4546C172.223 80.1043 172.027 82.8492 171.4 85.6894C170.774 88.5295 169.855 91.0902 168.645 93.3714C167.473 95.6493 166.191 97.3266 164.798 98.4033C163.726 99.2228 162.622 99.6826 161.486 99.7829ZM161.715 97.1877C162.888 97.0841 164.104 95.9468 165.362 93.7757C166.658 91.6014 167.664 88.9566 168.381 85.8415C169.136 82.723 169.419 80.1039 169.232 77.9842C169.038 75.7887 168.786 74.4377 168.474 73.9312C168.197 73.3834 167.878 73.011 167.517 72.814C167.156 72.617 166.616 72.5502 165.897 72.6137C165.102 72.6839 164.296 73.0602 163.479 73.7427C161.835 74.9942 160.488 77.0205 159.438 79.8217C157.786 84.0112 157.127 87.9986 157.461 91.7839C157.689 94.3579 158.584 96.0718 160.147 96.9256C160.7 97.1438 161.223 97.2312 161.715 97.1877Z" fill="#C2AC8D"></path> <path d="M198.804 96.4308C198.198 96.4843 197.822 96.1169 197.677 95.3287C197.761 91.9643 198.288 88.4272 199.257 84.7176C200.161 81.1282 200.892 77.0962 201.451 72.6218L199.529 75.4809L197.602 78.2832C195.491 81.5977 193.488 84.1779 191.591 86.0239C191.27 86.2811 190.902 86.4281 190.485 86.4649C190.069 86.5016 189.692 86.3441 189.356 85.9923C189.02 85.6405 188.683 85.0599 188.344 84.2506C188.04 83.4 187.718 82.3413 187.377 81.0743L186.104 76.3801L185.71 75.156C183.297 82.3883 181.668 87.4913 180.824 90.465C180.741 90.8157 180.639 91.1681 180.517 91.5221C180.43 91.835 180.345 92.1667 180.262 92.5174L179.746 94.4513C179.69 94.6851 179.669 94.8777 179.682 95.0291C179.634 95.3386 179.578 95.5724 179.516 95.7305C179.677 95.8307 179.773 96.0512 179.803 96.3918C179.83 96.6947 179.667 97.0142 179.315 97.3504C179.001 97.6833 178.636 97.8682 178.22 97.9049C177.576 97.9617 177.223 97.6305 177.159 96.9113C176.889 93.8453 179.513 84.6869 185.033 69.4363C185.427 68.7149 185.852 68.3341 186.306 68.294C187.176 68.2171 187.652 68.6329 187.732 69.5414C187.765 69.9199 187.699 70.4599 187.532 71.1613C187.592 71.8427 187.8 72.6826 188.155 73.6813C188.376 74.4628 188.754 75.9363 189.289 78.1017C189.622 79.7126 190.135 81.4221 190.829 83.2301L193.242 80.0987C196.863 75.3157 199.03 72.2061 199.743 70.7698C201.095 67.9419 202.245 66.4862 203.191 66.4026C203.834 66.3458 204.279 66.6308 204.525 67.2576C204.47 71.3825 203.807 76.1904 202.537 81.6814C201.239 87.2892 200.478 91.629 200.253 94.7007C200.18 95.1649 199.986 95.5635 199.672 95.8964C199.396 96.226 199.107 96.4041 198.804 96.4308Z" fill="#C2AC8D"></path> <path d="M223.177 68.1858C222.722 68.2259 222.313 68.1285 221.949 67.8937C221.623 67.6554 221.446 67.3849 221.42 67.0821C221.396 66.8171 221.509 66.5783 221.757 66.3656C224.816 64.7222 228.731 63.6899 233.5 63.2688C235.544 63.0884 237.235 63.0153 238.574 63.0498C239.877 63.1254 241.006 63.1593 241.959 63.1515C242.764 63.1948 243.248 63.2855 243.413 63.4236C243.581 63.5995 243.68 63.8578 243.71 64.1984C243.741 64.5391 243.581 64.8965 243.233 65.2706C242.881 65.6068 242.421 65.8 241.854 65.8502C241.21 65.907 240.116 65.8319 238.572 65.6249C236.955 65.4624 235.428 65.4447 233.99 65.5717C230.129 65.9126 226.674 66.7517 223.626 68.089L223.404 68.1658L223.177 68.1858ZM228.45 94.2139C227.807 94.2707 227.451 93.9206 227.385 93.1635C227.351 92.785 227.452 92.4137 227.687 92.0496C227.947 91.1111 228.179 89.8508 228.383 88.2688C228.667 86.2982 228.864 85.0791 228.976 84.6115L229.288 81.6656L229.592 77.9766C229.907 74.2102 230.278 71.4881 230.702 69.8103C231.164 68.1292 231.906 67.2435 232.928 67.1532C233.306 67.1198 233.631 67.3391 233.901 67.8112L234.81 69.6765C234.88 70.4714 234.649 71.1021 234.118 71.5686C233.977 71.6955 233.793 71.769 233.566 71.7891C233.339 71.8091 233.12 71.714 232.911 71.5035C232.325 74.7979 232.002 77.1916 231.943 78.6845C231.782 81.1784 231.627 83.0994 231.479 84.4477C231.364 84.8774 231.247 85.4981 231.128 86.3097L230.783 88.2285C230.136 92.1386 229.359 94.1337 228.45 94.2139Z" fill="#C2AC8D"></path> <path d="M262.663 90.4493C261.792 90.5262 260.938 90.1438 260.101 89.3022C259.298 88.4194 258.85 87.448 258.756 86.3882C258.549 84.0413 258.823 80.0116 259.577 74.2991C258.812 76.4267 257.767 78.6361 256.443 80.9274C255.154 83.1775 253.862 85.1799 252.567 86.9346C251.273 88.6892 250.306 89.8427 249.669 90.3949C248.786 91.1977 247.777 91.6492 246.641 91.7495C244.483 91.94 243.284 90.6725 243.044 87.9471C242.81 85.2974 243.522 81.9157 245.181 77.8019C246.836 73.6502 248.916 69.995 251.422 66.8364C253.932 63.7156 256.038 62.08 257.741 61.9296C259.483 61.7759 260.534 62.4461 260.894 63.9401C261.048 64.3843 261.148 64.8714 261.195 65.4013C261.374 65.2711 261.577 65.1959 261.805 65.1759C262.675 65.099 263.147 65.4769 263.221 66.3097L263.241 66.5368L262.78 69.0953C262.417 71.0347 262.116 73.8843 261.875 77.644C261.635 81.4037 261.624 84.5137 261.841 86.9741L262.439 87.2647C263.397 87.7523 263.902 88.28 263.952 88.8477C263.985 89.2263 263.883 89.5786 263.645 89.9049C263.406 90.2311 263.079 90.4126 262.663 90.4493ZM246.835 88.7569C247.251 88.7201 247.58 88.5575 247.821 88.2692C251.392 84.6351 254.415 79.7714 256.89 73.678C258.31 70.3101 259.068 68.3167 259.166 67.6977C259.182 67.0097 259.183 66.5899 259.169 66.4385C259.136 66.06 259.011 65.7277 258.795 65.4416C258.579 65.1554 258.32 65.0258 258.017 65.0525C257.639 65.0859 257.162 65.2997 256.586 65.6938C255.142 66.6224 253.493 68.4656 251.638 71.2234C249.821 73.9779 248.377 76.852 247.307 79.8458C246.163 82.8841 245.692 85.5389 245.893 87.81C245.953 88.4914 246.267 88.807 246.835 88.7569Z" fill="#C2AC8D"></path> <path d="M292.401 88.1671C291.795 88.2205 291.419 87.8531 291.273 87.0649C291.358 83.7005 291.885 80.1634 292.854 76.4538C293.758 72.8644 294.489 68.8324 295.048 64.358L293.126 67.2171L291.199 70.0194C289.088 73.3339 287.084 75.9141 285.187 77.7601C284.867 78.0173 284.498 78.1643 284.082 78.2011C283.666 78.2378 283.289 78.0803 282.953 77.7285C282.617 77.3767 282.279 76.7962 281.941 75.9868C281.637 75.1362 281.315 74.0775 280.974 72.8105L279.701 68.1163L279.307 66.8922C276.894 74.1245 275.265 79.2275 274.421 82.2012C274.338 82.5519 274.235 82.9043 274.114 83.2583C274.027 83.5712 273.942 83.9029 273.859 84.2536L273.343 86.1875C273.287 86.4213 273.266 86.6139 273.279 86.7653C273.23 87.0748 273.175 87.3086 273.112 87.4667C273.274 87.5669 273.37 87.7874 273.4 88.128C273.426 88.4309 273.264 88.7504 272.912 89.0866C272.598 89.4195 272.233 89.6044 271.817 89.6411C271.173 89.6979 270.82 89.3667 270.756 88.6475C270.485 85.5815 273.11 76.4231 278.63 61.1726C279.024 60.4511 279.448 60.0703 279.903 60.0302C280.773 59.9533 281.249 60.3691 281.329 61.2776C281.362 61.6561 281.296 62.1961 281.129 62.8975C281.189 63.5789 281.396 64.4188 281.752 65.4175C281.973 66.199 282.351 67.6725 282.886 69.8379C283.219 71.4488 283.732 73.1583 284.426 74.9663L286.839 71.8349C290.46 67.0519 292.627 63.9423 293.339 62.5061C294.692 59.6781 295.841 58.2224 296.788 58.1389C297.431 58.082 297.876 58.367 298.122 58.9938C298.067 63.1187 297.404 67.9266 296.134 73.4176C294.836 79.0254 294.075 83.3652 293.85 86.4369C293.777 86.9011 293.583 87.2997 293.269 87.6326C292.993 87.9622 292.704 88.1403 292.401 88.1671Z" fill="#C2AC8D"></path> <path d="M301.512 97.5481C300.83 97.6082 300.46 97.2977 300.4 96.6163C300.373 96.3135 300.458 95.9817 300.655 95.621C301.301 94.7247 301.985 93.4054 302.709 91.663C303.47 89.9173 304 88.5735 304.298 87.6316C304.288 87.518 304.223 87.4284 304.103 87.3627C303.948 87.3382 303.861 87.2124 303.841 86.9853C303.4 87.1768 303.085 87.281 302.896 87.2977C302.139 87.3645 301.725 87.0005 301.655 86.2056C301.591 85.4864 301.798 84.8005 302.274 84.1481C302.747 83.4578 303.4 83.0759 304.233 83.0024C305.861 82.8587 306.765 83.8088 306.945 85.8529C307.066 87.2156 306.633 89.0086 305.646 91.232C304.701 93.4899 303.635 95.4533 302.447 97.1222C302.126 97.3794 301.815 97.5214 301.512 97.5481Z" fill="#C2AC8D"></path> <path d="M332.736 84.4342C331.032 84.5846 329.642 84.1733 328.564 83.2003C327.524 82.2239 326.942 81.0355 326.819 79.635C326.708 78.3858 326.81 77.1561 327.122 75.9459C327.432 74.6979 327.925 73.3764 328.603 71.9813C329.216 70.7065 329.89 69.4835 330.626 68.3123C331.627 66.6979 332.341 65.4905 332.766 64.69C334.311 61.8832 335.112 59.5045 335.169 57.554C334.806 56.8994 334.246 56.6055 333.489 56.6723C332.694 56.7425 331.821 57.2202 330.869 58.1053C330.062 58.9014 329.639 59.511 329.6 59.934C329.592 60.278 329.433 60.6354 329.122 61.0062C328.849 61.3736 328.581 61.569 328.316 61.5924C327.559 61.6592 327.15 61.352 327.09 60.6706C327.006 59.7243 327.322 58.7618 328.036 57.7832C328.748 56.7667 329.664 55.9038 330.783 55.1945C331.903 54.4853 333.012 54.0822 334.11 53.9853C336.343 53.7881 337.577 55.0144 337.811 57.6641C338.001 59.8217 336.594 63.322 333.588 68.1651C330.548 73.0494 329.11 76.419 329.273 78.2738C329.39 79.5986 329.76 80.5388 330.381 81.0943C330.999 81.612 331.705 81.8357 332.5 81.7655C333.219 81.702 333.813 81.5161 334.282 81.2077C335.223 80.6287 336.297 79.6183 337.505 78.1765C338.747 76.6935 339.69 75.9235 340.334 75.8667C340.977 75.8099 341.327 76.1033 341.384 76.7467C341.421 77.1631 341.303 77.555 341.03 77.9224C339.463 80.0445 338.096 81.6339 336.931 82.6905C335.762 83.7092 334.363 84.2904 332.736 84.4342Z" fill="#C2AC8D"></path> <path d="M351.247 105.975C349.43 106.135 347.842 105.646 346.482 104.507C345.164 103.403 344.422 101.904 344.254 100.011C344.101 98.2702 344.351 96.5696 345.006 94.9096C345.701 93.2841 346.752 91.5701 348.157 89.7676C349.354 88.2122 350.812 86.5766 352.53 84.8609L357.476 79.9609C357.658 78.9912 357.796 77.968 357.892 76.8915C358.161 75.1892 358.363 73.7981 358.496 72.7181C357.455 77.3496 355.861 80.4659 353.714 82.067C353.035 82.5847 352.355 82.8736 351.673 82.9338C350.348 83.0508 349.204 82.6178 348.24 81.6347C347.313 80.6484 346.773 79.2846 346.62 77.5434C346.329 74.2502 346.649 70.7504 347.581 67.0441C348.509 63.3 349.901 60.049 351.755 57.2912C353.682 54.4889 355.914 52.9757 358.45 52.7518C359.661 52.6449 360.843 52.8458 361.994 53.3545C362.211 53.2209 362.452 53.1424 362.717 53.119C363.36 53.0622 363.709 53.3366 363.762 53.9422C363.819 54.5857 363.759 55.2014 363.582 55.7892C362.766 58.6461 361.622 65.9952 360.15 77.8365C360.722 77.4045 361.374 76.7938 362.105 76.0045C362.281 75.8363 362.597 75.5224 363.052 75.0625C363.504 74.5649 363.873 74.208 364.159 73.992C364.445 73.776 364.702 73.658 364.929 73.6379C365.573 73.5811 365.923 73.8745 365.979 74.518C366.023 75.01 365.924 75.4003 365.682 75.6886C363.492 77.6749 361.617 79.3283 360.055 80.6488L359.617 86.0662L359.459 87.5108C359.215 89.9356 358.993 91.958 358.793 93.5779C358.596 95.2356 358.317 96.8243 357.955 98.344C357.419 100.489 356.584 102.261 355.449 103.658C354.351 105.052 352.95 105.824 351.247 105.975ZM351.603 80.1934C352.36 80.1265 353.185 79.5386 354.079 78.4297C354.97 77.2829 355.796 75.8367 356.557 74.091C357.353 72.304 357.953 70.4581 358.357 68.5532C358.991 65.7888 359.51 63.2443 359.915 60.9196C360.177 59.5614 360.496 57.7784 360.873 55.5706C360.3 55.1253 359.559 54.9428 358.651 55.023C357.023 55.1667 355.415 56.3959 353.826 58.7106C352.275 61.0219 351.04 63.8777 350.119 67.2778C349.233 70.6367 348.909 73.66 349.146 76.3475C349.383 79.0351 350.202 80.317 351.603 80.1934ZM350.485 103.181C351.28 103.111 351.983 102.858 352.593 102.422C353.206 102.025 353.758 101.366 354.249 100.445C354.737 99.4865 355.193 98.1683 355.617 96.4905C356.041 94.8127 356.348 93.1071 356.538 91.3736C356.728 90.0599 356.87 88.8647 356.966 87.7881L357.082 86.519C357.094 86.2128 357.122 85.886 357.168 85.5387C357.213 85.1913 357.238 84.8267 357.243 84.4448L357.293 83.0671C353.854 86.4607 351.223 89.4969 349.399 92.1756C347.614 94.851 346.808 97.1729 346.981 99.1412C347.165 101.223 347.736 102.508 348.695 102.995C349.094 103.189 349.69 103.251 350.485 103.181Z" fill="#C2AC8D"></path> <path d="M377.574 80.7615C376.362 80.8684 375.399 80.7627 374.685 80.4443C373.966 80.0881 373.362 79.512 372.873 78.716C371.947 77.3099 371.393 75.5659 371.209 73.484C370.888 69.8502 371.133 66.3571 371.943 63.0048C372.75 59.6147 374.001 56.7195 375.697 54.3191C377.327 52.0389 379.22 50.8036 381.378 50.6131C382.513 50.5128 383.445 50.9074 384.172 51.7969C384.933 52.6452 385.373 53.7318 385.49 55.0566C385.693 57.3657 385.265 59.4253 384.204 61.2357C383.181 63.0426 381.717 64.6025 379.811 65.9152C378.16 67.091 376.13 68.3001 373.722 69.5427L373.969 73.6409C374.25 76.8205 375.356 78.3251 377.286 78.1546C378.157 78.0778 379.047 77.7894 379.957 77.2894C380.863 76.7516 381.8 76.1348 382.769 75.4389C383.237 75.1305 383.623 74.9629 383.926 74.9362C384.569 74.8794 384.921 75.1917 384.981 75.873C385.025 76.3651 384.603 76.9936 383.717 77.7585C382.869 78.52 381.842 79.202 380.636 79.8044C379.427 80.3689 378.406 80.6879 377.574 80.7615ZM373.936 66.7772C374.26 66.5579 374.982 66.0936 376.102 65.3843C376.611 65.1104 377.335 64.6651 378.272 64.0482C379.965 62.907 381.189 61.6544 381.946 60.2906C382.741 58.9234 383.055 57.2934 382.888 55.4008C382.757 53.9245 382.068 53.2416 380.819 53.3519C379.721 53.4488 378.522 54.5655 377.223 56.702C375.848 58.8453 374.832 61.5863 374.173 64.9252C373.988 65.8571 373.909 66.4744 373.936 66.7772Z" fill="#C2AC8D"></path> <path d="M410.742 77.9474C408.925 78.1079 407.428 77.5724 406.251 76.3412C405.109 75.0687 404.454 73.4862 404.287 71.5935C403.993 68.2625 404.294 64.7644 405.191 61.0993C406.126 57.4308 407.492 54.3157 409.287 51.7538C411.083 49.192 413.098 47.8125 415.331 47.6153C416.959 47.4716 418.07 47.9647 418.666 49.0947C418.796 49.2739 418.909 49.4738 419.005 49.6942C419.097 49.8768 419.19 50.0594 419.282 50.242C419.518 50.7552 419.734 51.0413 419.93 51.1003C420.115 51.4654 420.216 51.7427 420.233 51.9319C420.263 52.2726 420.121 52.6094 419.807 52.9423C419.531 53.2718 419.203 53.4533 418.825 53.4868C418.03 53.5569 417.467 53.0153 417.136 51.862C416.806 50.7086 416.129 50.177 415.107 50.2672C413.745 50.3875 412.4 51.5744 411.073 53.8279C409.742 56.0434 408.67 58.8084 407.857 62.1228C407.064 65.2446 406.773 67.9979 406.984 70.3826C407.281 73.7515 408.66 75.3273 411.121 75.1101C412.37 74.9998 413.473 74.3112 414.429 73.0442C414.529 72.8827 414.715 72.6183 414.988 72.2509C415.258 71.8456 415.518 71.5556 415.77 71.3808C416.018 71.1681 416.256 71.0518 416.483 71.0317C417.202 70.9682 417.59 71.2582 417.647 71.9017C417.714 72.6588 417.426 73.5044 416.784 74.4385C416.138 75.3347 415.272 76.1169 414.187 76.7849C413.101 77.453 411.953 77.8405 410.742 77.9474Z" fill="#C2AC8D"></path> <path d="M440.059 75.0156C439.453 75.0691 439.008 74.994 438.723 74.7903C438.438 74.5866 438.308 74.1975 438.334 73.623L439.652 56.7978C439.812 54.7237 439.844 53.1378 439.747 52.0401C439.587 50.2231 438.995 49.3598 437.973 49.45C437.178 49.5202 436.117 50.8919 434.789 53.565C433.495 56.197 432.232 59.1696 430.999 62.4829C429.762 65.7584 428.945 68.1766 428.549 69.7375L427.92 71.6814C427.663 72.6578 427.47 73.2851 427.342 73.5635C426.791 75.0999 426.175 75.8982 425.493 75.9583C425.115 75.9918 424.862 75.9378 424.735 75.7964C424.643 75.6138 424.572 75.2386 424.521 74.6708C424.471 74.103 424.823 69.6659 425.578 61.3593C426.37 53.0495 426.861 48.6763 427.052 48.2399C427.239 47.7656 427.403 47.465 427.544 47.3381C427.723 47.2078 428.059 47.1209 428.551 47.0775C429.005 47.0374 429.38 47.176 429.675 47.4932C430.008 47.8072 430.19 48.1345 430.22 48.4752C430.253 48.8537 430.24 49.1409 430.181 49.3369C430.188 49.4126 430.054 50.0539 429.779 51.2607C429.088 53.8014 428.552 57.4536 428.171 62.2176L427.899 65.6177C428.422 64.1982 428.802 63.0965 429.038 62.3127C429.881 59.7587 430.655 57.5159 431.362 55.5842C432.107 53.6492 432.958 51.8384 433.915 50.1516C435.37 47.6199 436.817 46.2905 438.255 46.1635C440.792 45.9395 442.24 47.8716 442.601 51.9597C442.711 53.2089 442.692 54.7174 442.543 56.4854C442.432 58.25 442.191 60.7127 441.822 63.8734L441.668 65.3748C441.417 68.1436 441.332 70.4209 441.413 72.2067L441.208 73.7698C441.248 74.224 441.199 74.5335 441.061 74.6983C440.961 74.8597 440.627 74.9655 440.059 75.0156Z" fill="#C2AC8D"></path> <path d="M455.307 73.841C453.339 74.0148 451.794 73.3692 450.673 71.9041C449.59 70.4357 448.953 68.6227 448.762 66.4651C448.458 63.0205 448.732 59.6393 449.583 56.3216C450.469 52.9626 451.822 50.1347 453.641 47.8378C455.381 45.5098 457.462 44.2388 459.885 44.0249C463.367 43.7174 465.342 46.2134 465.81 51.5128C466.044 54.1625 465.848 56.9074 465.221 59.7475C464.594 62.5876 463.676 65.1483 462.466 67.4296C461.294 69.7075 460.011 71.3848 458.619 72.4614C457.547 73.2809 456.443 73.7408 455.307 73.841ZM455.536 71.2459C456.709 71.1423 457.925 70.0049 459.183 67.8339C460.479 65.6595 461.485 63.0147 462.202 59.8996C462.956 56.7812 463.24 54.1621 463.053 52.0423C462.859 49.8469 462.606 48.4959 462.295 47.9893C462.017 47.4416 461.698 47.0692 461.338 46.8721C460.977 46.6751 460.437 46.6083 459.718 46.6718C458.923 46.742 458.117 47.1184 457.3 47.8009C455.655 49.0523 454.308 51.0787 453.259 53.8798C451.607 58.0694 450.948 62.0568 451.282 65.842C451.509 68.416 452.405 70.1299 453.968 70.9838C454.521 71.2019 455.044 71.2893 455.536 71.2459Z" fill="#C2AC8D"></path> <path d="M473.133 72.3244C472.527 72.3779 472.151 72.0105 472.006 71.2223L472.314 67.59C472.479 65.134 472.701 62.4632 472.98 59.5774L473.14 57.5033C473.549 52.6225 473.812 49.7763 473.932 48.9646C474.177 46.9974 474.318 45.3446 474.352 44.0064C474.432 43.6179 474.612 43.2778 474.891 42.986C475.209 42.691 475.538 42.5284 475.878 42.4984C476.333 42.4583 476.683 42.7516 476.929 43.3784C476.982 43.984 476.967 44.6721 476.882 45.4425C476.774 45.9479 476.677 47.0056 476.59 48.6155L476.071 53.754C479.789 47.4747 483.063 43.5044 485.892 41.8432C486.543 41.4423 487.209 41.2118 487.89 41.1517C488.534 41.0949 489.276 41.5062 490.117 42.3857C490.995 43.2618 491.466 44.0595 491.53 44.7787C491.583 45.3843 491.473 45.8709 491.201 46.2383C490.928 46.6057 490.583 46.8078 490.167 46.8445C489.599 46.8947 489.041 46.4098 488.494 45.3901C488.449 45.3177 488.338 45.1368 488.16 44.8473C488.016 44.5167 487.862 44.2823 487.697 44.1443C487.567 43.9651 487.426 43.8821 487.274 43.8955C487.009 43.9189 486.5 44.1928 485.745 44.7172C485.024 45.2004 483.893 46.4257 482.35 48.393C480.841 50.3192 479.688 51.9469 478.89 53.2763C479.545 56.8043 480.541 59.8826 481.88 62.5111C483.218 65.1396 484.574 66.8891 485.948 67.7596C486.673 68.1915 487.338 68.3808 487.944 68.3273C488.587 68.2705 489.083 68.055 489.432 67.6809C489.818 67.3035 490.091 66.7262 490.252 65.9491C490.488 65.1653 490.698 64.7462 490.884 64.6916C490.991 64.6059 491.196 64.5496 491.499 64.5229C491.726 64.5028 492.003 64.6119 492.329 64.8502C492.617 65.0917 492.793 65.5721 492.857 66.2913C492.924 67.0484 492.665 67.796 492.082 68.5341C490.956 70.045 489.769 70.8556 488.52 70.9658C484.886 71.2867 481.802 68.5453 479.268 62.7417C478.177 60.3203 477.439 58.2301 477.055 56.471C476.955 56.6325 476.602 57.3884 475.996 58.7389L475.425 60.0482C475.11 63.3949 474.829 66.9102 474.582 70.5942C474.581 71.0139 474.424 71.3902 474.11 71.7231C473.799 72.0939 473.474 72.2943 473.133 72.3244Z" fill="#C2AC8D"></path> <path d="M502.937 69.6357C500.969 69.8095 499.424 69.1638 498.303 67.6988C497.22 66.2304 496.583 64.4174 496.392 62.2597C496.088 58.8151 496.362 55.434 497.213 52.1162C498.099 48.7573 499.452 45.9294 501.271 43.6325C503.011 41.3044 505.092 40.0335 507.515 39.8196C510.997 39.5121 512.972 42.0081 513.44 47.3074C513.674 49.9571 513.478 52.702 512.851 55.5422C512.225 58.3823 511.306 60.943 510.096 63.2242C508.924 65.5022 507.642 67.1794 506.249 68.2561C505.177 69.0756 504.073 69.5354 502.937 69.6357ZM503.166 67.0405C504.339 66.9369 505.555 65.7996 506.813 63.6286C508.109 61.4542 509.115 58.8094 509.832 55.6943C510.587 52.5758 510.87 49.9567 510.683 47.837C510.489 45.6415 510.237 44.2905 509.925 43.784C509.648 43.2362 509.329 42.8639 508.968 42.6668C508.607 42.4698 508.067 42.403 507.348 42.4665C506.553 42.5367 505.747 42.913 504.93 43.5955C503.286 44.847 501.939 46.8733 500.889 49.6745C499.237 53.864 498.578 57.8514 498.912 61.6367C499.14 64.2107 500.035 65.9246 501.598 66.7784C502.151 66.9966 502.674 67.084 503.166 67.0405Z" fill="#C2AC8D"></path> <path d="M530.353 33.5115C528.158 33.7053 526.371 33.1193 524.991 31.7533C523.649 30.384 522.872 28.488 522.658 26.0655C522.614 25.5734 522.729 25.1436 523.002 24.7762C523.312 24.4055 523.676 24.2017 524.092 24.1649C524.509 24.1282 524.809 24.2924 524.994 24.6575C525.24 25.2843 525.52 26.2896 525.833 27.6735C526.425 30.0626 527.705 31.1703 529.674 30.9965C531.907 30.7993 533.784 30.0233 535.305 28.6683C536.86 27.2721 538.401 25.2858 539.929 22.7095C540.318 22.3699 540.683 22.1851 541.024 22.155C541.705 22.0949 542.074 22.3865 542.131 23.03C542.151 23.2571 542.099 23.5288 541.974 23.845C538.24 29.9351 534.366 33.1572 530.353 33.5115ZM535.185 66.8457C534.769 66.8825 534.284 66.5819 533.732 65.944C533.214 65.2649 532.932 64.6604 532.885 64.1305L532.8 63.1652C532.696 61.9918 533.198 58.3807 534.304 52.332L534.766 49.1439L533.519 52.5157C533.137 53.8083 532.498 55.6386 531.601 58.0067C529.328 64.2348 526.601 67.4892 523.422 67.7699C521.529 67.937 520.15 67.0097 519.285 64.9879C519.035 64.3233 518.866 63.48 518.775 62.4579C518.588 60.3382 518.747 57.5966 519.251 54.2332C519.538 52.3005 519.793 50.8665 520.016 49.9313L520.339 48.415C520.629 46.9398 520.911 45.3889 521.188 43.7623C521.498 42.0946 521.635 40.8426 521.6 40.0065C521.68 39.618 521.86 39.2778 522.139 38.9861C522.456 38.6911 522.804 38.5269 523.183 38.4934C523.561 38.46 523.908 38.9254 524.222 39.8895C524.309 40.8737 524.226 42.1017 523.975 43.5735C523.72 45.0075 523.452 46.29 523.17 47.4212C522.926 48.549 522.78 49.2676 522.731 49.5771C521.61 54.5972 521.208 58.9052 521.526 62.5012C521.626 63.6368 522.132 64.3933 523.042 64.7706C523.359 64.8953 523.782 64.9342 524.312 64.8875C525.371 64.7939 526.546 63.622 527.835 61.3719C529.024 59.2833 530.188 56.7009 531.328 53.6247C532.468 50.5485 533.366 47.7607 534.023 45.2613C534.701 42.5692 535.289 40.5908 535.788 39.3261C536.287 38.0613 536.896 37.3972 537.615 37.3337C538.258 37.2769 538.608 37.5702 538.665 38.2137C538.709 38.7058 538.525 40.0763 538.113 42.3252C537.709 44.2301 537.447 45.5884 537.328 46.4C537.206 47.1738 537.074 48.2726 536.932 49.6966L536.252 57.5389L535.913 60.8304C535.905 61.1744 535.855 61.6938 535.764 62.3885C535.828 63.1077 535.983 63.5709 536.23 63.7779L536.801 64.4141C536.925 64.5177 537.003 64.7587 537.037 65.1372C537.07 65.5158 536.873 65.8765 536.446 66.2194C536.059 66.5969 535.639 66.8056 535.185 66.8457Z" fill="#C2AC8D"></path> <path d="M564.678 64.2989C563.618 64.3925 562.779 64.1805 562.162 63.6628C561.581 63.1418 561.251 62.4271 561.171 61.5186C561.088 60.5723 561.19 58.9229 561.478 56.5704L562.177 49.5849C559.598 51.9107 557.135 53.1773 554.788 53.3845C553.085 53.5349 551.739 53.196 550.75 52.3677C550.708 52.7529 550.665 53.1381 550.623 53.5233C550.619 53.9052 550.595 54.2887 550.553 54.674C550.512 55.9365 550.435 57.2212 550.321 58.5283C550.037 63.0929 549.214 65.4354 547.852 65.5557C547.284 65.6058 546.908 65.2385 546.724 64.4536C546.804 61.471 547.233 56.8173 548.009 50.4925C548.821 44.1264 549.413 39.8206 549.787 37.575C549.867 37.1865 550.047 36.8464 550.327 36.5547C550.644 36.2596 550.973 36.097 551.313 36.067C551.768 36.0269 552.118 36.3202 552.364 36.947C552.417 37.5526 552.251 39.5511 551.863 42.9423C551.557 45.5252 551.333 47.7385 551.191 49.5821C552.107 50.4549 553.455 50.8128 555.234 50.6557C556.975 50.502 558.81 49.4626 560.738 47.5376C561.331 46.9129 561.883 46.2538 562.394 45.5602L562.91 41.6808C563.31 38.8607 563.841 36.8873 564.505 35.7606C564.83 35.1216 565.314 34.7736 565.958 34.7168C566.601 34.66 566.955 34.9912 567.018 35.7104L567.043 35.9943C565.593 43.3323 564.745 48.6334 564.499 51.8977C564.251 54.7044 564.121 56.9093 564.11 58.5125C564.107 59.7717 564.091 60.4597 564.063 60.5766L564.072 61.3197C564.092 61.5468 564.197 61.6521 564.386 61.6353C564.537 61.622 564.665 61.5535 564.768 61.4299C564.948 61.2996 565.245 61.2161 565.662 61.1794C566.305 61.1225 566.657 61.4348 566.717 62.1162C566.834 63.441 566.155 64.1686 564.678 64.2989Z" fill="#C2AC8D"></path> <path d="M598.895 61.3351C597.759 61.4354 596.931 61.127 596.41 60.4101C595.927 59.6898 595.605 58.4212 595.444 56.6043C595.17 53.5003 595.578 49.4779 596.668 44.5369C594.519 46.5577 591.95 47.7001 588.959 47.9641C587.937 48.0544 587.139 48.0867 586.565 48.0611L586.85 49.352C587.014 51.2068 586.689 53.1429 585.875 55.1603C585.096 57.1364 583.968 58.8382 582.492 60.2656C581.051 61.6518 579.497 62.4184 577.831 62.5654C575.03 62.8127 573.473 61.1573 573.159 57.5991C572.768 53.1704 573.234 48.5133 574.557 43.628C575.155 41.3245 575.555 39.5916 575.758 38.4293C575.96 37.267 576.063 36.0562 576.066 34.797C576.147 34.4085 576.326 34.0684 576.606 33.7767C576.923 33.4816 577.252 33.319 577.593 33.289C578.047 33.2489 578.397 33.5422 578.643 34.169C578.632 35.7722 578.468 37.3698 578.151 38.9619C577.871 40.5506 577.441 42.5913 576.86 45.0841C575.795 49.8703 575.386 53.664 575.633 56.4651C575.771 58.0171 576.189 59.0864 576.889 59.6731C577.14 59.918 577.625 60.0087 578.344 59.9452C579.025 59.885 579.775 59.5137 580.592 58.8312C581.409 58.1487 582.097 57.3058 582.657 56.3027C583.919 54.1695 584.444 51.9106 584.233 49.5258C584.183 48.958 584.08 48.4331 583.923 47.9511C581.264 47.6517 579.881 46.8964 579.774 45.6851C579.714 45.0038 579.984 44.3886 580.584 43.8397C581.222 43.2875 581.863 42.983 582.506 42.9262C583.642 42.8259 584.692 43.7059 585.658 45.5662C586.277 45.6642 587.059 45.6714 588.006 45.5878C590.239 45.3906 592.216 44.663 593.936 43.4048C595.656 42.1467 597.035 40.4799 598.072 38.4046C598.267 37.5863 598.398 36.9072 598.464 36.3672C598.989 33.231 599.894 31.606 601.181 31.4924C601.863 31.4323 602.245 31.8753 602.328 32.8217C601.854 35.2287 601.169 37.4064 600.273 39.3547C598.472 46.6093 597.734 52.0724 598.058 55.7441C598.238 57.7881 598.594 58.7868 599.124 58.74C599.616 58.6965 600.039 58.5256 600.394 58.2272C600.784 57.8876 601.22 57.4295 601.704 56.8527C602.149 56.2794 602.53 55.8451 602.847 55.5501C603.161 55.2172 603.451 55.039 603.716 55.0156C604.435 54.9521 604.823 55.2421 604.88 55.8856C604.91 56.2263 604.792 56.6182 604.526 57.0613L603.17 58.5544C602.445 59.4195 601.797 60.068 601.224 60.5C600.693 60.9665 599.917 61.2449 598.895 61.3351Z" fill="#C2AC8D"></path> <path d="M622.017 32.9717C621.562 33.0118 621.153 32.9144 620.789 32.6795C620.463 32.4413 620.286 32.1707 620.26 31.8679C620.236 31.603 620.349 31.3641 620.597 31.1515C623.656 29.508 627.571 28.4758 632.34 28.0547C634.384 27.8742 636.075 27.8012 637.414 27.8356C638.717 27.9113 639.846 27.9452 640.799 27.9373C641.604 27.9807 642.088 28.0714 642.253 28.2094C642.421 28.3853 642.52 28.6436 642.55 28.9843C642.581 29.325 642.421 29.6824 642.073 30.0564C641.721 30.3927 641.261 30.5859 640.694 30.636C640.05 30.6928 638.956 30.6177 637.412 30.4107C635.795 30.2483 634.268 30.2306 632.83 30.3576C628.969 30.6985 625.514 31.5375 622.466 32.8748L622.244 32.9516L622.017 32.9717ZM627.29 58.9997C626.647 59.0566 626.292 58.7064 626.225 57.9494C626.191 57.5708 626.292 57.1995 626.527 56.8355C626.787 55.8969 627.019 54.6366 627.223 53.0546C627.507 51.084 627.704 49.8649 627.816 49.3973L628.128 46.4514L628.432 42.7624C628.748 38.996 629.118 36.274 629.542 34.5962C630.004 32.915 630.746 32.0293 631.768 31.9391C632.146 31.9057 632.471 32.125 632.741 32.597L633.65 34.4623C633.72 35.2572 633.49 35.8879 632.959 36.3545C632.817 36.4814 632.633 36.5549 632.406 36.5749C632.179 36.595 631.96 36.4998 631.751 36.2894C631.165 39.5837 630.842 41.9774 630.783 43.4704C630.622 45.9642 630.467 47.8853 630.319 49.2335C630.204 49.6633 630.087 50.2839 629.968 51.0956L629.623 53.0144C628.976 56.9244 628.199 58.9195 627.29 58.9997Z" fill="#C2AC8D"></path> <path d="M648.54 56.8374C647.783 56.9043 647.029 56.5703 646.278 55.8355C645.564 55.0975 644.94 54.0844 644.407 52.7963C643.912 51.5049 643.599 50.121 643.468 48.6448C643.308 46.8278 643.22 44.9664 643.204 43.0604C642.63 43.0348 642.317 42.7381 642.267 42.1703C642.257 42.0567 642.277 41.8452 642.326 41.5357L643.286 39.4482C643.597 33.4696 644.579 25.5817 646.232 15.7844C647.443 9.19232 649.149 4.54021 651.351 1.82804C652.073 0.925092 652.793 0.44187 653.512 0.378371C656.124 0.147768 657.57 1.62228 657.851 4.80191C658.202 8.77645 656.843 13.4742 653.774 18.8951C652.92 20.4583 651.733 22.5659 650.212 25.2179C648.622 27.9523 647.448 30.4211 646.689 32.6244C646.536 33.0575 646.296 33.3648 645.969 33.5463L645.894 34.6402C649.151 29.6222 652.256 26.9829 655.209 26.7222C656.382 26.6186 657.27 27.1697 657.872 28.3754C658.471 29.5432 658.843 30.941 658.987 32.5686C659.22 35.2183 658.914 38.4498 658.069 42.2629C657.257 46.0349 656.126 49.2057 654.674 51.7754C652.818 54.9529 650.774 56.6402 648.54 56.8374ZM648.388 24.0056C649.308 22.3222 649.93 21.1609 650.255 20.5219L651.095 19.0172C654.065 13.338 655.421 9.04102 655.164 6.12636C655.081 5.18004 654.962 4.48478 654.808 4.04057C654.651 3.55851 654.346 3.33753 653.891 3.37764C653.059 3.45116 652.175 4.67364 651.24 7.04507C649.397 11.671 647.861 18.4635 646.63 27.4224L648.388 24.0056ZM648.863 54.0051C650.263 53.8814 651.56 52.5844 652.753 50.1138C653.985 47.64 654.937 44.5994 655.61 40.9922C656.221 37.5431 656.458 35.0426 656.321 33.4906C656.174 31.8251 655.991 30.8304 655.772 30.5064C655.546 30.1067 655.054 29.9403 654.297 30.0072C652.934 30.1275 651.547 31.051 650.136 32.7779C648.759 34.4635 647.259 36.9229 645.637 40.1561C645.6 42.3338 645.664 44.35 645.828 46.2048C646.299 51.542 647.311 54.1421 648.863 54.0051Z" fill="#C2AC8D"></path> <path d="M673.275 54.5964C671.306 54.7702 669.762 54.1245 668.64 52.6594C667.557 51.191 666.92 49.378 666.73 47.2204C666.426 43.7758 666.699 40.3946 667.551 37.0769C668.437 33.718 669.789 30.89 671.608 28.5932C673.348 26.2651 675.43 24.9941 677.852 24.7802C681.335 24.4728 683.31 26.9687 683.778 32.2681C684.012 34.9178 683.815 37.6627 683.189 40.5028C682.562 43.343 681.644 45.9036 680.434 48.1849C679.261 50.4628 677.979 52.1401 676.586 53.2168C675.514 54.0362 674.41 54.4961 673.275 54.5964ZM673.503 52.0012C674.677 51.8976 675.892 50.7603 677.15 48.5892C678.446 46.4148 679.453 43.7701 680.169 40.655C680.924 37.5365 681.208 34.9174 681.021 32.7977C680.827 30.6022 680.574 29.2512 680.262 28.7447C679.985 28.1969 679.666 27.8245 679.305 27.6275C678.944 27.4304 678.405 27.3637 677.685 27.4272C676.89 27.4974 676.084 27.8737 675.267 28.5562C673.623 29.8077 672.276 31.834 671.226 34.6352C669.574 38.8247 668.915 42.8121 669.25 46.5974C669.477 49.1714 670.372 50.8853 671.935 51.7391C672.489 51.9573 673.011 52.0446 673.503 52.0012Z" fill="#C2AC8D"></path> <path d="M705.522 51.8064C705.106 51.8432 704.622 51.5426 704.069 50.9047C703.552 50.2256 703.269 49.6211 703.223 49.0911L703.137 48.1259C703.034 46.9525 703.535 43.3414 704.641 37.2926L705.104 34.1046L703.857 37.4764C703.475 38.769 702.835 40.5993 701.938 42.9674C699.665 49.1954 696.939 52.4498 693.759 52.7306C691.866 52.8977 690.487 51.9703 689.622 49.9486C689.373 49.284 689.203 48.4406 689.113 47.4186C688.926 45.2989 689.084 42.5573 689.588 39.1939C689.875 37.2612 690.13 35.8272 690.353 34.892L690.677 33.3756C690.966 31.9005 691.249 30.3496 691.525 28.723C691.835 27.0552 691.973 25.8033 691.937 24.9672C692.017 24.5787 692.197 24.2385 692.477 23.9468C692.794 23.6518 693.142 23.4875 693.52 23.4541C693.899 23.4207 694.245 23.886 694.559 24.8502C694.646 25.8343 694.564 27.0623 694.312 28.5342C694.057 29.9681 693.789 31.2507 693.507 32.3818C693.264 33.5096 693.117 34.2283 693.068 34.5378C691.947 39.5578 691.546 43.8659 691.863 47.4619C691.964 48.5975 692.469 49.3539 693.38 49.7313C693.696 49.856 694.119 49.8949 694.649 49.8481C695.709 49.7545 696.883 48.5827 698.172 46.3326C699.361 44.244 700.526 41.6615 701.666 38.5854C702.805 35.5092 703.704 32.7214 704.36 30.2219C705.038 27.5299 705.627 25.5515 706.125 24.2867C706.624 23.022 707.233 22.3578 707.952 22.2943C708.596 22.2375 708.946 22.5309 709.003 23.1744C709.046 23.6664 708.862 25.037 708.45 27.2859C708.046 29.1908 707.784 30.5491 707.665 31.3607C707.543 32.1345 707.411 33.2333 707.27 34.6573L706.589 42.4995L706.25 45.7911C706.242 46.1351 706.193 46.6545 706.102 47.3492C706.165 48.0684 706.32 48.5315 706.568 48.7386L707.139 49.3748C707.262 49.4784 707.341 49.7194 707.374 50.0979C707.408 50.4764 707.211 50.8372 706.783 51.1801C706.397 51.5575 705.977 51.7663 705.522 51.8064Z" fill="#C2AC8D"></path> <path d="M752.511 47.5432C751.906 47.5967 751.53 47.2293 751.384 46.4411C751.468 43.0767 751.995 39.5396 752.965 35.83C753.869 32.2406 754.6 28.2086 755.158 23.7342L753.236 26.5933L751.309 29.3956C749.199 32.7101 747.195 35.2903 745.298 37.1363C744.977 37.3935 744.609 37.5405 744.192 37.5773C743.776 37.614 743.4 37.4565 743.064 37.1047C742.727 36.7529 742.39 36.1723 742.051 35.363C741.747 34.5124 741.425 33.4537 741.084 32.1867L739.812 27.4925L739.417 26.2684C737.004 33.5007 735.376 38.6037 734.532 41.5774C734.448 41.9281 734.346 42.2805 734.225 42.6345C734.138 42.9474 734.053 43.2791 733.969 43.6298L733.453 45.5637C733.398 45.7975 733.376 45.9901 733.39 46.1415C733.341 46.451 733.285 46.6848 733.223 46.8429C733.384 46.9431 733.48 47.1636 733.51 47.5042C733.537 47.807 733.374 48.1266 733.023 48.4628C732.709 48.7957 732.343 48.9806 731.927 49.0173C731.284 49.0741 730.93 48.7429 730.867 48.0237C730.596 44.9577 733.221 35.7993 738.741 20.5487C739.135 19.8273 739.559 19.4465 740.013 19.4064C740.884 19.3295 741.359 19.7453 741.439 20.6538C741.473 21.0323 741.406 21.5723 741.239 22.2737C741.299 22.9551 741.507 23.795 741.862 24.7937C742.084 25.5752 742.462 27.0487 742.996 29.2141C743.329 30.825 743.843 32.5345 744.536 34.3425L746.949 31.2111C750.571 26.4281 752.738 23.3185 753.45 21.8822C754.802 19.0543 755.952 17.5986 756.898 17.515C757.542 17.4582 757.987 17.7432 758.233 18.37C758.177 22.4949 757.514 27.3028 756.244 32.7938C754.947 38.4016 754.185 42.7414 753.961 45.8131C753.887 46.2773 753.693 46.6759 753.38 47.0088C753.103 47.3384 752.814 47.5165 752.511 47.5432Z" fill="#C2AC8D"></path> <path d="M789.083 44.5432C787.947 44.6434 787.119 44.3351 786.598 43.6181C786.115 42.8978 785.793 41.6292 785.632 39.8123C785.358 36.7084 785.766 32.6859 786.856 27.7449C784.707 29.7657 782.138 30.9082 779.147 31.1722C778.125 31.2624 777.327 31.2947 776.753 31.2692L777.038 32.5601C777.202 34.4148 776.877 36.3509 776.063 38.3683C775.284 40.3445 774.156 42.0463 772.68 43.4736C771.239 44.8598 769.685 45.6264 768.019 45.7735C765.218 46.0208 763.661 44.3653 763.346 40.8072C762.955 36.3784 763.422 31.7214 764.745 26.836C765.343 24.5325 765.743 22.7996 765.946 21.6373C766.148 20.475 766.251 19.2643 766.254 18.0051C766.334 17.6165 766.514 17.2764 766.794 16.9847C767.111 16.6896 767.44 16.5271 767.781 16.497C768.235 16.4569 768.585 16.7502 768.831 17.377C768.82 18.9802 768.656 20.5778 768.339 22.1699C768.059 23.7586 767.629 25.7994 767.048 28.2921C765.983 33.0784 765.574 36.872 765.821 39.6731C765.958 41.2251 766.377 42.2944 767.077 42.8811C767.328 43.126 767.813 43.2167 768.532 43.1532C769.213 43.0931 769.963 42.7217 770.78 42.0392C771.597 41.3567 772.285 40.5139 772.845 39.5108C774.107 37.3776 774.632 35.1186 774.421 32.7339C774.371 32.1661 774.268 31.6412 774.111 31.1591C771.452 30.8598 770.069 30.1045 769.962 28.8932C769.902 28.2118 770.172 27.5967 770.772 27.0478C771.41 26.4955 772.051 26.191 772.694 26.1342C773.83 26.0339 774.88 26.914 775.846 28.7743C776.465 28.8722 777.247 28.8794 778.194 28.7958C780.427 28.5987 782.404 27.871 784.124 26.6129C785.844 25.3547 787.222 23.688 788.26 21.6127C788.455 20.7944 788.585 20.1153 788.652 19.5753C789.176 16.439 790.082 14.8141 791.369 14.7005C792.05 14.6403 792.433 15.0834 792.516 16.0297C792.042 18.4367 791.357 20.6144 790.461 22.5628C788.66 29.8173 787.922 35.2804 788.246 38.9521C788.426 40.9962 788.782 41.9948 789.311 41.948C789.804 41.9046 790.227 41.7336 790.582 41.4353C790.972 41.0957 791.408 40.6375 791.891 40.0608C792.337 39.4874 792.718 39.0532 793.035 38.7581C793.349 38.4252 793.639 38.2471 793.904 38.2237C794.623 38.1602 795.011 38.4502 795.068 39.0937C795.098 39.4344 794.98 39.8263 794.714 40.2694L793.358 41.7624C792.633 42.6275 791.985 43.2761 791.412 43.7081C790.881 44.1746 790.105 44.4529 789.083 44.5432Z" fill="#C2AC8D"></path> <path d="M804.758 43.1592C802.941 43.3196 801.444 42.7842 800.267 41.5529C799.125 40.2805 798.47 38.6979 798.303 36.8053C798.009 33.4742 798.31 29.9762 799.208 26.3111C800.143 22.6426 801.508 19.5275 803.303 16.9656C805.099 14.4038 807.114 13.0242 809.347 12.8271C810.975 12.6833 812.086 13.1765 812.682 14.3065C812.812 14.4857 812.925 14.6855 813.021 14.906C813.113 15.0886 813.206 15.2711 813.298 15.4537C813.534 15.9669 813.75 16.2531 813.946 16.3121C814.131 16.6772 814.232 16.9544 814.249 17.1437C814.279 17.4844 814.137 17.8212 813.823 18.1541C813.547 18.4836 813.219 18.6651 812.841 18.6985C812.046 18.7687 811.483 18.2271 811.152 17.0737C810.822 15.9203 810.145 15.3888 809.123 15.479C807.761 15.5993 806.416 16.7862 805.089 19.0396C803.759 21.2552 802.687 24.0202 801.873 27.3346C801.08 30.4564 800.789 33.2097 801 35.5944C801.297 38.9633 802.676 40.5391 805.137 40.3219C806.386 40.2116 807.489 39.5229 808.445 38.2559C808.545 38.0945 808.732 37.8301 809.004 37.4627C809.274 37.0574 809.534 36.7674 809.786 36.5926C810.034 36.3799 810.272 36.2635 810.499 36.2435C811.218 36.18 811.606 36.47 811.663 37.1135C811.73 37.8705 811.442 38.7161 810.8 39.6502C810.154 40.5465 809.288 41.3287 808.203 41.9967C807.117 42.6648 805.969 43.0523 804.758 43.1592Z" fill="#C2AC8D"></path> <path d="M820.365 41.7813C819.002 41.9016 817.895 41.6751 817.043 41.1018C816.188 40.4906 815.446 39.4308 814.817 37.9222C814.731 37.8154 814.671 37.5727 814.638 37.1941C814.608 36.8535 814.731 36.5184 815.007 36.1888C815.28 35.8214 815.605 35.621 815.984 35.5875C816.325 35.5575 816.665 35.7372 817.004 36.1269C817.208 38.4359 818.408 39.4935 820.603 39.2997C822.231 39.156 823.787 38.1984 825.271 36.427C826.751 34.6178 828.054 32.3093 829.18 29.5014C830.184 27.0476 830.884 24.8304 831.282 22.8497L831.606 21.3334C831.898 19.8961 832.21 18.4571 832.541 17.0164C832.906 15.5346 833.289 14.2609 833.691 13.1954C834.218 11.8138 834.803 11.0945 835.446 11.0377C836.127 10.9776 836.5 11.3071 836.563 12.0263C836.62 12.6698 836.379 14.0453 835.841 16.1529C835.256 18.6078 834.844 21.5052 834.605 24.8452C834.363 28.1473 834.385 31.426 834.673 34.6814C834.836 36.5362 835.307 37.5437 836.084 37.704L836.77 37.7006C837.338 37.6505 837.818 37.4745 838.211 37.1728C838.322 37.1249 838.57 36.9123 838.956 36.5348C839.025 36.4524 839.306 36.1796 839.799 35.7165C840.289 35.2155 840.723 34.9482 841.102 34.9148C841.783 34.8547 842.156 35.1842 842.219 35.9034C842.259 36.3576 841.965 36.9176 841.338 37.5834C840.71 38.2492 839.941 38.8321 839.031 39.332C838.122 39.832 837.27 40.117 836.475 40.1872C834.052 40.4011 832.609 37.8773 832.144 32.6157C832.054 31.5937 832.025 30.1848 832.057 28.389C831.005 32.0296 829.371 35.1303 827.156 37.6911C824.975 40.2107 822.711 41.5741 820.365 41.7813Z" fill="#C2AC8D"></path> <path d="M864.105 37.805C863.688 37.8417 863.204 37.5411 862.652 36.9032C862.134 36.2241 861.852 35.6196 861.805 35.0897L861.72 34.1244C861.616 32.951 862.117 29.3399 863.224 23.2912L863.686 20.1032L862.439 23.4749C862.057 24.7675 861.418 26.5978 860.52 28.9659C858.247 35.194 855.521 38.4484 852.341 38.7291C850.449 38.8962 849.07 37.9689 848.205 35.9471C847.955 35.2825 847.785 34.4392 847.695 33.4171C847.508 31.2974 847.666 28.5558 848.171 25.1925C848.458 23.2597 848.713 21.8257 848.935 20.8905L849.259 19.3742C849.548 17.899 849.831 16.3481 850.107 14.7216C850.418 13.0538 850.555 11.8019 850.519 10.9657C850.6 10.5772 850.779 10.2371 851.059 9.94536C851.376 9.65031 851.724 9.48608 852.103 9.45266C852.481 9.41924 852.827 9.88459 853.141 10.8487C853.228 11.8329 853.146 13.0609 852.894 14.5327C852.64 15.9667 852.371 17.2492 852.09 18.3804C851.846 19.5082 851.7 20.2268 851.651 20.5364C850.53 25.5564 850.128 29.8644 850.446 33.4604C850.546 34.596 851.051 35.3525 851.962 35.7298C852.278 35.8545 852.701 35.8935 853.231 35.8467C854.291 35.7531 855.466 34.5813 856.755 32.3312C857.944 30.2425 859.108 27.6601 860.248 24.5839C861.388 21.5077 862.286 18.7199 862.943 16.2205C863.621 13.5284 864.209 11.55 864.708 10.2853C865.206 9.02051 865.815 8.35638 866.534 8.29288C867.178 8.23607 867.528 8.52941 867.585 9.17291C867.628 9.66499 867.444 11.0355 867.032 13.2844C866.628 15.1894 866.367 16.5476 866.248 17.3592C866.125 18.133 865.993 19.2319 865.852 20.6558L865.171 28.4981L864.832 31.7896C864.825 32.1336 864.775 32.653 864.684 33.3477C864.747 34.0669 864.903 34.5301 865.15 34.7371L865.721 35.3734C865.845 35.4769 865.923 35.7179 865.957 36.0965C865.99 36.475 865.793 36.8357 865.365 37.1786C864.979 37.5561 864.559 37.7648 864.105 37.805Z" fill="#C2AC8D"></path> <path d="M873.105 37.3536C872.499 37.4071 872.038 37.3715 871.722 37.2468L871.495 37.2669C870.397 37.3638 869.792 36.7688 869.678 35.4818C869.621 34.8383 869.853 34.2265 870.374 33.6464C870.857 33.0697 871.421 32.7529 872.064 32.6961C872.708 32.6393 873.333 32.8129 873.941 33.217C874.642 33.8037 875.019 34.3999 875.072 35.0055C875.122 35.5733 874.938 36.0855 874.521 36.5419C874.145 37.0329 873.673 37.3035 873.105 37.3536Z" fill="#C2AC8D"></path> <path d="M41.2919 188.515C39.1722 188.702 34.4856 188.982 27.2324 189.356C21.4175 189.602 16.7121 189.884 13.1161 190.201L11.3559 190.357C10.551 190.313 10.1251 190.027 10.0783 189.497C10.0148 188.778 10.238 188.281 10.7479 188.007C11.2956 187.73 12.1941 187.536 13.4432 187.426L15.7144 187.225C18.0991 187.015 21.8977 186.832 27.1103 186.677C33.4206 186.425 38.0142 186.172 40.891 185.918L45.4283 185.46C48.1158 185.223 49.6021 185.206 49.8871 185.41C50.5685 185.35 50.9376 185.641 50.9944 186.285C51.0846 187.307 50.3727 187.885 48.8586 188.018L41.2919 188.515Z" fill="#C2AC8D"></path> <path d="M68.1303 204.399C67.5625 204.449 67.1867 204.082 67.003 203.297C67.793 194.529 69.0154 184.179 70.6702 172.245C72.3139 160.617 73.4007 152.835 73.9304 148.897C74.0484 148.505 74.2471 148.163 74.5265 147.871C74.8438 147.576 75.1539 147.415 75.4567 147.389C76.0623 147.335 76.3952 147.649 76.4554 148.33L76.4855 148.671C75.9736 153.676 75.3743 158.554 74.6877 163.307C74.2147 166.591 73.5431 171.514 72.6728 178.076L83.4184 163.681C87.6888 158.039 91.8578 152.33 95.9256 146.554C96.2774 146.218 96.6425 146.033 97.0211 146C97.6646 145.943 98.0147 146.236 98.0715 146.88C98.1083 147.296 97.9903 147.688 97.7176 148.055C95.4488 151.307 91.5887 156.627 86.1371 164.013C80.5476 171.564 77.0915 176.275 75.769 178.146C76.4105 181.523 77.4121 184.658 78.7738 187.551C80.1356 190.445 81.7049 192.881 83.4819 194.861C85.2555 196.802 87.0531 198.15 88.8745 198.905C90.225 199.511 91.5816 199.753 92.9443 199.633C94.3827 199.506 95.4481 199.259 96.1406 198.893C96.8331 198.527 97.4748 197.802 98.066 196.72C98.4178 196.384 98.7451 196.203 99.0479 196.176C99.8049 196.109 100.214 196.416 100.274 197.098C100.31 197.514 100.092 198.067 99.6192 198.758C99.1427 199.41 98.5304 200.036 97.7823 200.636C97.0687 201.195 96.4124 201.539 95.8134 201.669C94.7703 201.951 93.662 202.145 92.4885 202.248C91.2394 202.359 89.826 202.121 88.2484 201.535C86.7053 200.909 85.2919 200.023 84.0082 198.877C81.7013 196.944 79.6576 194.321 77.8772 191.007C76.0968 187.692 74.6989 184.173 73.6833 180.448L72.653 181.74C72.2667 182.118 71.9784 182.525 71.788 182.961C70.595 191.917 69.859 198.486 69.5797 202.669C69.5441 203.13 69.3694 203.527 69.0554 203.859C68.7793 204.189 68.471 204.369 68.1303 204.399Z" fill="#C2AC8D"></path> <path d="M109.879 200.713C107.911 200.887 106.366 200.241 105.245 198.776C104.161 197.307 103.524 195.494 103.334 193.337C103.03 189.892 103.303 186.511 104.155 183.193C105.041 179.834 106.393 177.007 108.212 174.71C109.952 172.382 112.034 171.111 114.456 170.897C117.939 170.589 119.914 173.085 120.382 178.385C120.616 181.034 120.419 183.779 119.793 186.619C119.166 189.459 118.248 192.02 117.038 194.301C115.866 196.579 114.583 198.257 113.19 199.333C112.118 200.153 111.014 200.613 109.879 200.713ZM110.108 198.118C111.281 198.014 112.497 196.877 113.755 194.706C115.05 192.531 116.057 189.887 116.773 186.771C117.528 183.653 117.812 181.034 117.625 178.914C117.431 176.719 117.178 175.368 116.866 174.861C116.589 174.313 116.27 173.941 115.909 173.744C115.549 173.547 115.009 173.48 114.289 173.544C113.495 173.614 112.689 173.99 111.871 174.673C110.227 175.924 108.88 177.95 107.83 180.752C106.178 184.941 105.52 188.929 105.854 192.714C106.081 195.288 106.976 197.002 108.539 197.856C109.093 198.074 109.615 198.161 110.108 198.118Z" fill="#C2AC8D"></path> <path d="M144.062 197.809C143.002 197.903 142.163 197.691 141.545 197.173C140.965 196.652 140.635 195.937 140.555 195.029C140.471 194.083 140.574 192.433 140.862 190.081L141.561 183.095C138.982 185.421 136.519 186.688 134.172 186.895C132.468 187.045 131.122 186.706 130.134 185.878C130.091 186.263 130.049 186.648 130.007 187.034C130.002 187.415 129.979 187.799 129.937 188.184C129.896 189.447 129.818 190.731 129.705 192.039C129.421 196.603 128.598 198.946 127.235 199.066C126.668 199.116 126.292 198.749 126.108 197.964C126.188 194.981 126.616 190.328 127.393 184.003C128.204 177.637 128.797 173.331 129.171 171.085C129.251 170.697 129.431 170.357 129.71 170.065C130.028 169.77 130.357 169.607 130.697 169.577C131.151 169.537 131.502 169.83 131.748 170.457C131.801 171.063 131.634 173.061 131.247 176.452C130.941 179.035 130.717 181.249 130.574 183.092C131.491 183.965 132.838 184.323 134.617 184.166C136.359 184.012 138.193 182.973 140.122 181.048C140.715 180.423 141.267 179.764 141.778 179.07L142.294 175.191C142.693 172.371 143.225 170.398 143.888 169.271C144.213 168.632 144.698 168.284 145.341 168.227C145.985 168.17 146.338 168.501 146.402 169.221L146.427 169.505C144.977 176.843 144.128 182.144 143.883 185.408C143.635 188.215 143.505 190.42 143.494 192.023C143.491 193.282 143.475 193.97 143.447 194.087L143.456 194.83C143.476 195.057 143.58 195.162 143.77 195.146C143.921 195.132 144.048 195.064 144.152 194.94C144.331 194.81 144.629 194.726 145.045 194.69C145.689 194.633 146.041 194.945 146.101 195.626C146.218 196.951 145.538 197.679 144.062 197.809Z" fill="#C2AC8D"></path> <path d="M162.125 219.275C161.405 219.338 161.009 218.954 160.936 218.121L160.91 217.837C160.867 217.345 161.278 214.219 162.142 208.458C162.951 202.932 163.56 197.938 163.967 193.477C162.425 195.024 160.916 195.863 159.44 195.994C157.131 196.198 155.349 195.458 154.094 193.776C152.877 192.091 152.145 189.847 151.897 187.046C151.633 184.056 151.749 181.261 152.244 178.661C152.736 176.024 153.49 173.764 154.507 171.881C155.561 169.995 156.791 168.589 158.197 167.664C159.279 166.958 160.483 166.547 161.808 166.43C163.776 166.256 165.261 167.308 166.263 169.584L168.974 147.143C169.117 146.596 169.274 146.22 169.447 146.014C169.619 145.808 169.933 145.685 170.387 145.645C171.144 145.578 171.568 146.056 171.658 147.078L171.252 150.261L170.693 154.945L170.207 159.165C170.064 160.131 169.883 161.54 169.665 163.39L169.247 167.089L169.074 168.363L168.925 169.921C168.778 170.85 168.722 171.294 168.757 171.252C170.638 167.5 172.885 165.509 175.496 165.279C176.556 165.185 177.563 165.573 178.518 166.442C179.51 167.308 180.331 168.399 180.981 169.715C181.631 171.031 182.006 172.257 182.107 173.393C182.408 176.799 182.244 180.133 181.616 183.392C180.985 186.614 179.924 189.283 178.432 191.399C176.678 193.995 174.362 195.42 171.485 195.674C169.29 195.868 167.632 195.022 166.512 193.138C165.003 204.563 164.011 212.776 163.537 217.777C163.495 218.162 163.334 218.5 163.055 218.792C162.775 219.084 162.465 219.245 162.125 219.275ZM159.426 193.248C160.297 193.171 161.196 192.768 162.123 192.037C163.047 191.269 163.781 190.289 164.324 189.096L164.851 182.755L165.44 176.466C164.928 173.689 164.434 171.768 163.959 170.703C163.521 169.636 162.81 169.145 161.826 169.232C160.199 169.376 158.782 170.397 157.576 172.297C156.405 174.155 155.555 176.404 155.025 179.045C154.495 181.686 154.329 184.123 154.526 186.357C154.813 189.612 155.766 191.759 157.384 192.799C157.837 193.179 158.518 193.328 159.426 193.248ZM172.003 193.111C173.555 192.974 175.159 191.707 176.817 189.309C178.437 186.916 179.368 183.209 179.612 178.191C179.704 177.076 179.687 175.8 179.56 174.361C179.483 173.491 179.248 172.558 178.855 171.562C178.459 170.529 177.945 169.678 177.314 169.009C176.682 168.34 176.007 168.037 175.288 168.101C173.092 168.295 171.125 170.853 169.385 175.775C168.924 177.036 168.455 178.642 167.979 180.591L167.582 184.517L167.597 184.687C167.674 185.558 167.601 186.461 167.378 187.396C168.228 191.403 169.769 193.308 172.003 193.111Z" fill="#C2AC8D"></path> <path d="M192.084 216.801C190.834 216.912 189.708 216.687 188.705 216.127C187.74 215.564 186.968 214.812 186.389 213.871C185.813 212.968 185.483 212.043 185.4 211.097C185.203 208.864 185.604 206.711 186.604 204.639C187.607 202.605 189.124 200.564 191.156 198.515C191.922 197.684 193.701 196.021 196.494 193.523L199.091 191.177L199.26 189.846L199.502 188.051C199.611 187.125 199.69 186.508 199.739 186.198L199.944 184.635C199.446 186.777 198.475 188.732 197.029 190.501C195.62 192.265 194.197 193.211 192.759 193.338C191.244 193.472 189.983 193.011 188.974 191.956C187.962 190.862 187.368 189.313 187.19 187.306C186.91 184.127 187.375 179.031 188.587 172.019C189.195 168.532 189.487 166.656 189.464 166.391L189.29 165.72C189.229 165.458 189.447 165.115 189.943 164.69C190.44 164.264 190.858 164.037 191.199 164.007C191.956 163.94 192.368 164.285 192.435 165.042C192.502 165.799 192.082 169.04 191.176 174.766C190.27 180.492 189.906 184.358 190.083 186.364C190.257 188.333 190.611 189.541 191.147 189.99C191.645 190.442 192.234 190.638 192.915 190.578C194.354 190.451 195.78 189.104 197.194 186.538C198.314 184.531 199.225 181.895 199.929 178.628C200.667 175.321 201.314 171.849 201.87 168.214L202.054 167.054C202.32 165.314 202.586 164.222 202.852 163.779C203.115 163.298 203.511 163.034 204.041 162.987C204.457 162.95 204.751 163.039 204.923 163.253C205.129 163.425 205.204 163.628 205.148 163.862C204.828 166.713 204.263 170.902 203.454 176.429C202.715 181.453 202.231 185.482 202.003 188.516C201.896 188.602 202.505 187.938 203.83 186.524C204.52 185.7 205.041 185.12 205.393 184.784C205.745 184.447 206.091 184.264 206.432 184.234C207.075 184.177 207.426 184.471 207.482 185.114C207.522 185.568 207.404 185.96 207.128 186.29C205.735 187.786 203.91 189.588 201.654 191.694C200.637 201.779 199.504 208.383 198.254 211.507C197.568 213.246 196.455 214.68 194.914 215.808C194.125 216.373 193.181 216.704 192.084 216.801ZM191.843 214.076C193.168 213.959 194.285 213.002 195.194 211.205C195.813 210.006 196.429 208.121 197.041 205.549L197.534 202.701L197.906 200.437L198.7 194.53L197.81 195.467C196.586 196.72 195.375 197.914 194.178 199.049C189.926 203.163 187.948 206.905 188.246 210.274C188.383 211.826 188.999 212.973 190.094 213.715C190.503 214.023 191.086 214.143 191.843 214.076Z" fill="#C2AC8D"></path> <path d="M224.628 202.426C221.903 202.667 219.621 201.018 217.782 197.48C217.738 197.408 217.699 197.182 217.665 196.804C217.635 196.463 217.738 196.111 217.973 195.747C218.245 195.379 218.571 195.179 218.95 195.146C219.328 195.112 219.668 195.292 219.97 195.685C221.407 198.572 223.016 199.937 224.795 199.779C227.974 199.499 230.122 196.391 231.239 190.456C231.595 188.44 231.731 186.521 231.646 184.697L229.974 186.504C229.008 187.658 228.176 188.609 227.48 189.357C226.779 190.067 226.221 190.441 225.805 190.478C225.048 190.544 224.637 190.218 224.574 189.499C224.557 189.31 224.59 189.04 224.674 188.689C224.785 188.222 225.082 186.612 225.564 183.861C225.732 182.74 225.917 181.598 226.12 180.436L226.676 177.011L226.881 175.448C226.992 174.98 227.067 174.535 227.106 174.112L227.442 172.079C225.859 177.483 224.005 181.977 221.88 185.56C219.761 189.218 217.832 191.124 216.09 191.278C214.803 191.392 213.724 191.048 212.852 190.248C211.98 189.447 211.474 188.252 211.334 186.662C211.257 185.792 211.303 184.796 211.471 183.675L211.997 179.909C212.435 175.369 212.869 171.859 213.299 169.38C213.519 167.987 213.656 166.945 213.709 166.253C213.76 165.105 213.868 164.16 214.031 163.421C214.192 162.644 214.575 162.229 215.18 162.175C216.013 162.102 216.469 162.519 216.55 163.428C216.637 164.412 216.576 165.886 216.368 167.85C216.222 169.656 215.794 173.012 215.083 177.92C214.42 182.518 214.129 185.271 214.21 186.18C214.347 187.732 215.078 188.449 216.402 188.332C219.506 188.058 223.189 180.294 227.45 165.04C228.015 163.236 228.428 162.074 228.687 161.555C229.06 161.026 229.455 160.743 229.871 160.707C230.779 160.626 231.269 160.984 231.339 161.779C231.392 162.384 231.312 162.983 231.097 163.574C230.278 166.393 229.598 171.012 229.059 177.43C228.783 180.353 228.477 182.936 228.141 185.179C229.768 183.738 230.91 182.626 231.566 181.843L232.699 180.427C232.803 180.304 232.968 180.232 233.195 180.212C233.725 180.165 234.075 180.458 234.246 181.092C234.485 184.237 234.288 187.402 233.654 190.586C233.06 193.804 232.004 196.53 230.484 198.762C228.965 200.994 227.013 202.216 224.628 202.426Z" fill="#C2AC8D"></path> <path d="M255.463 187.916C255.047 187.953 254.562 187.652 254.01 187.015C253.492 186.335 253.21 185.731 253.163 185.201L253.078 184.236C252.974 183.062 253.476 179.451 254.582 173.402L255.044 170.214L253.797 173.586C253.415 174.879 252.776 176.709 251.879 179.077C249.606 185.305 246.879 188.56 243.7 188.84C241.807 189.007 240.428 188.08 239.563 186.058C239.314 185.394 239.144 184.55 239.053 183.528C238.866 181.409 239.025 178.667 239.529 175.304C239.816 173.371 240.071 171.937 240.294 171.002L240.617 169.485C240.907 168.01 241.19 166.459 241.466 164.833C241.776 163.165 241.913 161.913 241.878 161.077C241.958 160.688 242.138 160.348 242.417 160.057C242.734 159.762 243.082 159.597 243.461 159.564C243.839 159.531 244.186 159.996 244.5 160.96C244.587 161.944 244.504 163.172 244.253 164.644C243.998 166.078 243.73 167.361 243.448 168.492C243.204 169.619 243.058 170.338 243.009 170.648C241.888 175.668 241.486 179.976 241.804 183.572C241.904 184.707 242.41 185.464 243.32 185.841C243.637 185.966 244.06 186.005 244.59 185.958C245.649 185.864 246.824 184.693 248.113 182.442C249.302 180.354 250.466 177.771 251.606 174.695C252.746 171.619 253.644 168.831 254.301 166.332C254.979 163.64 255.567 161.661 256.066 160.397C256.565 159.132 257.174 158.468 257.893 158.404C258.536 158.347 258.886 158.641 258.943 159.284C258.987 159.776 258.803 161.147 258.391 163.396C257.987 165.301 257.725 166.659 257.606 167.471C257.484 168.244 257.352 169.343 257.21 170.767L256.53 178.609L256.191 181.901C256.183 182.245 256.133 182.764 256.042 183.459C256.106 184.178 256.261 184.641 256.508 184.848L257.079 185.485C257.203 185.588 257.281 185.829 257.315 186.208C257.348 186.586 257.151 186.947 256.724 187.29C256.337 187.667 255.917 187.876 255.463 187.916Z" fill="#C2AC8D"></path> <path d="M276.692 152.281C274.497 152.475 272.709 151.889 271.33 150.523C269.988 149.154 269.21 147.258 268.997 144.835C268.953 144.343 269.068 143.913 269.34 143.546C269.651 143.175 270.015 142.971 270.431 142.934C270.847 142.898 271.148 143.062 271.333 143.427C271.579 144.054 271.858 145.059 272.171 146.443C272.764 148.832 274.044 149.94 276.012 149.766C278.246 149.569 280.123 148.793 281.643 147.438C283.199 146.042 284.74 144.055 286.267 141.479C286.657 141.139 287.022 140.955 287.363 140.925C288.044 140.864 288.413 141.156 288.47 141.8C288.49 142.027 288.438 142.298 288.313 142.615C284.578 148.705 280.705 151.927 276.692 152.281ZM281.524 185.615C281.107 185.652 280.623 185.351 280.071 184.714C279.553 184.034 279.271 183.43 279.224 182.9L279.139 181.935C279.035 180.761 279.536 177.15 280.643 171.102L281.105 167.913L279.858 171.285C279.476 172.578 278.837 174.408 277.939 176.776C275.666 183.004 272.94 186.259 269.76 186.539C267.868 186.707 266.489 185.779 265.624 183.757C265.374 183.093 265.204 182.25 265.114 181.227C264.927 179.108 265.086 176.366 265.59 173.003C265.877 171.07 266.132 169.636 266.354 168.701L266.678 167.185C266.968 165.709 267.25 164.158 267.526 162.532C267.837 160.864 267.974 159.612 267.939 158.776C268.019 158.388 268.198 158.047 268.478 157.756C268.795 157.461 269.143 157.296 269.522 157.263C269.9 157.23 270.246 157.695 270.56 158.659C270.647 159.643 270.565 160.871 270.313 162.343C270.059 163.777 269.79 165.06 269.509 166.191C269.265 167.319 269.119 168.037 269.07 168.347C267.949 173.367 267.547 177.675 267.865 181.271C267.965 182.406 268.47 183.163 269.381 183.54C269.697 183.665 270.12 183.704 270.65 183.657C271.71 183.563 272.885 182.392 274.174 180.141C275.363 178.053 276.527 175.47 277.667 172.394C278.807 169.318 279.705 166.53 280.362 164.031C281.04 161.339 281.628 159.36 282.127 158.096C282.625 156.831 283.234 156.167 283.954 156.103C284.597 156.046 284.947 156.34 285.004 156.983C285.047 157.475 284.863 158.846 284.451 161.095C284.047 163 283.786 164.358 283.667 165.17C283.544 165.943 283.412 167.042 283.271 168.466L282.59 176.308L282.251 179.6C282.244 179.944 282.194 180.463 282.103 181.158C282.166 181.877 282.322 182.34 282.569 182.547L283.14 183.184C283.264 183.287 283.342 183.528 283.376 183.907C283.409 184.285 283.212 184.646 282.784 184.989C282.398 185.366 281.978 185.575 281.524 185.615Z" fill="#C2AC8D"></path> </svg> 