<?xml version="1.0" encoding="UTF-8"?> <svg xmlns="http://www.w3.org/2000/svg" width="224" height="194" viewBox="0 0 224 194" fill="none"> <mask id="mask0" maskUnits="userSpaceOnUse" x="0" y="0" width="224" height="194"> <rect width="223.034" height="193.73" rx="2" fill="#F38B8B"></rect> </mask> <g mask="url(#mask0)"> <rect width="8.24736" height="352.212" transform="matrix(0.893892 0.448282 -0.553555 0.832813 45.6025 -118.593)" fill="#F9F5F0"></rect> <rect width="8.24736" height="352.212" transform="matrix(0.893892 0.448282 -0.553555 0.832813 70.5352 -106.091)" fill="#F9F5F0"></rect> <rect width="8.24736" height="352.212" transform="matrix(0.893892 0.448282 -0.553555 0.832813 95.4668 -93.5881)" fill="#F9F5F0"></rect> <rect width="8.24736" height="352.212" transform="matrix(0.893892 0.448282 -0.553555 0.832813 120.398 -81.0853)" fill="#F9F5F0"></rect> <rect width="8.24736" height="352.212" transform="matrix(0.893892 0.448282 -0.553555 0.832813 145.33 -68.5824)" fill="#F9F5F0"></rect> <rect width="8.24736" height="352.212" transform="matrix(0.893892 0.448282 -0.553555 0.832813 170.262 -56.0787)" fill="#F9F5F0"></rect> <rect width="8.24736" height="352.212" transform="matrix(0.893892 0.448282 -0.553555 0.832813 195.193 -43.5758)" fill="#F9F5F0"></rect> <rect width="8.24736" height="352.212" transform="matrix(0.893892 0.448282 -0.553555 0.832813 220.125 -31.0721)" fill="#F9F5F0"></rect> <rect width="8.24736" height="352.212" transform="matrix(0.893892 0.448282 -0.553555 0.832813 245.057 -18.5692)" fill="#F9F5F0"></rect> <rect width="8.24736" height="352.212" transform="matrix(0.893892 0.448282 -0.553555 0.832813 269.778 -6.17236)" fill="#F9F5F0"></rect> <rect width="8.24736" height="352.212" transform="matrix(0.893892 0.448282 -0.553555 0.832813 294.499 6.22534)" fill="#F9F5F0"></rect> <rect width="8.24736" height="352.212" transform="matrix(0.893892 0.448282 -0.553555 0.832813 319.221 18.6222)" fill="#F9F5F0"></rect> <rect width="8.24736" height="352.212" transform="matrix(0.893892 0.448282 -0.553555 0.832813 343.942 31.0208)" fill="#F9F5F0"></rect> </g> </svg> 