<?xml version="1.0" encoding="UTF-8"?> <svg xmlns="http://www.w3.org/2000/svg" width="287" height="238" viewBox="0 0 287 238" fill="none"> <mask id="mask0" maskUnits="userSpaceOnUse" x="0" y="0" width="287" height="238"> <rect width="287" height="238" rx="2" fill="#F38B8B"></rect> </mask> <g mask="url(#mask0)"> <rect width="10.132" height="432.698" transform="matrix(0.893892 0.448282 -0.553555 0.832813 69.0249 -145.695)" fill="#EEE3D3"></rect> <rect width="10.132" height="432.698" transform="matrix(0.893892 0.448282 -0.553555 0.832813 99.6543 -130.335)" fill="#EEE3D3"></rect> <rect width="10.132" height="432.698" transform="matrix(0.893892 0.448282 -0.553555 0.832813 130.283 -114.975)" fill="#EEE3D3"></rect> <rect width="10.132" height="432.698" transform="matrix(0.893892 0.448282 -0.553555 0.832813 160.912 -99.6147)" fill="#EEE3D3"></rect> <rect width="10.132" height="432.698" transform="matrix(0.893892 0.448282 -0.553555 0.832813 191.541 -84.2544)" fill="#EEE3D3"></rect> <rect width="10.132" height="432.698" transform="matrix(0.893892 0.448282 -0.553555 0.832813 222.169 -68.8945)" fill="#EEE3D3"></rect> <rect width="10.132" height="432.698" transform="matrix(0.893892 0.448282 -0.553555 0.832813 252.798 -53.5342)" fill="#EEE3D3"></rect> <rect width="10.132" height="432.698" transform="matrix(0.893892 0.448282 -0.553555 0.832813 283.427 -38.1738)" fill="#EEE3D3"></rect> <rect width="10.132" height="432.698" transform="matrix(0.893892 0.448282 -0.553555 0.832813 314.056 -22.814)" fill="#EEE3D3"></rect> <rect width="10.132" height="432.698" transform="matrix(0.893892 0.448282 -0.553555 0.832813 344.427 -7.58301)" fill="#EEE3D3"></rect> <rect width="10.132" height="432.698" transform="matrix(0.893892 0.448282 -0.553555 0.832813 374.797 7.64746)" fill="#EEE3D3"></rect> <rect width="10.132" height="432.698" transform="matrix(0.893892 0.448282 -0.553555 0.832813 405.168 22.8784)" fill="#EEE3D3"></rect> <rect width="10.132" height="432.698" transform="matrix(0.893892 0.448282 -0.553555 0.832813 435.539 38.1089)" fill="#EEE3D3"></rect> </g> </svg> 