<?xml version="1.0" encoding="UTF-8"?> <svg xmlns="http://www.w3.org/2000/svg" width="384" height="318" viewBox="0 0 384 318" fill="none"> <mask id="mask0" maskUnits="userSpaceOnUse" x="0" y="0" width="384" height="318"> <rect width="383.471" height="318" rx="2" fill="#F38B8B"></rect> </mask> <g mask="url(#mask0)"> <rect width="13.5377" height="578.143" transform="matrix(0.893892 0.448282 -0.553555 0.832813 92.2261 -194.668)" fill="#ECECEC"></rect> <rect width="13.5377" height="578.143" transform="matrix(0.893892 0.448282 -0.553555 0.832813 133.151 -174.146)" fill="#ECECEC"></rect> <rect width="13.5377" height="578.143" transform="matrix(0.893892 0.448282 -0.553555 0.832813 174.075 -153.623)" fill="#ECECEC"></rect> <rect width="13.5377" height="578.143" transform="matrix(0.893892 0.448282 -0.553555 0.832813 215 -133.099)" fill="#ECECEC"></rect> <rect width="13.5377" height="578.143" transform="matrix(0.893892 0.448282 -0.553555 0.832813 255.924 -112.576)" fill="#ECECEC"></rect> <rect width="13.5377" height="578.143" transform="matrix(0.893892 0.448282 -0.553555 0.832813 296.848 -92.0527)" fill="#ECECEC"></rect> <rect width="13.5377" height="578.143" transform="matrix(0.893892 0.448282 -0.553555 0.832813 337.772 -71.5293)" fill="#ECECEC"></rect> <rect width="13.5377" height="578.143" transform="matrix(0.893892 0.448282 -0.553555 0.832813 378.697 -51.0054)" fill="#ECECEC"></rect> <rect width="13.5377" height="578.143" transform="matrix(0.893892 0.448282 -0.553555 0.832813 419.621 -30.4829)" fill="#ECECEC"></rect> <rect width="13.5377" height="578.143" transform="matrix(0.893892 0.448282 -0.553555 0.832813 460.2 -10.1323)" fill="#ECECEC"></rect> <rect width="13.5377" height="578.143" transform="matrix(0.893892 0.448282 -0.553555 0.832813 500.779 10.2178)" fill="#ECECEC"></rect> <rect width="13.5377" height="578.143" transform="matrix(0.893892 0.448282 -0.553555 0.832813 541.358 30.5684)" fill="#ECECEC"></rect> <rect width="13.5377" height="578.143" transform="matrix(0.893892 0.448282 -0.553555 0.832813 581.938 50.9185)" fill="#ECECEC"></rect> </g> </svg> 