<?xml version="1.0" encoding="UTF-8"?> <svg xmlns="http://www.w3.org/2000/svg" width="342" height="469" viewBox="0 0 342 469" fill="none"> <path d="M308 17C312.509 17 316.833 18.7911 320.021 21.9792C323.209 25.1673 325 29.4913 325 34C325 29.4913 326.791 25.1673 329.979 21.9792C333.167 18.7911 337.491 17 342 17C337.491 17 333.167 15.2089 329.979 12.0208C326.791 8.8327 325 4.50868 325 0C325 4.50868 323.209 8.8327 320.021 12.0208C316.833 15.2089 312.509 17 308 17Z" fill="#F9F5F0"></path> <path d="M308 57C312.509 57 316.833 58.7911 320.021 61.9792C323.209 65.1673 325 69.4913 325 74C325 69.4913 326.791 65.1673 329.979 61.9792C333.167 58.7911 337.491 57 342 57C337.491 57 333.167 55.2089 329.979 52.0208C326.791 48.8327 325 44.5087 325 40C325 44.5087 323.209 48.8327 320.021 52.0208C316.833 55.2089 312.509 57 308 57Z" fill="#F9F5F0"></path> <path d="M308 97C312.509 97 316.833 98.7911 320.021 101.979C323.209 105.167 325 109.491 325 114C325 109.491 326.791 105.167 329.979 101.979C333.167 98.7911 337.491 97 342 97C337.491 97 333.167 95.2089 329.979 92.0208C326.791 88.8327 325 84.5087 325 80C325 84.5087 323.209 88.8327 320.021 92.0208C316.833 95.2089 312.509 97 308 97Z" fill="#F9F5F0"></path> <path d="M308 137C312.509 137 316.833 138.791 320.021 141.979C323.209 145.167 325 149.491 325 154C325 149.491 326.791 145.167 329.979 141.979C333.167 138.791 337.491 137 342 137C337.491 137 333.167 135.209 329.979 132.021C326.791 128.833 325 124.509 325 120C325 124.509 323.209 128.833 320.021 132.021C316.833 135.209 312.509 137 308 137Z" fill="#F9F5F0"></path> <path d="M308 177C312.509 177 316.833 178.791 320.021 181.979C323.209 185.167 325 189.491 325 194C325 189.491 326.791 185.167 329.979 181.979C333.167 178.791 337.491 177 342 177C337.491 177 333.167 175.209 329.979 172.021C326.791 168.833 325 164.509 325 160C325 164.509 323.209 168.833 320.021 172.021C316.833 175.209 312.509 177 308 177Z" fill="#F9F5F0"></path> <path d="M308 217C312.509 217 316.833 218.791 320.021 221.979C323.209 225.167 325 229.491 325 234C325 229.491 326.791 225.167 329.979 221.979C333.167 218.791 337.491 217 342 217C337.491 217 333.167 215.209 329.979 212.021C326.791 208.833 325 204.509 325 200C325 204.509 323.209 208.833 320.021 212.021C316.833 215.209 312.509 217 308 217Z" fill="#F9F5F0"></path> <path d="M308 257C312.509 257 316.833 258.791 320.021 261.979C323.209 265.167 325 269.491 325 274C325 269.491 326.791 265.167 329.979 261.979C333.167 258.791 337.491 257 342 257C337.491 257 333.167 255.209 329.979 252.021C326.791 248.833 325 244.509 325 240C325 244.509 323.209 248.833 320.021 252.021C316.833 255.209 312.509 257 308 257Z" fill="#F9F5F0"></path> <path d="M308 297C312.509 297 316.833 298.791 320.021 301.979C323.209 305.167 325 309.491 325 314C325 309.491 326.791 305.167 329.979 301.979C333.167 298.791 337.491 297 342 297C337.491 297 333.167 295.209 329.979 292.021C326.791 288.833 325 284.509 325 280C325 284.509 323.209 288.833 320.021 292.021C316.833 295.209 312.509 297 308 297Z" fill="#F9F5F0"></path> <path d="M308 337C312.509 337 316.833 338.791 320.021 341.979C323.209 345.167 325 349.491 325 354C325 349.491 326.791 345.167 329.979 341.979C333.167 338.791 337.491 337 342 337C337.491 337 333.167 335.209 329.979 332.021C326.791 328.833 325 324.509 325 320C325 324.509 323.209 328.833 320.021 332.021C316.833 335.209 312.509 337 308 337Z" fill="#F9F5F0"></path> <path d="M308 377C312.509 377 316.833 378.791 320.021 381.979C323.209 385.167 325 389.491 325 394C325 389.491 326.791 385.167 329.979 381.979C333.167 378.791 337.491 377 342 377C337.491 377 333.167 375.209 329.979 372.021C326.791 368.833 325 364.509 325 360C325 364.509 323.209 368.833 320.021 372.021C316.833 375.209 312.509 377 308 377Z" fill="#F9F5F0"></path> <path d="M308 417C312.509 417 316.833 418.791 320.021 421.979C323.209 425.167 325 429.491 325 434C325 429.491 326.791 425.167 329.979 421.979C333.167 418.791 337.491 417 342 417C337.491 417 333.167 415.209 329.979 412.021C326.791 408.833 325 404.509 325 400C325 404.509 323.209 408.833 320.021 412.021C316.833 415.209 312.509 417 308 417Z" fill="#F9F5F0"></path> <path d="M264 22C268.509 22 272.833 23.7911 276.021 26.9792C279.209 30.1673 281 34.4913 281 39C281 34.4913 282.791 30.1673 285.979 26.9792C289.167 23.7911 293.491 22 298 22C293.491 22 289.167 20.2089 285.979 17.0208C282.791 13.8327 281 9.50868 281 5C281 9.50868 279.209 13.8327 276.021 17.0208C272.833 20.2089 268.509 22 264 22Z" fill="#F9F5F0"></path> <path d="M264 62C268.509 62 272.833 63.7911 276.021 66.9792C279.209 70.1673 281 74.4913 281 79C281 74.4913 282.791 70.1673 285.979 66.9792C289.167 63.7911 293.491 62 298 62C293.491 62 289.167 60.2089 285.979 57.0208C282.791 53.8327 281 49.5087 281 45C281 49.5087 279.209 53.8327 276.021 57.0208C272.833 60.2089 268.509 62 264 62Z" fill="#F9F5F0"></path> <path d="M264 102C268.509 102 272.833 103.791 276.021 106.979C279.209 110.167 281 114.491 281 119C281 114.491 282.791 110.167 285.979 106.979C289.167 103.791 293.491 102 298 102C293.491 102 289.167 100.209 285.979 97.0208C282.791 93.8327 281 89.5087 281 85C281 89.5087 279.209 93.8327 276.021 97.0208C272.833 100.209 268.509 102 264 102Z" fill="#F9F5F0"></path> <path d="M264 142C268.509 142 272.833 143.791 276.021 146.979C279.209 150.167 281 154.491 281 159C281 154.491 282.791 150.167 285.979 146.979C289.167 143.791 293.491 142 298 142C293.491 142 289.167 140.209 285.979 137.021C282.791 133.833 281 129.509 281 125C281 129.509 279.209 133.833 276.021 137.021C272.833 140.209 268.509 142 264 142Z" fill="#F9F5F0"></path> <path d="M264 182C268.509 182 272.833 183.791 276.021 186.979C279.209 190.167 281 194.491 281 199C281 194.491 282.791 190.167 285.979 186.979C289.167 183.791 293.491 182 298 182C293.491 182 289.167 180.209 285.979 177.021C282.791 173.833 281 169.509 281 165C281 169.509 279.209 173.833 276.021 177.021C272.833 180.209 268.509 182 264 182Z" fill="#F9F5F0"></path> <path d="M264 222C268.509 222 272.833 223.791 276.021 226.979C279.209 230.167 281 234.491 281 239C281 234.491 282.791 230.167 285.979 226.979C289.167 223.791 293.491 222 298 222C293.491 222 289.167 220.209 285.979 217.021C282.791 213.833 281 209.509 281 205C281 209.509 279.209 213.833 276.021 217.021C272.833 220.209 268.509 222 264 222Z" fill="#F9F5F0"></path> <path d="M264 262C268.509 262 272.833 263.791 276.021 266.979C279.209 270.167 281 274.491 281 279C281 274.491 282.791 270.167 285.979 266.979C289.167 263.791 293.491 262 298 262C293.491 262 289.167 260.209 285.979 257.021C282.791 253.833 281 249.509 281 245C281 249.509 279.209 253.833 276.021 257.021C272.833 260.209 268.509 262 264 262Z" fill="#F9F5F0"></path> <path d="M264 302C268.509 302 272.833 303.791 276.021 306.979C279.209 310.167 281 314.491 281 319C281 314.491 282.791 310.167 285.979 306.979C289.167 303.791 293.491 302 298 302C293.491 302 289.167 300.209 285.979 297.021C282.791 293.833 281 289.509 281 285C281 289.509 279.209 293.833 276.021 297.021C272.833 300.209 268.509 302 264 302Z" fill="#F9F5F0"></path> <path d="M264 342C268.509 342 272.833 343.791 276.021 346.979C279.209 350.167 281 354.491 281 359C281 354.491 282.791 350.167 285.979 346.979C289.167 343.791 293.491 342 298 342C293.491 342 289.167 340.209 285.979 337.021C282.791 333.833 281 329.509 281 325C281 329.509 279.209 333.833 276.021 337.021C272.833 340.209 268.509 342 264 342Z" fill="#F9F5F0"></path> <path d="M264 382C268.509 382 272.833 383.791 276.021 386.979C279.209 390.167 281 394.491 281 399C281 394.491 282.791 390.167 285.979 386.979C289.167 383.791 293.491 382 298 382C293.491 382 289.167 380.209 285.979 377.021C282.791 373.833 281 369.509 281 365C281 369.509 279.209 373.833 276.021 377.021C272.833 380.209 268.509 382 264 382Z" fill="#F9F5F0"></path> <path d="M264 422C268.509 422 272.833 423.791 276.021 426.979C279.209 430.167 281 434.491 281 439C281 434.491 282.791 430.167 285.979 426.979C289.167 423.791 293.491 422 298 422C293.491 422 289.167 420.209 285.979 417.021C282.791 413.833 281 409.509 281 405C281 409.509 279.209 413.833 276.021 417.021C272.833 420.209 268.509 422 264 422Z" fill="#F9F5F0"></path> <path d="M220 27C224.509 27 228.833 28.7911 232.021 31.9792C235.209 35.1673 237 39.4913 237 44C237 39.4913 238.791 35.1673 241.979 31.9792C245.167 28.7911 249.491 27 254 27C249.491 27 245.167 25.2089 241.979 22.0208C238.791 18.8327 237 14.5087 237 10C237 14.5087 235.209 18.8327 232.021 22.0208C228.833 25.2089 224.509 27 220 27Z" fill="#F9F5F0"></path> <path d="M220 67C224.509 67 228.833 68.7911 232.021 71.9792C235.209 75.1673 237 79.4913 237 84C237 79.4913 238.791 75.1673 241.979 71.9792C245.167 68.7911 249.491 67 254 67C249.491 67 245.167 65.2089 241.979 62.0208C238.791 58.8327 237 54.5087 237 50C237 54.5087 235.209 58.8327 232.021 62.0208C228.833 65.2089 224.509 67 220 67Z" fill="#F9F5F0"></path> <path d="M220 107C224.509 107 228.833 108.791 232.021 111.979C235.209 115.167 237 119.491 237 124C237 119.491 238.791 115.167 241.979 111.979C245.167 108.791 249.491 107 254 107C249.491 107 245.167 105.209 241.979 102.021C238.791 98.8327 237 94.5087 237 90C237 94.5087 235.209 98.8327 232.021 102.021C228.833 105.209 224.509 107 220 107Z" fill="#F9F5F0"></path> <path d="M220 147C224.509 147 228.833 148.791 232.021 151.979C235.209 155.167 237 159.491 237 164C237 159.491 238.791 155.167 241.979 151.979C245.167 148.791 249.491 147 254 147C249.491 147 245.167 145.209 241.979 142.021C238.791 138.833 237 134.509 237 130C237 134.509 235.209 138.833 232.021 142.021C228.833 145.209 224.509 147 220 147Z" fill="#F9F5F0"></path> <path d="M220 187C224.509 187 228.833 188.791 232.021 191.979C235.209 195.167 237 199.491 237 204C237 199.491 238.791 195.167 241.979 191.979C245.167 188.791 249.491 187 254 187C249.491 187 245.167 185.209 241.979 182.021C238.791 178.833 237 174.509 237 170C237 174.509 235.209 178.833 232.021 182.021C228.833 185.209 224.509 187 220 187Z" fill="#F9F5F0"></path> <path d="M220 227C224.509 227 228.833 228.791 232.021 231.979C235.209 235.167 237 239.491 237 244C237 239.491 238.791 235.167 241.979 231.979C245.167 228.791 249.491 227 254 227C249.491 227 245.167 225.209 241.979 222.021C238.791 218.833 237 214.509 237 210C237 214.509 235.209 218.833 232.021 222.021C228.833 225.209 224.509 227 220 227Z" fill="#F9F5F0"></path> <path d="M220 267C224.509 267 228.833 268.791 232.021 271.979C235.209 275.167 237 279.491 237 284C237 279.491 238.791 275.167 241.979 271.979C245.167 268.791 249.491 267 254 267C249.491 267 245.167 265.209 241.979 262.021C238.791 258.833 237 254.509 237 250C237 254.509 235.209 258.833 232.021 262.021C228.833 265.209 224.509 267 220 267Z" fill="#F9F5F0"></path> <path d="M220 307C224.509 307 228.833 308.791 232.021 311.979C235.209 315.167 237 319.491 237 324C237 319.491 238.791 315.167 241.979 311.979C245.167 308.791 249.491 307 254 307C249.491 307 245.167 305.209 241.979 302.021C238.791 298.833 237 294.509 237 290C237 294.509 235.209 298.833 232.021 302.021C228.833 305.209 224.509 307 220 307Z" fill="#F9F5F0"></path> <path d="M220 347C224.509 347 228.833 348.791 232.021 351.979C235.209 355.167 237 359.491 237 364C237 359.491 238.791 355.167 241.979 351.979C245.167 348.791 249.491 347 254 347C249.491 347 245.167 345.209 241.979 342.021C238.791 338.833 237 334.509 237 330C237 334.509 235.209 338.833 232.021 342.021C228.833 345.209 224.509 347 220 347Z" fill="#F9F5F0"></path> <path d="M220 387C224.509 387 228.833 388.791 232.021 391.979C235.209 395.167 237 399.491 237 404C237 399.491 238.791 395.167 241.979 391.979C245.167 388.791 249.491 387 254 387C249.491 387 245.167 385.209 241.979 382.021C238.791 378.833 237 374.509 237 370C237 374.509 235.209 378.833 232.021 382.021C228.833 385.209 224.509 387 220 387Z" fill="#F9F5F0"></path> <path d="M220 427C224.509 427 228.833 428.791 232.021 431.979C235.209 435.167 237 439.491 237 444C237 439.491 238.791 435.167 241.979 431.979C245.167 428.791 249.491 427 254 427C249.491 427 245.167 425.209 241.979 422.021C238.791 418.833 237 414.509 237 410C237 414.509 235.209 418.833 232.021 422.021C228.833 425.209 224.509 427 220 427Z" fill="#F9F5F0"></path> <path d="M176 32C180.509 32 184.833 33.7911 188.021 36.9792C191.209 40.1673 193 44.4913 193 49C193 44.4913 194.791 40.1673 197.979 36.9792C201.167 33.7911 205.491 32 210 32C205.491 32 201.167 30.2089 197.979 27.0208C194.791 23.8327 193 19.5087 193 15C193 19.5087 191.209 23.8327 188.021 27.0208C184.833 30.2089 180.509 32 176 32Z" fill="#F9F5F0"></path> <path d="M176 72C180.509 72 184.833 73.7911 188.021 76.9792C191.209 80.1673 193 84.4913 193 89C193 84.4913 194.791 80.1673 197.979 76.9792C201.167 73.7911 205.491 72 210 72C205.491 72 201.167 70.2089 197.979 67.0208C194.791 63.8327 193 59.5087 193 55C193 59.5087 191.209 63.8327 188.021 67.0208C184.833 70.2089 180.509 72 176 72Z" fill="#F9F5F0"></path> <path d="M176 112C180.509 112 184.833 113.791 188.021 116.979C191.209 120.167 193 124.491 193 129C193 124.491 194.791 120.167 197.979 116.979C201.167 113.791 205.491 112 210 112C205.491 112 201.167 110.209 197.979 107.021C194.791 103.833 193 99.5087 193 95C193 99.5087 191.209 103.833 188.021 107.021C184.833 110.209 180.509 112 176 112Z" fill="#F9F5F0"></path> <path d="M176 152C180.509 152 184.833 153.791 188.021 156.979C191.209 160.167 193 164.491 193 169C193 164.491 194.791 160.167 197.979 156.979C201.167 153.791 205.491 152 210 152C205.491 152 201.167 150.209 197.979 147.021C194.791 143.833 193 139.509 193 135C193 139.509 191.209 143.833 188.021 147.021C184.833 150.209 180.509 152 176 152Z" fill="#F9F5F0"></path> <path d="M176 192C180.509 192 184.833 193.791 188.021 196.979C191.209 200.167 193 204.491 193 209C193 204.491 194.791 200.167 197.979 196.979C201.167 193.791 205.491 192 210 192C205.491 192 201.167 190.209 197.979 187.021C194.791 183.833 193 179.509 193 175C193 179.509 191.209 183.833 188.021 187.021C184.833 190.209 180.509 192 176 192Z" fill="#F9F5F0"></path> <path d="M176 232C180.509 232 184.833 233.791 188.021 236.979C191.209 240.167 193 244.491 193 249C193 244.491 194.791 240.167 197.979 236.979C201.167 233.791 205.491 232 210 232C205.491 232 201.167 230.209 197.979 227.021C194.791 223.833 193 219.509 193 215C193 219.509 191.209 223.833 188.021 227.021C184.833 230.209 180.509 232 176 232Z" fill="#F9F5F0"></path> <path d="M176 272C180.509 272 184.833 273.791 188.021 276.979C191.209 280.167 193 284.491 193 289C193 284.491 194.791 280.167 197.979 276.979C201.167 273.791 205.491 272 210 272C205.491 272 201.167 270.209 197.979 267.021C194.791 263.833 193 259.509 193 255C193 259.509 191.209 263.833 188.021 267.021C184.833 270.209 180.509 272 176 272Z" fill="#F9F5F0"></path> <path d="M176 312C180.509 312 184.833 313.791 188.021 316.979C191.209 320.167 193 324.491 193 329C193 324.491 194.791 320.167 197.979 316.979C201.167 313.791 205.491 312 210 312C205.491 312 201.167 310.209 197.979 307.021C194.791 303.833 193 299.509 193 295C193 299.509 191.209 303.833 188.021 307.021C184.833 310.209 180.509 312 176 312Z" fill="#F9F5F0"></path> <path d="M176 352C180.509 352 184.833 353.791 188.021 356.979C191.209 360.167 193 364.491 193 369C193 364.491 194.791 360.167 197.979 356.979C201.167 353.791 205.491 352 210 352C205.491 352 201.167 350.209 197.979 347.021C194.791 343.833 193 339.509 193 335C193 339.509 191.209 343.833 188.021 347.021C184.833 350.209 180.509 352 176 352Z" fill="#F9F5F0"></path> <path d="M176 392C180.509 392 184.833 393.791 188.021 396.979C191.209 400.167 193 404.491 193 409C193 404.491 194.791 400.167 197.979 396.979C201.167 393.791 205.491 392 210 392C205.491 392 201.167 390.209 197.979 387.021C194.791 383.833 193 379.509 193 375C193 379.509 191.209 383.833 188.021 387.021C184.833 390.209 180.509 392 176 392Z" fill="#F9F5F0"></path> <path d="M176 432C180.509 432 184.833 433.791 188.021 436.979C191.209 440.167 193 444.491 193 449C193 444.491 194.791 440.167 197.979 436.979C201.167 433.791 205.491 432 210 432C205.491 432 201.167 430.209 197.979 427.021C194.791 423.833 193 419.509 193 415C193 419.509 191.209 423.833 188.021 427.021C184.833 430.209 180.509 432 176 432Z" fill="#F9F5F0"></path> <path d="M132 37C136.509 37 140.833 38.7911 144.021 41.9792C147.209 45.1673 149 49.4913 149 54C149 49.4913 150.791 45.1673 153.979 41.9792C157.167 38.7911 161.491 37 166 37C161.491 37 157.167 35.2089 153.979 32.0208C150.791 28.8327 149 24.5087 149 20C149 24.5087 147.209 28.8327 144.021 32.0208C140.833 35.2089 136.509 37 132 37Z" fill="#F9F5F0"></path> <path d="M132 77C136.509 77 140.833 78.7911 144.021 81.9792C147.209 85.1673 149 89.4913 149 94C149 89.4913 150.791 85.1673 153.979 81.9792C157.167 78.7911 161.491 77 166 77C161.491 77 157.167 75.2089 153.979 72.0208C150.791 68.8327 149 64.5087 149 60C149 64.5087 147.209 68.8327 144.021 72.0208C140.833 75.2089 136.509 77 132 77Z" fill="#F9F5F0"></path> <path d="M132 117C136.509 117 140.833 118.791 144.021 121.979C147.209 125.167 149 129.491 149 134C149 129.491 150.791 125.167 153.979 121.979C157.167 118.791 161.491 117 166 117C161.491 117 157.167 115.209 153.979 112.021C150.791 108.833 149 104.509 149 100C149 104.509 147.209 108.833 144.021 112.021C140.833 115.209 136.509 117 132 117Z" fill="#F9F5F0"></path> <path d="M132 157C136.509 157 140.833 158.791 144.021 161.979C147.209 165.167 149 169.491 149 174C149 169.491 150.791 165.167 153.979 161.979C157.167 158.791 161.491 157 166 157C161.491 157 157.167 155.209 153.979 152.021C150.791 148.833 149 144.509 149 140C149 144.509 147.209 148.833 144.021 152.021C140.833 155.209 136.509 157 132 157Z" fill="#F9F5F0"></path> <path d="M132 197C136.509 197 140.833 198.791 144.021 201.979C147.209 205.167 149 209.491 149 214C149 209.491 150.791 205.167 153.979 201.979C157.167 198.791 161.491 197 166 197C161.491 197 157.167 195.209 153.979 192.021C150.791 188.833 149 184.509 149 180C149 184.509 147.209 188.833 144.021 192.021C140.833 195.209 136.509 197 132 197Z" fill="#F9F5F0"></path> <path d="M132 237C136.509 237 140.833 238.791 144.021 241.979C147.209 245.167 149 249.491 149 254C149 249.491 150.791 245.167 153.979 241.979C157.167 238.791 161.491 237 166 237C161.491 237 157.167 235.209 153.979 232.021C150.791 228.833 149 224.509 149 220C149 224.509 147.209 228.833 144.021 232.021C140.833 235.209 136.509 237 132 237Z" fill="#F9F5F0"></path> <path d="M132 277C136.509 277 140.833 278.791 144.021 281.979C147.209 285.167 149 289.491 149 294C149 289.491 150.791 285.167 153.979 281.979C157.167 278.791 161.491 277 166 277C161.491 277 157.167 275.209 153.979 272.021C150.791 268.833 149 264.509 149 260C149 264.509 147.209 268.833 144.021 272.021C140.833 275.209 136.509 277 132 277Z" fill="#F9F5F0"></path> <path d="M132 317C136.509 317 140.833 318.791 144.021 321.979C147.209 325.167 149 329.491 149 334C149 329.491 150.791 325.167 153.979 321.979C157.167 318.791 161.491 317 166 317C161.491 317 157.167 315.209 153.979 312.021C150.791 308.833 149 304.509 149 300C149 304.509 147.209 308.833 144.021 312.021C140.833 315.209 136.509 317 132 317Z" fill="#F9F5F0"></path> <path d="M132 357C136.509 357 140.833 358.791 144.021 361.979C147.209 365.167 149 369.491 149 374C149 369.491 150.791 365.167 153.979 361.979C157.167 358.791 161.491 357 166 357C161.491 357 157.167 355.209 153.979 352.021C150.791 348.833 149 344.509 149 340C149 344.509 147.209 348.833 144.021 352.021C140.833 355.209 136.509 357 132 357Z" fill="#F9F5F0"></path> <path d="M132 397C136.509 397 140.833 398.791 144.021 401.979C147.209 405.167 149 409.491 149 414C149 409.491 150.791 405.167 153.979 401.979C157.167 398.791 161.491 397 166 397C161.491 397 157.167 395.209 153.979 392.021C150.791 388.833 149 384.509 149 380C149 384.509 147.209 388.833 144.021 392.021C140.833 395.209 136.509 397 132 397Z" fill="#F9F5F0"></path> <path d="M132 437C136.509 437 140.833 438.791 144.021 441.979C147.209 445.167 149 449.491 149 454C149 449.491 150.791 445.167 153.979 441.979C157.167 438.791 161.491 437 166 437C161.491 437 157.167 435.209 153.979 432.021C150.791 428.833 149 424.509 149 420C149 424.509 147.209 428.833 144.021 432.021C140.833 435.209 136.509 437 132 437Z" fill="#F9F5F0"></path> <path d="M88 42C92.5087 42 96.8327 43.7911 100.021 46.9792C103.209 50.1673 105 54.4913 105 59C105 54.4913 106.791 50.1673 109.979 46.9792C113.167 43.7911 117.491 42 122 42C117.491 42 113.167 40.2089 109.979 37.0208C106.791 33.8327 105 29.5087 105 25C105 29.5087 103.209 33.8327 100.021 37.0208C96.8327 40.2089 92.5087 42 88 42Z" fill="#F9F5F0"></path> <path d="M88 82C92.5087 82 96.8327 83.7911 100.021 86.9792C103.209 90.1673 105 94.4913 105 99C105 94.4913 106.791 90.1673 109.979 86.9792C113.167 83.7911 117.491 82 122 82C117.491 82 113.167 80.2089 109.979 77.0208C106.791 73.8327 105 69.5087 105 65C105 69.5087 103.209 73.8327 100.021 77.0208C96.8327 80.2089 92.5087 82 88 82Z" fill="#F9F5F0"></path> <path d="M88 122C92.5087 122 96.8327 123.791 100.021 126.979C103.209 130.167 105 134.491 105 139C105 134.491 106.791 130.167 109.979 126.979C113.167 123.791 117.491 122 122 122C117.491 122 113.167 120.209 109.979 117.021C106.791 113.833 105 109.509 105 105C105 109.509 103.209 113.833 100.021 117.021C96.8327 120.209 92.5087 122 88 122Z" fill="#F9F5F0"></path> <path d="M88 162C92.5087 162 96.8327 163.791 100.021 166.979C103.209 170.167 105 174.491 105 179C105 174.491 106.791 170.167 109.979 166.979C113.167 163.791 117.491 162 122 162C117.491 162 113.167 160.209 109.979 157.021C106.791 153.833 105 149.509 105 145C105 149.509 103.209 153.833 100.021 157.021C96.8327 160.209 92.5087 162 88 162Z" fill="#F9F5F0"></path> <path d="M88 202C92.5087 202 96.8327 203.791 100.021 206.979C103.209 210.167 105 214.491 105 219C105 214.491 106.791 210.167 109.979 206.979C113.167 203.791 117.491 202 122 202C117.491 202 113.167 200.209 109.979 197.021C106.791 193.833 105 189.509 105 185C105 189.509 103.209 193.833 100.021 197.021C96.8327 200.209 92.5087 202 88 202Z" fill="#F9F5F0"></path> <path d="M88 242C92.5087 242 96.8327 243.791 100.021 246.979C103.209 250.167 105 254.491 105 259C105 254.491 106.791 250.167 109.979 246.979C113.167 243.791 117.491 242 122 242C117.491 242 113.167 240.209 109.979 237.021C106.791 233.833 105 229.509 105 225C105 229.509 103.209 233.833 100.021 237.021C96.8327 240.209 92.5087 242 88 242Z" fill="#F9F5F0"></path> <path d="M88 282C92.5087 282 96.8327 283.791 100.021 286.979C103.209 290.167 105 294.491 105 299C105 294.491 106.791 290.167 109.979 286.979C113.167 283.791 117.491 282 122 282C117.491 282 113.167 280.209 109.979 277.021C106.791 273.833 105 269.509 105 265C105 269.509 103.209 273.833 100.021 277.021C96.8327 280.209 92.5087 282 88 282Z" fill="#F9F5F0"></path> <path d="M88 322C92.5087 322 96.8327 323.791 100.021 326.979C103.209 330.167 105 334.491 105 339C105 334.491 106.791 330.167 109.979 326.979C113.167 323.791 117.491 322 122 322C117.491 322 113.167 320.209 109.979 317.021C106.791 313.833 105 309.509 105 305C105 309.509 103.209 313.833 100.021 317.021C96.8327 320.209 92.5087 322 88 322Z" fill="#F9F5F0"></path> <path d="M88 362C92.5087 362 96.8327 363.791 100.021 366.979C103.209 370.167 105 374.491 105 379C105 374.491 106.791 370.167 109.979 366.979C113.167 363.791 117.491 362 122 362C117.491 362 113.167 360.209 109.979 357.021C106.791 353.833 105 349.509 105 345C105 349.509 103.209 353.833 100.021 357.021C96.8327 360.209 92.5087 362 88 362Z" fill="#F9F5F0"></path> <path d="M88 402C92.5087 402 96.8327 403.791 100.021 406.979C103.209 410.167 105 414.491 105 419C105 414.491 106.791 410.167 109.979 406.979C113.167 403.791 117.491 402 122 402C117.491 402 113.167 400.209 109.979 397.021C106.791 393.833 105 389.509 105 385C105 389.509 103.209 393.833 100.021 397.021C96.8327 400.209 92.5087 402 88 402Z" fill="#F9F5F0"></path> <path d="M88 442C92.5087 442 96.8327 443.791 100.021 446.979C103.209 450.167 105 454.491 105 459C105 454.491 106.791 450.167 109.979 446.979C113.167 443.791 117.491 442 122 442C117.491 442 113.167 440.209 109.979 437.021C106.791 433.833 105 429.509 105 425C105 429.509 103.209 433.833 100.021 437.021C96.8327 440.209 92.5087 442 88 442Z" fill="#F9F5F0"></path> <path d="M44 47C48.5087 47 52.8327 48.7911 56.0208 51.9792C59.2089 55.1673 61 59.4913 61 64C61 59.4913 62.7911 55.1673 65.9792 51.9792C69.1673 48.7911 73.4913 47 78 47C73.4913 47 69.1673 45.2089 65.9792 42.0208C62.7911 38.8327 61 34.5087 61 30C61 34.5087 59.2089 38.8327 56.0208 42.0208C52.8327 45.2089 48.5087 47 44 47Z" fill="#F9F5F0"></path> <path d="M44 87C48.5087 87 52.8327 88.7911 56.0208 91.9792C59.2089 95.1673 61 99.4913 61 104C61 99.4913 62.7911 95.1673 65.9792 91.9792C69.1673 88.7911 73.4913 87 78 87C73.4913 87 69.1673 85.2089 65.9792 82.0208C62.7911 78.8327 61 74.5087 61 70C61 74.5087 59.2089 78.8327 56.0208 82.0208C52.8327 85.2089 48.5087 87 44 87Z" fill="#F9F5F0"></path> <path d="M44 127C48.5087 127 52.8327 128.791 56.0208 131.979C59.2089 135.167 61 139.491 61 144C61 139.491 62.7911 135.167 65.9792 131.979C69.1673 128.791 73.4913 127 78 127C73.4913 127 69.1673 125.209 65.9792 122.021C62.7911 118.833 61 114.509 61 110C61 114.509 59.2089 118.833 56.0208 122.021C52.8327 125.209 48.5087 127 44 127Z" fill="#F9F5F0"></path> <path d="M44 167C48.5087 167 52.8327 168.791 56.0208 171.979C59.2089 175.167 61 179.491 61 184C61 179.491 62.7911 175.167 65.9792 171.979C69.1673 168.791 73.4913 167 78 167C73.4913 167 69.1673 165.209 65.9792 162.021C62.7911 158.833 61 154.509 61 150C61 154.509 59.2089 158.833 56.0208 162.021C52.8327 165.209 48.5087 167 44 167Z" fill="#F9F5F0"></path> <path d="M44 207C48.5087 207 52.8327 208.791 56.0208 211.979C59.2089 215.167 61 219.491 61 224C61 219.491 62.7911 215.167 65.9792 211.979C69.1673 208.791 73.4913 207 78 207C73.4913 207 69.1673 205.209 65.9792 202.021C62.7911 198.833 61 194.509 61 190C61 194.509 59.2089 198.833 56.0208 202.021C52.8327 205.209 48.5087 207 44 207Z" fill="#F9F5F0"></path> <path d="M44 247C48.5087 247 52.8327 248.791 56.0208 251.979C59.2089 255.167 61 259.491 61 264C61 259.491 62.7911 255.167 65.9792 251.979C69.1673 248.791 73.4913 247 78 247C73.4913 247 69.1673 245.209 65.9792 242.021C62.7911 238.833 61 234.509 61 230C61 234.509 59.2089 238.833 56.0208 242.021C52.8327 245.209 48.5087 247 44 247Z" fill="#F9F5F0"></path> <path d="M44 287C48.5087 287 52.8327 288.791 56.0208 291.979C59.2089 295.167 61 299.491 61 304C61 299.491 62.7911 295.167 65.9792 291.979C69.1673 288.791 73.4913 287 78 287C73.4913 287 69.1673 285.209 65.9792 282.021C62.7911 278.833 61 274.509 61 270C61 274.509 59.2089 278.833 56.0208 282.021C52.8327 285.209 48.5087 287 44 287Z" fill="#F9F5F0"></path> <path d="M44 327C48.5087 327 52.8327 328.791 56.0208 331.979C59.2089 335.167 61 339.491 61 344C61 339.491 62.7911 335.167 65.9792 331.979C69.1673 328.791 73.4913 327 78 327C73.4913 327 69.1673 325.209 65.9792 322.021C62.7911 318.833 61 314.509 61 310C61 314.509 59.2089 318.833 56.0208 322.021C52.8327 325.209 48.5087 327 44 327Z" fill="#F9F5F0"></path> <path d="M44 367C48.5087 367 52.8327 368.791 56.0208 371.979C59.2089 375.167 61 379.491 61 384C61 379.491 62.7911 375.167 65.9792 371.979C69.1673 368.791 73.4913 367 78 367C73.4913 367 69.1673 365.209 65.9792 362.021C62.7911 358.833 61 354.509 61 350C61 354.509 59.2089 358.833 56.0208 362.021C52.8327 365.209 48.5087 367 44 367Z" fill="#F9F5F0"></path> <path d="M44 407C48.5087 407 52.8327 408.791 56.0208 411.979C59.2089 415.167 61 419.491 61 424C61 419.491 62.7911 415.167 65.9792 411.979C69.1673 408.791 73.4913 407 78 407C73.4913 407 69.1673 405.209 65.9792 402.021C62.7911 398.833 61 394.509 61 390C61 394.509 59.2089 398.833 56.0208 402.021C52.8327 405.209 48.5087 407 44 407Z" fill="#F9F5F0"></path> <path d="M44 447C48.5087 447 52.8327 448.791 56.0208 451.979C59.2089 455.167 61 459.491 61 464C61 459.491 62.7911 455.167 65.9792 451.979C69.1673 448.791 73.4913 447 78 447C73.4913 447 69.1673 445.209 65.9792 442.021C62.7911 438.833 61 434.509 61 430C61 434.509 59.2089 438.833 56.0208 442.021C52.8327 445.209 48.5087 447 44 447Z" fill="#F9F5F0"></path> <path d="M0 52C4.50868 52 8.8327 53.7911 12.0208 56.9792C15.2089 60.1673 17 64.4913 17 69C17 64.4913 18.7911 60.1673 21.9792 56.9792C25.1673 53.7911 29.4913 52 34 52C29.4913 52 25.1673 50.2089 21.9792 47.0208C18.7911 43.8327 17 39.5087 17 35C17 39.5087 15.2089 43.8327 12.0208 47.0208C8.8327 50.2089 4.50868 52 0 52Z" fill="#F9F5F0"></path> <path d="M0 92C4.50868 92 8.8327 93.7911 12.0208 96.9792C15.2089 100.167 17 104.491 17 109C17 104.491 18.7911 100.167 21.9792 96.9792C25.1673 93.7911 29.4913 92 34 92C29.4913 92 25.1673 90.2089 21.9792 87.0208C18.7911 83.8327 17 79.5087 17 75C17 79.5087 15.2089 83.8327 12.0208 87.0208C8.8327 90.2089 4.50868 92 0 92Z" fill="#F9F5F0"></path> <path d="M0 132C4.50868 132 8.8327 133.791 12.0208 136.979C15.2089 140.167 17 144.491 17 149C17 144.491 18.7911 140.167 21.9792 136.979C25.1673 133.791 29.4913 132 34 132C29.4913 132 25.1673 130.209 21.9792 127.021C18.7911 123.833 17 119.509 17 115C17 119.509 15.2089 123.833 12.0208 127.021C8.8327 130.209 4.50868 132 0 132Z" fill="#F9F5F0"></path> <path d="M0 172C4.50868 172 8.8327 173.791 12.0208 176.979C15.2089 180.167 17 184.491 17 189C17 184.491 18.7911 180.167 21.9792 176.979C25.1673 173.791 29.4913 172 34 172C29.4913 172 25.1673 170.209 21.9792 167.021C18.7911 163.833 17 159.509 17 155C17 159.509 15.2089 163.833 12.0208 167.021C8.8327 170.209 4.50868 172 0 172Z" fill="#F9F5F0"></path> <path d="M0 212C4.50868 212 8.8327 213.791 12.0208 216.979C15.2089 220.167 17 224.491 17 229C17 224.491 18.7911 220.167 21.9792 216.979C25.1673 213.791 29.4913 212 34 212C29.4913 212 25.1673 210.209 21.9792 207.021C18.7911 203.833 17 199.509 17 195C17 199.509 15.2089 203.833 12.0208 207.021C8.8327 210.209 4.50868 212 0 212Z" fill="#F9F5F0"></path> <path d="M0 252C4.50868 252 8.8327 253.791 12.0208 256.979C15.2089 260.167 17 264.491 17 269C17 264.491 18.7911 260.167 21.9792 256.979C25.1673 253.791 29.4913 252 34 252C29.4913 252 25.1673 250.209 21.9792 247.021C18.7911 243.833 17 239.509 17 235C17 239.509 15.2089 243.833 12.0208 247.021C8.8327 250.209 4.50868 252 0 252Z" fill="#F9F5F0"></path> <path d="M0 292C4.50868 292 8.8327 293.791 12.0208 296.979C15.2089 300.167 17 304.491 17 309C17 304.491 18.7911 300.167 21.9792 296.979C25.1673 293.791 29.4913 292 34 292C29.4913 292 25.1673 290.209 21.9792 287.021C18.7911 283.833 17 279.509 17 275C17 279.509 15.2089 283.833 12.0208 287.021C8.8327 290.209 4.50868 292 0 292Z" fill="#F9F5F0"></path> <path d="M0 332C4.50868 332 8.8327 333.791 12.0208 336.979C15.2089 340.167 17 344.491 17 349C17 344.491 18.7911 340.167 21.9792 336.979C25.1673 333.791 29.4913 332 34 332C29.4913 332 25.1673 330.209 21.9792 327.021C18.7911 323.833 17 319.509 17 315C17 319.509 15.2089 323.833 12.0208 327.021C8.8327 330.209 4.50868 332 0 332Z" fill="#F9F5F0"></path> <path d="M0 372C4.50868 372 8.8327 373.791 12.0208 376.979C15.2089 380.167 17 384.491 17 389C17 384.491 18.7911 380.167 21.9792 376.979C25.1673 373.791 29.4913 372 34 372C29.4913 372 25.1673 370.209 21.9792 367.021C18.7911 363.833 17 359.509 17 355C17 359.509 15.2089 363.833 12.0208 367.021C8.8327 370.209 4.50868 372 0 372Z" fill="#F9F5F0"></path> <path d="M0 412C4.50868 412 8.8327 413.791 12.0208 416.979C15.2089 420.167 17 424.491 17 429C17 424.491 18.7911 420.167 21.9792 416.979C25.1673 413.791 29.4913 412 34 412C29.4913 412 25.1673 410.209 21.9792 407.021C18.7911 403.833 17 399.509 17 395C17 399.509 15.2089 403.833 12.0208 407.021C8.8327 410.209 4.50868 412 0 412Z" fill="#F9F5F0"></path> <path d="M0 452C4.50868 452 8.8327 453.791 12.0208 456.979C15.2089 460.167 17 464.491 17 469C17 464.491 18.7911 460.167 21.9792 456.979C25.1673 453.791 29.4913 452 34 452C29.4913 452 25.1673 450.209 21.9792 447.021C18.7911 443.833 17 439.509 17 435C17 439.509 15.2089 443.833 12.0208 447.021C8.8327 450.209 4.50868 452 0 452Z" fill="#F9F5F0"></path> </svg> 