<?xml version="1.0" encoding="UTF-8"?> <svg xmlns="http://www.w3.org/2000/svg" width="274" height="238" viewBox="0 0 274 238" fill="none"> <mask id="mask0" maskUnits="userSpaceOnUse" x="0" y="0" width="274" height="238"> <rect width="274" height="238" rx="2" fill="#F38B8B"></rect> </mask> <g mask="url(#mask0)"> <rect width="10.132" height="432.698" transform="matrix(0.893892 0.448282 -0.553555 0.832813 56.0249 -145.695)" fill="#F1DAC3"></rect> <rect width="10.132" height="432.698" transform="matrix(0.893892 0.448282 -0.553555 0.832813 86.6543 -130.335)" fill="#F1DAC3"></rect> <rect width="10.132" height="432.698" transform="matrix(0.893892 0.448282 -0.553555 0.832813 117.283 -114.975)" fill="#F1DAC3"></rect> <rect width="10.132" height="432.698" transform="matrix(0.893892 0.448282 -0.553555 0.832813 147.912 -99.6147)" fill="#F1DAC3"></rect> <rect width="10.132" height="432.698" transform="matrix(0.893892 0.448282 -0.553555 0.832813 178.541 -84.2544)" fill="#F1DAC3"></rect> <rect width="10.132" height="432.698" transform="matrix(0.893892 0.448282 -0.553555 0.832813 209.169 -68.8943)" fill="#F1DAC3"></rect> <rect width="10.132" height="432.698" transform="matrix(0.893892 0.448282 -0.553555 0.832813 239.798 -53.5341)" fill="#F1DAC3"></rect> <rect width="10.132" height="432.698" transform="matrix(0.893892 0.448282 -0.553555 0.832813 270.427 -38.1739)" fill="#F1DAC3"></rect> <rect width="10.132" height="432.698" transform="matrix(0.893892 0.448282 -0.553555 0.832813 301.056 -22.8137)" fill="#F1DAC3"></rect> <rect width="10.132" height="432.698" transform="matrix(0.893892 0.448282 -0.553555 0.832813 331.427 -7.58304)" fill="#F1DAC3"></rect> <rect width="10.132" height="432.698" transform="matrix(0.893892 0.448282 -0.553555 0.832813 361.797 7.64764)" fill="#F1DAC3"></rect> <rect width="10.132" height="432.698" transform="matrix(0.893892 0.448282 -0.553555 0.832813 392.168 22.8783)" fill="#F1DAC3"></rect> <rect width="10.132" height="432.698" transform="matrix(0.893892 0.448282 -0.553555 0.832813 422.539 38.109)" fill="#F1DAC3"></rect> </g> </svg> 