<?xml version="1.0" encoding="UTF-8"?> <svg xmlns="http://www.w3.org/2000/svg" width="111" height="111" viewBox="0 0 111 111" fill="none"> <rect width="111" height="111" fill="#F2D9C1"></rect> <g clip-path="url(#clip0)"> <path d="M72.4956 46.6961C71.4214 50.8033 68.9147 51.708 67.5772 51.8895C66.7532 53.5367 64.9422 56.903 63.1306 58.5944C62.4064 59.2702 61.4654 59.8407 60.3337 60.2899C58.8889 60.8631 57.3629 61.1539 55.7988 61.1539C54.2346 61.1539 52.7087 60.8631 51.2638 60.2899C50.1325 59.841 49.1911 59.2706 48.467 58.5944C46.655 56.9033 44.844 53.5367 44.0201 51.8895C42.6829 51.708 40.1761 50.8036 39.1019 46.6961C38.5274 44.4996 38.6745 42.7091 39.5394 41.3741C39.9217 40.7841 40.3851 40.3823 40.8166 40.1102C40.8179 39.6717 40.8362 39.1228 40.887 38.4984C40.1102 37.4188 39.0539 35.0894 40.3621 31.319C41.7447 27.333 44.8708 26.7175 46.3797 26.6641C46.8899 25.7158 47.8536 24.3695 49.6037 23.1317C51.5464 21.757 54.0831 21 56.7464 21C60.0237 21 63.3216 22.1535 66.2832 24.3357C71.0849 27.8738 70.6736 35.722 70.5558 37.147C70.7301 38.3415 70.7784 39.3775 70.7806 40.1099C71.2121 40.382 71.6755 40.7838 72.0578 41.3738C72.9228 42.7091 73.0699 44.4993 72.4956 46.6961ZM86.5387 77.2812V88.4216C86.5387 89.2932 85.8319 90 84.9603 90H26.637C25.7654 90 25.0586 89.2932 25.0586 88.4216V77.2812C25.0586 72.7173 27.7967 68.6729 32.0343 66.9777L45.8339 61.4578C46.2311 61.2994 46.6755 61.3079 47.066 61.4834C47.4562 61.6583 47.7589 61.9844 47.9041 62.3866L51.3734 71.9776L52.0603 70.0028L50.9674 67.3313C50.7685 66.8445 50.8247 66.2905 51.118 65.8539C51.4112 65.4173 51.9024 65.1553 52.4283 65.1553H59.1692C59.6951 65.1553 60.1866 65.4173 60.4796 65.8539C60.7728 66.2905 60.829 66.8445 60.6301 67.3313L59.5373 70.0028L60.2242 71.9776L63.6934 62.3866C63.8386 61.9844 64.1414 61.6583 64.5315 61.4834C64.922 61.3082 65.3668 61.2997 65.7636 61.4578L79.5632 66.9777C83.8008 68.6729 86.5387 72.7173 86.5387 77.2812ZM78.1367 78.4925C78.1367 77.6209 77.4299 76.9141 76.5584 76.9141H65.9612C65.0897 76.9141 64.3829 77.6209 64.3829 78.4925V83.4138C64.3829 84.2854 65.0897 84.9922 65.9612 84.9922H76.5584C77.4299 84.9922 78.1367 84.2854 78.1367 83.4138V78.4925Z" fill="white"></path> </g> <defs> <clipPath id="clip0"> <rect width="69" height="69" fill="white" transform="translate(21 21)"></rect> </clipPath> </defs> </svg> 