<?xml version="1.0" encoding="UTF-8"?> <svg xmlns="http://www.w3.org/2000/svg" width="383" height="318" viewBox="0 0 383 318" fill="none"> <mask id="mask0" maskUnits="userSpaceOnUse" x="0" y="0" width="383" height="318"> <rect width="383" height="318" rx="2" transform="matrix(-1 0 0 1 383 0)" fill="#F38B8B"></rect> </mask> <g mask="url(#mask0)"> <rect width="13.5244" height="577.925" transform="matrix(-0.893672 0.448722 0.553083 0.833126 290.887 -194.668)" fill="#ECECEC"></rect> <rect width="13.5244" height="577.925" transform="matrix(-0.893672 0.448722 0.553083 0.833126 250.012 -174.146)" fill="#ECECEC"></rect> <rect width="13.5244" height="577.925" transform="matrix(-0.893672 0.448722 0.553083 0.833126 209.138 -153.623)" fill="#ECECEC"></rect> <rect width="13.5244" height="577.925" transform="matrix(-0.893672 0.448722 0.553083 0.833126 168.264 -133.099)" fill="#ECECEC"></rect> <rect width="13.5244" height="577.925" transform="matrix(-0.893672 0.448722 0.553083 0.833126 127.39 -112.576)" fill="#ECECEC"></rect> <rect width="13.5244" height="577.925" transform="matrix(-0.893672 0.448722 0.553083 0.833126 86.5161 -92.0527)" fill="#ECECEC"></rect> <rect width="13.5244" height="577.925" transform="matrix(-0.893672 0.448722 0.553083 0.833126 45.6421 -71.5293)" fill="#ECECEC"></rect> <rect width="13.5244" height="577.925" transform="matrix(-0.893672 0.448722 0.553083 0.833126 4.76807 -51.0054)" fill="#ECECEC"></rect> <rect width="13.5244" height="577.925" transform="matrix(-0.893672 0.448722 0.553083 0.833126 -36.1055 -30.4829)" fill="#ECECEC"></rect> <rect width="13.5244" height="577.925" transform="matrix(-0.893672 0.448722 0.553083 0.833126 -76.6353 -10.1323)" fill="#ECECEC"></rect> <rect width="13.5244" height="577.925" transform="matrix(-0.893672 0.448722 0.553083 0.833126 -117.165 10.2178)" fill="#ECECEC"></rect> <rect width="13.5244" height="577.925" transform="matrix(-0.893672 0.448722 0.553083 0.833126 -157.694 30.5684)" fill="#ECECEC"></rect> <rect width="13.5244" height="577.925" transform="matrix(-0.893672 0.448722 0.553083 0.833126 -198.224 50.9185)" fill="#ECECEC"></rect> </g> </svg> 