<?xml version="1.0" encoding="UTF-8"?> <svg xmlns="http://www.w3.org/2000/svg" width="62" height="62" viewBox="0 0 62 62" fill="none"> <rect width="62" height="62" fill="#F2D9C1"></rect> <g clip-path="url(#clip0)"> <path d="M23.8506 42.5907C25.1257 45.2637 27.8467 47.1199 31.0003 47.1199C34.1538 47.1199 36.8748 45.2637 38.1499 42.5907H23.8506Z" fill="white"></path> <path d="M36.6529 23.1823C36.5774 20.5208 34.6605 18.3129 32.1324 17.7971V13.5314C32.1324 12.9059 31.6252 12.3992 31.0002 12.3992C30.3752 12.3992 29.868 12.9059 29.868 13.5314V17.797C27.3399 18.313 25.423 20.5207 25.3475 23.1822C18.7546 25.5169 14.0176 31.8111 14.0176 39.1939C14.0176 39.8194 14.5247 40.3261 15.1498 40.3261H46.8506C47.4757 40.3261 47.9828 39.8194 47.9828 39.1939C47.9828 31.8111 43.2458 25.5169 36.6529 23.1823ZM31.0002 29.0044C26.9542 29.0044 23.288 31.4048 21.6605 35.1197C21.407 35.6974 20.7369 35.9521 20.1694 35.7025C19.5966 35.4515 19.3357 34.7837 19.5863 34.2109C21.575 29.6726 26.055 26.74 31.0002 26.74C31.6252 26.74 32.1324 27.2468 32.1324 27.8722C32.1324 28.4977 31.6252 29.0044 31.0002 29.0044Z" fill="white"></path> </g> <defs> <clipPath id="clip0"> <rect width="34.72" height="34.72" fill="white" transform="translate(13.6406 12.3992)"></rect> </clipPath> </defs> </svg> 