<?xml version="1.0" encoding="UTF-8"?> <svg xmlns="http://www.w3.org/2000/svg" width="111" height="111" viewBox="0 0 111 111" fill="none"> <rect width="111" height="111" fill="#F2D9C1"></rect> <path d="M49.9629 56.7998H61.0371V60.3998H49.9629V56.7998Z" fill="white"></path> <path d="M75.1111 60.3998H64.7285V62.1999C64.7285 63.1945 63.9028 63.9998 62.8828 63.9998H48.1172C47.0972 63.9998 46.2715 63.1945 46.2715 62.1999V60.3998H35.8889C33.5025 60.3998 31.3919 58.9163 30.6364 56.7084L24 37.2891V76.5999C24 79.5774 26.484 81.9999 29.5371 81.9999H81.4629C84.516 81.9999 87 79.5774 87 76.5999V37.2905L80.3632 56.7084C79.6081 58.9163 77.4975 60.3998 75.1111 60.3998Z" fill="white"></path> <path d="M62.8829 28H48.1173C45.0642 28 42.5802 30.4225 42.5802 33.4V35.2H27.1758L34.1371 55.5695C34.3894 56.3059 35.094 56.8 35.889 56.8H46.2716V55C46.2716 54.0053 47.0974 53.2 48.1173 53.2H62.8829C63.9029 53.2 64.7286 54.0053 64.7286 55V56.8H75.1112C75.9062 56.8 76.6108 56.3059 76.8632 55.5695L83.8249 35.2H68.42V33.4C68.42 30.4225 65.936 28 62.8829 28ZM46.2716 35.2V33.4C46.2716 32.4067 47.0988 31.6 48.1173 31.6H62.8829C63.9014 31.6 64.7286 32.4067 64.7286 33.4V35.2H46.2716Z" fill="white"></path> </svg> 