<?xml version="1.0" encoding="UTF-8"?> <svg xmlns="http://www.w3.org/2000/svg" width="62" height="62" viewBox="0 0 62 62" fill="none"> <rect y="0.000366211" width="62" height="62" fill="#F2D9C1"></rect> <g clip-path="url(#clip0)"> <path d="M47.5998 46.9638L45.1746 44.5386C44.7008 44.0648 43.9331 44.0648 43.4592 44.5386C42.9855 45.012 42.9855 45.7804 43.4592 46.2539L43.8147 46.6093H20.5584L20.9138 46.2539C21.3876 45.7805 21.3876 45.0121 20.9138 44.5386C20.44 44.0648 19.6724 44.0648 19.1985 44.5386L16.7732 46.9638C16.5353 47.2013 16.417 47.5255 16.417 47.8223C16.417 48.1256 16.5415 48.4496 16.7732 48.6808L19.1985 51.1061C19.6724 51.58 20.4399 51.58 20.9138 51.1061C21.3876 50.6327 21.3876 49.8643 20.9138 49.3908L20.5584 49.0353H43.8147L43.4592 49.3908C42.9855 49.8642 42.9855 50.6326 43.4592 51.1061C43.9331 51.58 44.7006 51.58 45.1746 51.1061L47.5998 48.6808C47.8374 48.4438 47.9561 48.1199 47.9561 47.8223C47.9561 47.5111 47.8317 47.1951 47.5998 46.9638Z" fill="white"></path> <path d="M16.7731 39.6865L16.4177 40.0418V18.403L16.7731 18.7584C17.247 19.2323 18.0145 19.2323 18.4884 18.7584C18.9623 18.2845 18.9623 17.517 18.4884 17.0431L16.0623 14.617C15.5885 14.1432 14.8208 14.1432 14.347 14.617L11.9209 17.0431C11.447 17.5169 11.447 18.2845 11.9209 18.7584C12.3947 19.2322 13.1624 19.2322 13.6362 18.7584L13.9916 18.403V40.0418L13.6362 39.6864C13.1624 39.2126 12.3947 39.2126 11.9208 39.6864C11.447 40.1603 11.447 40.9278 11.9208 41.4017L14.3469 43.8278C14.8208 44.3017 15.5883 44.3017 16.0622 43.8278L18.4883 41.4017C18.9621 40.928 18.9621 40.1603 18.4884 39.6865C18.0146 39.2127 17.2469 39.2127 16.7731 39.6865Z" fill="white"></path> <path d="M41.8904 23.9658H47.9556V15.4746C47.9556 14.8045 47.4122 14.2615 46.7425 14.2615H30.1643V23.9658H36.2295C36.8991 23.9658 37.4425 24.5088 37.4425 25.1789C37.4425 25.849 36.8991 26.392 36.2295 26.392H30.1643V30.0311C30.1643 30.7012 29.6209 31.2442 28.9512 31.2442C28.2815 31.2442 27.7381 30.7012 27.7381 30.0311V14.2615H22.4816C21.8119 14.2615 21.2686 14.8045 21.2686 15.4746V40.5441C21.2686 41.2142 21.8119 41.7571 22.4816 41.7571H27.7381V35.692C27.7381 35.0219 28.2815 34.4789 28.9512 34.4789C29.6209 34.4789 30.1643 35.0219 30.1643 35.692V41.7571H46.7425C47.4122 41.7571 47.9556 41.2142 47.9556 40.5441V26.392H41.8904C41.2207 26.392 40.6773 25.849 40.6773 25.1789C40.6773 24.5088 41.2207 23.9658 41.8904 23.9658Z" fill="white"></path> </g> <defs> <clipPath id="clip0"> <rect width="37.2" height="37.2" fill="white" transform="translate(11.1602 14.2615)"></rect> </clipPath> </defs> </svg> 