<?xml version="1.0" encoding="UTF-8"?> <svg xmlns="http://www.w3.org/2000/svg" width="62" height="62" viewBox="0 0 62 62" fill="none"> <rect width="62" height="62" fill="#F2D9C1"></rect> <g clip-path="url(#clip0)"> <path d="M44.4515 20.1144H43.2789V17.6226C43.2789 15.7637 41.7665 14.2513 39.9076 14.2513H18.5075C16.6486 14.2513 15.1363 15.7637 15.1363 17.6226V20.1144H13.9636C13.3163 20.1144 12.791 20.6392 12.791 21.287C12.791 21.9348 13.3163 22.4596 13.9636 22.4596H15.1363V24.9514C15.1363 26.8103 16.6486 28.3227 18.5075 28.3227H39.9077C41.7666 28.3227 43.2789 26.8103 43.2789 24.9514V22.4596H44.4516C45.0981 22.4596 45.6242 22.9857 45.6242 23.6323V29.4953C45.6242 30.1419 45.0981 30.6679 44.4516 30.6679H32.7742C30.8077 30.6679 29.2075 32.2681 29.2075 34.2346V34.9675H25.6897C25.0424 34.9675 24.5171 35.4924 24.5171 36.1402C24.5171 36.7879 25.0424 37.3128 25.6897 37.3128V45.5211C25.6897 48.1074 27.7937 50.2113 30.3802 50.2113C32.9666 50.2113 35.0706 48.1074 35.0706 45.5209V37.3126C35.718 37.3126 36.2433 36.7877 36.2433 36.14C36.2433 35.4922 35.718 34.9673 35.0706 34.9673H31.5528V34.2344C31.5528 33.5611 32.101 33.013 32.7742 33.013H44.4515C46.3913 33.013 47.9693 31.435 47.9693 29.4952V23.6321C47.9693 21.6924 46.3913 20.1144 44.4515 20.1144ZM40.9337 19.6121C36.9538 18.2865 32.5919 18.4905 28.7312 20.2285C25.1626 21.8338 21.1045 21.9023 17.4815 20.4732V17.6226C17.4815 17.0569 17.9419 16.5965 18.5075 16.5965H39.9077C40.4733 16.5965 40.9337 17.0569 40.9337 17.6226V19.6121H40.9337ZM32.7254 37.3127V39.951H28.0349V37.3127H32.7254Z" fill="white"></path> </g> <defs> <clipPath id="clip0"> <rect width="35.96" height="35.96" fill="white" transform="translate(12.4004 14.2513)"></rect> </clipPath> </defs> </svg> 