<?xml version="1.0" encoding="UTF-8"?> <svg xmlns="http://www.w3.org/2000/svg" width="62" height="62" viewBox="0 0 62 62" fill="none"> <rect width="62" height="62" fill="#F2D9C1"></rect> <g clip-path="url(#clip0)"> <path d="M47.6247 19.2307L45.4413 14.8637C45.2565 14.4938 44.8784 14.2603 44.4647 14.2603C44.0509 14.2603 43.6729 14.4938 43.4881 14.8637L41.3046 19.2307C41.2293 19.3825 41.1895 19.5495 41.1895 19.719V44.4651C41.1895 46.2735 42.6534 47.7403 44.4647 47.7403C46.2737 47.7403 47.7399 46.2764 47.7399 44.4651V19.719C47.7399 19.5495 47.7001 19.3825 47.6247 19.2307ZM45.5564 44.4651C45.5564 45.8929 43.373 45.9023 43.373 44.4651V43.3733H45.5564V44.4651ZM45.5564 20.8108H43.373V19.9766L44.4647 17.7932L45.5565 19.9766V20.8108H45.5564Z" fill="white"></path> <path d="M37.9141 14.2603H15.3515C14.7488 14.2603 14.2598 14.749 14.2598 15.3521V46.6486C14.2598 47.2516 14.7488 47.7403 15.3515 47.7403H37.9141C38.5168 47.7403 39.0059 47.2516 39.0059 46.6485V15.3521C39.0059 14.749 38.5168 14.2603 37.9141 14.2603ZM24.0854 18.6273H29.1802C29.7829 18.6273 30.272 19.116 30.272 19.7191C30.272 20.3222 29.7829 20.8108 29.1802 20.8108H24.0854C23.4827 20.8108 22.9937 20.3222 22.9937 19.7191C22.9937 19.116 23.4827 18.6273 24.0854 18.6273ZM33.5472 42.6455H19.7184C19.1157 42.6455 18.6267 42.1569 18.6267 41.5538C18.6267 40.9507 19.1157 40.462 19.7184 40.462H33.5471C34.1498 40.462 34.6389 40.9507 34.6389 41.5538C34.6389 42.1569 34.1499 42.6455 33.5472 42.6455ZM18.6267 37.1869C18.6267 36.5838 19.1158 36.0951 19.7185 36.0951H26.2689C26.8717 36.0951 27.3607 36.5838 27.3607 37.1869C27.3607 37.79 26.8717 38.2786 26.2689 38.2786H19.7184C19.1157 38.2785 18.6267 37.7899 18.6267 37.1869ZM33.5472 38.2785H30.6359C30.0332 38.2785 29.5441 37.7899 29.5441 37.1868C29.5441 36.5837 30.0332 36.095 30.6359 36.095H33.5472C34.1499 36.095 34.6389 36.5837 34.6389 37.1868C34.6389 37.7899 34.1499 38.2785 33.5472 38.2785ZM33.5472 33.9116H19.7184C19.1157 33.9116 18.6267 33.423 18.6267 32.8199C18.6267 32.2168 19.1157 31.7281 19.7184 31.7281H33.5471C34.1498 31.7281 34.6389 32.2168 34.6389 32.8199C34.6389 33.423 34.1499 33.9116 33.5472 33.9116ZM18.6267 28.4529C18.6267 27.8498 19.1158 27.3611 19.7185 27.3611H24.0855C24.6882 27.3611 25.1773 27.8498 25.1773 28.4529C25.1773 29.056 24.6882 29.5447 24.0855 29.5447H19.7184C19.1157 29.5447 18.6267 29.056 18.6267 28.4529ZM33.5472 29.5447H28.4524C27.8497 29.5447 27.3606 29.056 27.3606 28.4529C27.3606 27.8498 27.8497 27.3611 28.4524 27.3611H33.5472C34.1499 27.3611 34.6389 27.8498 34.6389 28.4529C34.6389 29.056 34.1499 29.5447 33.5472 29.5447ZM33.5472 25.1777H19.7184C19.1157 25.1777 18.6267 24.6891 18.6267 24.086C18.6267 23.4829 19.1157 22.9942 19.7184 22.9942H33.5471C34.1498 22.9942 34.6389 23.4829 34.6389 24.086C34.6389 24.6891 34.1499 25.1777 33.5472 25.1777Z" fill="white"></path> </g> <defs> <clipPath id="clip0"> <rect width="33.48" height="33.48" fill="white" transform="translate(14.2598 14.2603)"></rect> </clipPath> </defs> </svg> 