<?xml version="1.0" encoding="UTF-8"?> <svg xmlns="http://www.w3.org/2000/svg" width="342" height="469" viewBox="0 0 342 469" fill="none"> <path d="M34 17C29.4913 17 25.1673 18.7911 21.9792 21.9792C18.7911 25.1673 17 29.4913 17 34C17 29.4913 15.2089 25.1673 12.0208 21.9792C8.8327 18.7911 4.50868 17 0 17C4.50868 17 8.8327 15.2089 12.0208 12.0208C15.2089 8.8327 17 4.50868 17 0C17 4.50868 18.7911 8.8327 21.9792 12.0208C25.1673 15.2089 29.4913 17 34 17Z" fill="#E9D8C2"></path> <path d="M34 57C29.4913 57 25.1673 58.7911 21.9792 61.9792C18.7911 65.1673 17 69.4913 17 74C17 69.4913 15.2089 65.1673 12.0208 61.9792C8.8327 58.7911 4.50868 57 0 57C4.50868 57 8.8327 55.2089 12.0208 52.0208C15.2089 48.8327 17 44.5087 17 40C17 44.5087 18.7911 48.8327 21.9792 52.0208C25.1673 55.2089 29.4913 57 34 57Z" fill="#E9D8C2"></path> <path d="M34 97C29.4913 97 25.1673 98.7911 21.9792 101.979C18.7911 105.167 17 109.491 17 114C17 109.491 15.2089 105.167 12.0208 101.979C8.8327 98.7911 4.50868 97 0 97C4.50868 97 8.8327 95.2089 12.0208 92.0208C15.2089 88.8327 17 84.5087 17 80C17 84.5087 18.7911 88.8327 21.9792 92.0208C25.1673 95.2089 29.4913 97 34 97Z" fill="#E9D8C2"></path> <path d="M34 137C29.4913 137 25.1673 138.791 21.9792 141.979C18.7911 145.167 17 149.491 17 154C17 149.491 15.2089 145.167 12.0208 141.979C8.8327 138.791 4.50868 137 0 137C4.50868 137 8.8327 135.209 12.0208 132.021C15.2089 128.833 17 124.509 17 120C17 124.509 18.7911 128.833 21.9792 132.021C25.1673 135.209 29.4913 137 34 137Z" fill="#E9D8C2"></path> <path d="M34 177C29.4913 177 25.1673 178.791 21.9792 181.979C18.7911 185.167 17 189.491 17 194C17 189.491 15.2089 185.167 12.0208 181.979C8.8327 178.791 4.50868 177 0 177C4.50868 177 8.8327 175.209 12.0208 172.021C15.2089 168.833 17 164.509 17 160C17 164.509 18.7911 168.833 21.9792 172.021C25.1673 175.209 29.4913 177 34 177Z" fill="#E9D8C2"></path> <path d="M34 217C29.4913 217 25.1673 218.791 21.9792 221.979C18.7911 225.167 17 229.491 17 234C17 229.491 15.2089 225.167 12.0208 221.979C8.8327 218.791 4.50868 217 0 217C4.50868 217 8.8327 215.209 12.0208 212.021C15.2089 208.833 17 204.509 17 200C17 204.509 18.7911 208.833 21.9792 212.021C25.1673 215.209 29.4913 217 34 217Z" fill="#E9D8C2"></path> <path d="M34 257C29.4913 257 25.1673 258.791 21.9792 261.979C18.7911 265.167 17 269.491 17 274C17 269.491 15.2089 265.167 12.0208 261.979C8.8327 258.791 4.50868 257 0 257C4.50868 257 8.8327 255.209 12.0208 252.021C15.2089 248.833 17 244.509 17 240C17 244.509 18.7911 248.833 21.9792 252.021C25.1673 255.209 29.4913 257 34 257Z" fill="#E9D8C2"></path> <path d="M34 297C29.4913 297 25.1673 298.791 21.9792 301.979C18.7911 305.167 17 309.491 17 314C17 309.491 15.2089 305.167 12.0208 301.979C8.8327 298.791 4.50868 297 0 297C4.50868 297 8.8327 295.209 12.0208 292.021C15.2089 288.833 17 284.509 17 280C17 284.509 18.7911 288.833 21.9792 292.021C25.1673 295.209 29.4913 297 34 297Z" fill="#E9D8C2"></path> <path d="M34 337C29.4913 337 25.1673 338.791 21.9792 341.979C18.7911 345.167 17 349.491 17 354C17 349.491 15.2089 345.167 12.0208 341.979C8.8327 338.791 4.50868 337 0 337C4.50868 337 8.8327 335.209 12.0208 332.021C15.2089 328.833 17 324.509 17 320C17 324.509 18.7911 328.833 21.9792 332.021C25.1673 335.209 29.4913 337 34 337Z" fill="#E9D8C2"></path> <path d="M34 377C29.4913 377 25.1673 378.791 21.9792 381.979C18.7911 385.167 17 389.491 17 394C17 389.491 15.2089 385.167 12.0208 381.979C8.8327 378.791 4.50868 377 0 377C4.50868 377 8.8327 375.209 12.0208 372.021C15.2089 368.833 17 364.509 17 360C17 364.509 18.7911 368.833 21.9792 372.021C25.1673 375.209 29.4913 377 34 377Z" fill="#E9D8C2"></path> <path d="M34 417C29.4913 417 25.1673 418.791 21.9792 421.979C18.7911 425.167 17 429.491 17 434C17 429.491 15.2089 425.167 12.0208 421.979C8.8327 418.791 4.50868 417 0 417C4.50868 417 8.8327 415.209 12.0208 412.021C15.2089 408.833 17 404.509 17 400C17 404.509 18.7911 408.833 21.9792 412.021C25.1673 415.209 29.4913 417 34 417Z" fill="#E9D8C2"></path> <path d="M78 22C73.4913 22 69.1673 23.7911 65.9792 26.9792C62.7911 30.1673 61 34.4913 61 39C61 34.4913 59.2089 30.1673 56.0208 26.9792C52.8327 23.7911 48.5087 22 44 22C48.5087 22 52.8327 20.2089 56.0208 17.0208C59.2089 13.8327 61 9.50868 61 5C61 9.50868 62.7911 13.8327 65.9792 17.0208C69.1673 20.2089 73.4913 22 78 22Z" fill="#E9D8C2"></path> <path d="M78 62C73.4913 62 69.1673 63.7911 65.9792 66.9792C62.7911 70.1673 61 74.4913 61 79C61 74.4913 59.2089 70.1673 56.0208 66.9792C52.8327 63.7911 48.5087 62 44 62C48.5087 62 52.8327 60.2089 56.0208 57.0208C59.2089 53.8327 61 49.5087 61 45C61 49.5087 62.7911 53.8327 65.9792 57.0208C69.1673 60.2089 73.4913 62 78 62Z" fill="#E9D8C2"></path> <path d="M78 102C73.4913 102 69.1673 103.791 65.9792 106.979C62.7911 110.167 61 114.491 61 119C61 114.491 59.2089 110.167 56.0208 106.979C52.8327 103.791 48.5087 102 44 102C48.5087 102 52.8327 100.209 56.0208 97.0208C59.2089 93.8327 61 89.5087 61 85C61 89.5087 62.7911 93.8327 65.9792 97.0208C69.1673 100.209 73.4913 102 78 102Z" fill="#E9D8C2"></path> <path d="M78 142C73.4913 142 69.1673 143.791 65.9792 146.979C62.7911 150.167 61 154.491 61 159C61 154.491 59.2089 150.167 56.0208 146.979C52.8327 143.791 48.5087 142 44 142C48.5087 142 52.8327 140.209 56.0208 137.021C59.2089 133.833 61 129.509 61 125C61 129.509 62.7911 133.833 65.9792 137.021C69.1673 140.209 73.4913 142 78 142Z" fill="#E9D8C2"></path> <path d="M78 182C73.4913 182 69.1673 183.791 65.9792 186.979C62.7911 190.167 61 194.491 61 199C61 194.491 59.2089 190.167 56.0208 186.979C52.8327 183.791 48.5087 182 44 182C48.5087 182 52.8327 180.209 56.0208 177.021C59.2089 173.833 61 169.509 61 165C61 169.509 62.7911 173.833 65.9792 177.021C69.1673 180.209 73.4913 182 78 182Z" fill="#E9D8C2"></path> <path d="M78 222C73.4913 222 69.1673 223.791 65.9792 226.979C62.7911 230.167 61 234.491 61 239C61 234.491 59.2089 230.167 56.0208 226.979C52.8327 223.791 48.5087 222 44 222C48.5087 222 52.8327 220.209 56.0208 217.021C59.2089 213.833 61 209.509 61 205C61 209.509 62.7911 213.833 65.9792 217.021C69.1673 220.209 73.4913 222 78 222Z" fill="#E9D8C2"></path> <path d="M78 262C73.4913 262 69.1673 263.791 65.9792 266.979C62.7911 270.167 61 274.491 61 279C61 274.491 59.2089 270.167 56.0208 266.979C52.8327 263.791 48.5087 262 44 262C48.5087 262 52.8327 260.209 56.0208 257.021C59.2089 253.833 61 249.509 61 245C61 249.509 62.7911 253.833 65.9792 257.021C69.1673 260.209 73.4913 262 78 262Z" fill="#E9D8C2"></path> <path d="M78 302C73.4913 302 69.1673 303.791 65.9792 306.979C62.7911 310.167 61 314.491 61 319C61 314.491 59.2089 310.167 56.0208 306.979C52.8327 303.791 48.5087 302 44 302C48.5087 302 52.8327 300.209 56.0208 297.021C59.2089 293.833 61 289.509 61 285C61 289.509 62.7911 293.833 65.9792 297.021C69.1673 300.209 73.4913 302 78 302Z" fill="#E9D8C2"></path> <path d="M78 342C73.4913 342 69.1673 343.791 65.9792 346.979C62.7911 350.167 61 354.491 61 359C61 354.491 59.2089 350.167 56.0208 346.979C52.8327 343.791 48.5087 342 44 342C48.5087 342 52.8327 340.209 56.0208 337.021C59.2089 333.833 61 329.509 61 325C61 329.509 62.7911 333.833 65.9792 337.021C69.1673 340.209 73.4913 342 78 342Z" fill="#E9D8C2"></path> <path d="M78 382C73.4913 382 69.1673 383.791 65.9792 386.979C62.7911 390.167 61 394.491 61 399C61 394.491 59.2089 390.167 56.0208 386.979C52.8327 383.791 48.5087 382 44 382C48.5087 382 52.8327 380.209 56.0208 377.021C59.2089 373.833 61 369.509 61 365C61 369.509 62.7911 373.833 65.9792 377.021C69.1673 380.209 73.4913 382 78 382Z" fill="#E9D8C2"></path> <path d="M78 422C73.4913 422 69.1673 423.791 65.9792 426.979C62.7911 430.167 61 434.491 61 439C61 434.491 59.2089 430.167 56.0208 426.979C52.8327 423.791 48.5087 422 44 422C48.5087 422 52.8327 420.209 56.0208 417.021C59.2089 413.833 61 409.509 61 405C61 409.509 62.7911 413.833 65.9792 417.021C69.1673 420.209 73.4913 422 78 422Z" fill="#E9D8C2"></path> <path d="M122 27C117.491 27 113.167 28.7911 109.979 31.9792C106.791 35.1673 105 39.4913 105 44C105 39.4913 103.209 35.1673 100.021 31.9792C96.8327 28.7911 92.5087 27 88 27C92.5087 27 96.8327 25.2089 100.021 22.0208C103.209 18.8327 105 14.5087 105 10C105 14.5087 106.791 18.8327 109.979 22.0208C113.167 25.2089 117.491 27 122 27Z" fill="#E9D8C2"></path> <path d="M122 67C117.491 67 113.167 68.7911 109.979 71.9792C106.791 75.1673 105 79.4913 105 84C105 79.4913 103.209 75.1673 100.021 71.9792C96.8327 68.7911 92.5087 67 88 67C92.5087 67 96.8327 65.2089 100.021 62.0208C103.209 58.8327 105 54.5087 105 50C105 54.5087 106.791 58.8327 109.979 62.0208C113.167 65.2089 117.491 67 122 67Z" fill="#E9D8C2"></path> <path d="M122 107C117.491 107 113.167 108.791 109.979 111.979C106.791 115.167 105 119.491 105 124C105 119.491 103.209 115.167 100.021 111.979C96.8327 108.791 92.5087 107 88 107C92.5087 107 96.8327 105.209 100.021 102.021C103.209 98.8327 105 94.5087 105 90C105 94.5087 106.791 98.8327 109.979 102.021C113.167 105.209 117.491 107 122 107Z" fill="#E9D8C2"></path> <path d="M122 147C117.491 147 113.167 148.791 109.979 151.979C106.791 155.167 105 159.491 105 164C105 159.491 103.209 155.167 100.021 151.979C96.8327 148.791 92.5087 147 88 147C92.5087 147 96.8327 145.209 100.021 142.021C103.209 138.833 105 134.509 105 130C105 134.509 106.791 138.833 109.979 142.021C113.167 145.209 117.491 147 122 147Z" fill="#E9D8C2"></path> <path d="M122 187C117.491 187 113.167 188.791 109.979 191.979C106.791 195.167 105 199.491 105 204C105 199.491 103.209 195.167 100.021 191.979C96.8327 188.791 92.5087 187 88 187C92.5087 187 96.8327 185.209 100.021 182.021C103.209 178.833 105 174.509 105 170C105 174.509 106.791 178.833 109.979 182.021C113.167 185.209 117.491 187 122 187Z" fill="#E9D8C2"></path> <path d="M122 227C117.491 227 113.167 228.791 109.979 231.979C106.791 235.167 105 239.491 105 244C105 239.491 103.209 235.167 100.021 231.979C96.8327 228.791 92.5087 227 88 227C92.5087 227 96.8327 225.209 100.021 222.021C103.209 218.833 105 214.509 105 210C105 214.509 106.791 218.833 109.979 222.021C113.167 225.209 117.491 227 122 227Z" fill="#E9D8C2"></path> <path d="M122 267C117.491 267 113.167 268.791 109.979 271.979C106.791 275.167 105 279.491 105 284C105 279.491 103.209 275.167 100.021 271.979C96.8327 268.791 92.5087 267 88 267C92.5087 267 96.8327 265.209 100.021 262.021C103.209 258.833 105 254.509 105 250C105 254.509 106.791 258.833 109.979 262.021C113.167 265.209 117.491 267 122 267Z" fill="#E9D8C2"></path> <path d="M122 307C117.491 307 113.167 308.791 109.979 311.979C106.791 315.167 105 319.491 105 324C105 319.491 103.209 315.167 100.021 311.979C96.8327 308.791 92.5087 307 88 307C92.5087 307 96.8327 305.209 100.021 302.021C103.209 298.833 105 294.509 105 290C105 294.509 106.791 298.833 109.979 302.021C113.167 305.209 117.491 307 122 307Z" fill="#E9D8C2"></path> <path d="M122 347C117.491 347 113.167 348.791 109.979 351.979C106.791 355.167 105 359.491 105 364C105 359.491 103.209 355.167 100.021 351.979C96.8327 348.791 92.5087 347 88 347C92.5087 347 96.8327 345.209 100.021 342.021C103.209 338.833 105 334.509 105 330C105 334.509 106.791 338.833 109.979 342.021C113.167 345.209 117.491 347 122 347Z" fill="#E9D8C2"></path> <path d="M122 387C117.491 387 113.167 388.791 109.979 391.979C106.791 395.167 105 399.491 105 404C105 399.491 103.209 395.167 100.021 391.979C96.8327 388.791 92.5087 387 88 387C92.5087 387 96.8327 385.209 100.021 382.021C103.209 378.833 105 374.509 105 370C105 374.509 106.791 378.833 109.979 382.021C113.167 385.209 117.491 387 122 387Z" fill="#E9D8C2"></path> <path d="M122 427C117.491 427 113.167 428.791 109.979 431.979C106.791 435.167 105 439.491 105 444C105 439.491 103.209 435.167 100.021 431.979C96.8327 428.791 92.5087 427 88 427C92.5087 427 96.8327 425.209 100.021 422.021C103.209 418.833 105 414.509 105 410C105 414.509 106.791 418.833 109.979 422.021C113.167 425.209 117.491 427 122 427Z" fill="#E9D8C2"></path> <path d="M166 32C161.491 32 157.167 33.7911 153.979 36.9792C150.791 40.1673 149 44.4913 149 49C149 44.4913 147.209 40.1673 144.021 36.9792C140.833 33.7911 136.509 32 132 32C136.509 32 140.833 30.2089 144.021 27.0208C147.209 23.8327 149 19.5087 149 15C149 19.5087 150.791 23.8327 153.979 27.0208C157.167 30.2089 161.491 32 166 32Z" fill="#E9D8C2"></path> <path d="M166 72C161.491 72 157.167 73.7911 153.979 76.9792C150.791 80.1673 149 84.4913 149 89C149 84.4913 147.209 80.1673 144.021 76.9792C140.833 73.7911 136.509 72 132 72C136.509 72 140.833 70.2089 144.021 67.0208C147.209 63.8327 149 59.5087 149 55C149 59.5087 150.791 63.8327 153.979 67.0208C157.167 70.2089 161.491 72 166 72Z" fill="#E9D8C2"></path> <path d="M166 112C161.491 112 157.167 113.791 153.979 116.979C150.791 120.167 149 124.491 149 129C149 124.491 147.209 120.167 144.021 116.979C140.833 113.791 136.509 112 132 112C136.509 112 140.833 110.209 144.021 107.021C147.209 103.833 149 99.5087 149 95C149 99.5087 150.791 103.833 153.979 107.021C157.167 110.209 161.491 112 166 112Z" fill="#E9D8C2"></path> <path d="M166 152C161.491 152 157.167 153.791 153.979 156.979C150.791 160.167 149 164.491 149 169C149 164.491 147.209 160.167 144.021 156.979C140.833 153.791 136.509 152 132 152C136.509 152 140.833 150.209 144.021 147.021C147.209 143.833 149 139.509 149 135C149 139.509 150.791 143.833 153.979 147.021C157.167 150.209 161.491 152 166 152Z" fill="#E9D8C2"></path> <path d="M166 192C161.491 192 157.167 193.791 153.979 196.979C150.791 200.167 149 204.491 149 209C149 204.491 147.209 200.167 144.021 196.979C140.833 193.791 136.509 192 132 192C136.509 192 140.833 190.209 144.021 187.021C147.209 183.833 149 179.509 149 175C149 179.509 150.791 183.833 153.979 187.021C157.167 190.209 161.491 192 166 192Z" fill="#E9D8C2"></path> <path d="M166 232C161.491 232 157.167 233.791 153.979 236.979C150.791 240.167 149 244.491 149 249C149 244.491 147.209 240.167 144.021 236.979C140.833 233.791 136.509 232 132 232C136.509 232 140.833 230.209 144.021 227.021C147.209 223.833 149 219.509 149 215C149 219.509 150.791 223.833 153.979 227.021C157.167 230.209 161.491 232 166 232Z" fill="#E9D8C2"></path> <path d="M166 272C161.491 272 157.167 273.791 153.979 276.979C150.791 280.167 149 284.491 149 289C149 284.491 147.209 280.167 144.021 276.979C140.833 273.791 136.509 272 132 272C136.509 272 140.833 270.209 144.021 267.021C147.209 263.833 149 259.509 149 255C149 259.509 150.791 263.833 153.979 267.021C157.167 270.209 161.491 272 166 272Z" fill="#E9D8C2"></path> <path d="M166 312C161.491 312 157.167 313.791 153.979 316.979C150.791 320.167 149 324.491 149 329C149 324.491 147.209 320.167 144.021 316.979C140.833 313.791 136.509 312 132 312C136.509 312 140.833 310.209 144.021 307.021C147.209 303.833 149 299.509 149 295C149 299.509 150.791 303.833 153.979 307.021C157.167 310.209 161.491 312 166 312Z" fill="#E9D8C2"></path> <path d="M166 352C161.491 352 157.167 353.791 153.979 356.979C150.791 360.167 149 364.491 149 369C149 364.491 147.209 360.167 144.021 356.979C140.833 353.791 136.509 352 132 352C136.509 352 140.833 350.209 144.021 347.021C147.209 343.833 149 339.509 149 335C149 339.509 150.791 343.833 153.979 347.021C157.167 350.209 161.491 352 166 352Z" fill="#E9D8C2"></path> <path d="M166 392C161.491 392 157.167 393.791 153.979 396.979C150.791 400.167 149 404.491 149 409C149 404.491 147.209 400.167 144.021 396.979C140.833 393.791 136.509 392 132 392C136.509 392 140.833 390.209 144.021 387.021C147.209 383.833 149 379.509 149 375C149 379.509 150.791 383.833 153.979 387.021C157.167 390.209 161.491 392 166 392Z" fill="#E9D8C2"></path> <path d="M166 432C161.491 432 157.167 433.791 153.979 436.979C150.791 440.167 149 444.491 149 449C149 444.491 147.209 440.167 144.021 436.979C140.833 433.791 136.509 432 132 432C136.509 432 140.833 430.209 144.021 427.021C147.209 423.833 149 419.509 149 415C149 419.509 150.791 423.833 153.979 427.021C157.167 430.209 161.491 432 166 432Z" fill="#E9D8C2"></path> <path d="M210 37C205.491 37 201.167 38.7911 197.979 41.9792C194.791 45.1673 193 49.4913 193 54C193 49.4913 191.209 45.1673 188.021 41.9792C184.833 38.7911 180.509 37 176 37C180.509 37 184.833 35.2089 188.021 32.0208C191.209 28.8327 193 24.5087 193 20C193 24.5087 194.791 28.8327 197.979 32.0208C201.167 35.2089 205.491 37 210 37Z" fill="#E9D8C2"></path> <path d="M210 77C205.491 77 201.167 78.7911 197.979 81.9792C194.791 85.1673 193 89.4913 193 94C193 89.4913 191.209 85.1673 188.021 81.9792C184.833 78.7911 180.509 77 176 77C180.509 77 184.833 75.2089 188.021 72.0208C191.209 68.8327 193 64.5087 193 60C193 64.5087 194.791 68.8327 197.979 72.0208C201.167 75.2089 205.491 77 210 77Z" fill="#E9D8C2"></path> <path d="M210 117C205.491 117 201.167 118.791 197.979 121.979C194.791 125.167 193 129.491 193 134C193 129.491 191.209 125.167 188.021 121.979C184.833 118.791 180.509 117 176 117C180.509 117 184.833 115.209 188.021 112.021C191.209 108.833 193 104.509 193 100C193 104.509 194.791 108.833 197.979 112.021C201.167 115.209 205.491 117 210 117Z" fill="#E9D8C2"></path> <path d="M210 157C205.491 157 201.167 158.791 197.979 161.979C194.791 165.167 193 169.491 193 174C193 169.491 191.209 165.167 188.021 161.979C184.833 158.791 180.509 157 176 157C180.509 157 184.833 155.209 188.021 152.021C191.209 148.833 193 144.509 193 140C193 144.509 194.791 148.833 197.979 152.021C201.167 155.209 205.491 157 210 157Z" fill="#E9D8C2"></path> <path d="M210 197C205.491 197 201.167 198.791 197.979 201.979C194.791 205.167 193 209.491 193 214C193 209.491 191.209 205.167 188.021 201.979C184.833 198.791 180.509 197 176 197C180.509 197 184.833 195.209 188.021 192.021C191.209 188.833 193 184.509 193 180C193 184.509 194.791 188.833 197.979 192.021C201.167 195.209 205.491 197 210 197Z" fill="#E9D8C2"></path> <path d="M210 237C205.491 237 201.167 238.791 197.979 241.979C194.791 245.167 193 249.491 193 254C193 249.491 191.209 245.167 188.021 241.979C184.833 238.791 180.509 237 176 237C180.509 237 184.833 235.209 188.021 232.021C191.209 228.833 193 224.509 193 220C193 224.509 194.791 228.833 197.979 232.021C201.167 235.209 205.491 237 210 237Z" fill="#E9D8C2"></path> <path d="M210 277C205.491 277 201.167 278.791 197.979 281.979C194.791 285.167 193 289.491 193 294C193 289.491 191.209 285.167 188.021 281.979C184.833 278.791 180.509 277 176 277C180.509 277 184.833 275.209 188.021 272.021C191.209 268.833 193 264.509 193 260C193 264.509 194.791 268.833 197.979 272.021C201.167 275.209 205.491 277 210 277Z" fill="#E9D8C2"></path> <path d="M210 317C205.491 317 201.167 318.791 197.979 321.979C194.791 325.167 193 329.491 193 334C193 329.491 191.209 325.167 188.021 321.979C184.833 318.791 180.509 317 176 317C180.509 317 184.833 315.209 188.021 312.021C191.209 308.833 193 304.509 193 300C193 304.509 194.791 308.833 197.979 312.021C201.167 315.209 205.491 317 210 317Z" fill="#E9D8C2"></path> <path d="M210 357C205.491 357 201.167 358.791 197.979 361.979C194.791 365.167 193 369.491 193 374C193 369.491 191.209 365.167 188.021 361.979C184.833 358.791 180.509 357 176 357C180.509 357 184.833 355.209 188.021 352.021C191.209 348.833 193 344.509 193 340C193 344.509 194.791 348.833 197.979 352.021C201.167 355.209 205.491 357 210 357Z" fill="#E9D8C2"></path> <path d="M210 397C205.491 397 201.167 398.791 197.979 401.979C194.791 405.167 193 409.491 193 414C193 409.491 191.209 405.167 188.021 401.979C184.833 398.791 180.509 397 176 397C180.509 397 184.833 395.209 188.021 392.021C191.209 388.833 193 384.509 193 380C193 384.509 194.791 388.833 197.979 392.021C201.167 395.209 205.491 397 210 397Z" fill="#E9D8C2"></path> <path d="M210 437C205.491 437 201.167 438.791 197.979 441.979C194.791 445.167 193 449.491 193 454C193 449.491 191.209 445.167 188.021 441.979C184.833 438.791 180.509 437 176 437C180.509 437 184.833 435.209 188.021 432.021C191.209 428.833 193 424.509 193 420C193 424.509 194.791 428.833 197.979 432.021C201.167 435.209 205.491 437 210 437Z" fill="#E9D8C2"></path> <path d="M254 42C249.491 42 245.167 43.7911 241.979 46.9792C238.791 50.1673 237 54.4913 237 59C237 54.4913 235.209 50.1673 232.021 46.9792C228.833 43.7911 224.509 42 220 42C224.509 42 228.833 40.2089 232.021 37.0208C235.209 33.8327 237 29.5087 237 25C237 29.5087 238.791 33.8327 241.979 37.0208C245.167 40.2089 249.491 42 254 42Z" fill="#E9D8C2"></path> <path d="M254 82C249.491 82 245.167 83.7911 241.979 86.9792C238.791 90.1673 237 94.4913 237 99C237 94.4913 235.209 90.1673 232.021 86.9792C228.833 83.7911 224.509 82 220 82C224.509 82 228.833 80.2089 232.021 77.0208C235.209 73.8327 237 69.5087 237 65C237 69.5087 238.791 73.8327 241.979 77.0208C245.167 80.2089 249.491 82 254 82Z" fill="#E9D8C2"></path> <path d="M254 122C249.491 122 245.167 123.791 241.979 126.979C238.791 130.167 237 134.491 237 139C237 134.491 235.209 130.167 232.021 126.979C228.833 123.791 224.509 122 220 122C224.509 122 228.833 120.209 232.021 117.021C235.209 113.833 237 109.509 237 105C237 109.509 238.791 113.833 241.979 117.021C245.167 120.209 249.491 122 254 122Z" fill="#E9D8C2"></path> <path d="M254 162C249.491 162 245.167 163.791 241.979 166.979C238.791 170.167 237 174.491 237 179C237 174.491 235.209 170.167 232.021 166.979C228.833 163.791 224.509 162 220 162C224.509 162 228.833 160.209 232.021 157.021C235.209 153.833 237 149.509 237 145C237 149.509 238.791 153.833 241.979 157.021C245.167 160.209 249.491 162 254 162Z" fill="#E9D8C2"></path> <path d="M254 202C249.491 202 245.167 203.791 241.979 206.979C238.791 210.167 237 214.491 237 219C237 214.491 235.209 210.167 232.021 206.979C228.833 203.791 224.509 202 220 202C224.509 202 228.833 200.209 232.021 197.021C235.209 193.833 237 189.509 237 185C237 189.509 238.791 193.833 241.979 197.021C245.167 200.209 249.491 202 254 202Z" fill="#E9D8C2"></path> <path d="M254 242C249.491 242 245.167 243.791 241.979 246.979C238.791 250.167 237 254.491 237 259C237 254.491 235.209 250.167 232.021 246.979C228.833 243.791 224.509 242 220 242C224.509 242 228.833 240.209 232.021 237.021C235.209 233.833 237 229.509 237 225C237 229.509 238.791 233.833 241.979 237.021C245.167 240.209 249.491 242 254 242Z" fill="#E9D8C2"></path> <path d="M254 282C249.491 282 245.167 283.791 241.979 286.979C238.791 290.167 237 294.491 237 299C237 294.491 235.209 290.167 232.021 286.979C228.833 283.791 224.509 282 220 282C224.509 282 228.833 280.209 232.021 277.021C235.209 273.833 237 269.509 237 265C237 269.509 238.791 273.833 241.979 277.021C245.167 280.209 249.491 282 254 282Z" fill="#E9D8C2"></path> <path d="M254 322C249.491 322 245.167 323.791 241.979 326.979C238.791 330.167 237 334.491 237 339C237 334.491 235.209 330.167 232.021 326.979C228.833 323.791 224.509 322 220 322C224.509 322 228.833 320.209 232.021 317.021C235.209 313.833 237 309.509 237 305C237 309.509 238.791 313.833 241.979 317.021C245.167 320.209 249.491 322 254 322Z" fill="#E9D8C2"></path> <path d="M254 362C249.491 362 245.167 363.791 241.979 366.979C238.791 370.167 237 374.491 237 379C237 374.491 235.209 370.167 232.021 366.979C228.833 363.791 224.509 362 220 362C224.509 362 228.833 360.209 232.021 357.021C235.209 353.833 237 349.509 237 345C237 349.509 238.791 353.833 241.979 357.021C245.167 360.209 249.491 362 254 362Z" fill="#E9D8C2"></path> <path d="M254 402C249.491 402 245.167 403.791 241.979 406.979C238.791 410.167 237 414.491 237 419C237 414.491 235.209 410.167 232.021 406.979C228.833 403.791 224.509 402 220 402C224.509 402 228.833 400.209 232.021 397.021C235.209 393.833 237 389.509 237 385C237 389.509 238.791 393.833 241.979 397.021C245.167 400.209 249.491 402 254 402Z" fill="#E9D8C2"></path> <path d="M254 442C249.491 442 245.167 443.791 241.979 446.979C238.791 450.167 237 454.491 237 459C237 454.491 235.209 450.167 232.021 446.979C228.833 443.791 224.509 442 220 442C224.509 442 228.833 440.209 232.021 437.021C235.209 433.833 237 429.509 237 425C237 429.509 238.791 433.833 241.979 437.021C245.167 440.209 249.491 442 254 442Z" fill="#E9D8C2"></path> <path d="M298 47C293.491 47 289.167 48.7911 285.979 51.9792C282.791 55.1673 281 59.4913 281 64C281 59.4913 279.209 55.1673 276.021 51.9792C272.833 48.7911 268.509 47 264 47C268.509 47 272.833 45.2089 276.021 42.0208C279.209 38.8327 281 34.5087 281 30C281 34.5087 282.791 38.8327 285.979 42.0208C289.167 45.2089 293.491 47 298 47Z" fill="#E9D8C2"></path> <path d="M298 87C293.491 87 289.167 88.7911 285.979 91.9792C282.791 95.1673 281 99.4913 281 104C281 99.4913 279.209 95.1673 276.021 91.9792C272.833 88.7911 268.509 87 264 87C268.509 87 272.833 85.2089 276.021 82.0208C279.209 78.8327 281 74.5087 281 70C281 74.5087 282.791 78.8327 285.979 82.0208C289.167 85.2089 293.491 87 298 87Z" fill="#E9D8C2"></path> <path d="M298 127C293.491 127 289.167 128.791 285.979 131.979C282.791 135.167 281 139.491 281 144C281 139.491 279.209 135.167 276.021 131.979C272.833 128.791 268.509 127 264 127C268.509 127 272.833 125.209 276.021 122.021C279.209 118.833 281 114.509 281 110C281 114.509 282.791 118.833 285.979 122.021C289.167 125.209 293.491 127 298 127Z" fill="#E9D8C2"></path> <path d="M298 167C293.491 167 289.167 168.791 285.979 171.979C282.791 175.167 281 179.491 281 184C281 179.491 279.209 175.167 276.021 171.979C272.833 168.791 268.509 167 264 167C268.509 167 272.833 165.209 276.021 162.021C279.209 158.833 281 154.509 281 150C281 154.509 282.791 158.833 285.979 162.021C289.167 165.209 293.491 167 298 167Z" fill="#E9D8C2"></path> <path d="M298 207C293.491 207 289.167 208.791 285.979 211.979C282.791 215.167 281 219.491 281 224C281 219.491 279.209 215.167 276.021 211.979C272.833 208.791 268.509 207 264 207C268.509 207 272.833 205.209 276.021 202.021C279.209 198.833 281 194.509 281 190C281 194.509 282.791 198.833 285.979 202.021C289.167 205.209 293.491 207 298 207Z" fill="#E9D8C2"></path> <path d="M298 247C293.491 247 289.167 248.791 285.979 251.979C282.791 255.167 281 259.491 281 264C281 259.491 279.209 255.167 276.021 251.979C272.833 248.791 268.509 247 264 247C268.509 247 272.833 245.209 276.021 242.021C279.209 238.833 281 234.509 281 230C281 234.509 282.791 238.833 285.979 242.021C289.167 245.209 293.491 247 298 247Z" fill="#E9D8C2"></path> <path d="M298 287C293.491 287 289.167 288.791 285.979 291.979C282.791 295.167 281 299.491 281 304C281 299.491 279.209 295.167 276.021 291.979C272.833 288.791 268.509 287 264 287C268.509 287 272.833 285.209 276.021 282.021C279.209 278.833 281 274.509 281 270C281 274.509 282.791 278.833 285.979 282.021C289.167 285.209 293.491 287 298 287Z" fill="#E9D8C2"></path> <path d="M298 327C293.491 327 289.167 328.791 285.979 331.979C282.791 335.167 281 339.491 281 344C281 339.491 279.209 335.167 276.021 331.979C272.833 328.791 268.509 327 264 327C268.509 327 272.833 325.209 276.021 322.021C279.209 318.833 281 314.509 281 310C281 314.509 282.791 318.833 285.979 322.021C289.167 325.209 293.491 327 298 327Z" fill="#E9D8C2"></path> <path d="M298 367C293.491 367 289.167 368.791 285.979 371.979C282.791 375.167 281 379.491 281 384C281 379.491 279.209 375.167 276.021 371.979C272.833 368.791 268.509 367 264 367C268.509 367 272.833 365.209 276.021 362.021C279.209 358.833 281 354.509 281 350C281 354.509 282.791 358.833 285.979 362.021C289.167 365.209 293.491 367 298 367Z" fill="#E9D8C2"></path> <path d="M298 407C293.491 407 289.167 408.791 285.979 411.979C282.791 415.167 281 419.491 281 424C281 419.491 279.209 415.167 276.021 411.979C272.833 408.791 268.509 407 264 407C268.509 407 272.833 405.209 276.021 402.021C279.209 398.833 281 394.509 281 390C281 394.509 282.791 398.833 285.979 402.021C289.167 405.209 293.491 407 298 407Z" fill="#E9D8C2"></path> <path d="M298 447C293.491 447 289.167 448.791 285.979 451.979C282.791 455.167 281 459.491 281 464C281 459.491 279.209 455.167 276.021 451.979C272.833 448.791 268.509 447 264 447C268.509 447 272.833 445.209 276.021 442.021C279.209 438.833 281 434.509 281 430C281 434.509 282.791 438.833 285.979 442.021C289.167 445.209 293.491 447 298 447Z" fill="#E9D8C2"></path> <path d="M342 52C337.491 52 333.167 53.7911 329.979 56.9792C326.791 60.1673 325 64.4913 325 69C325 64.4913 323.209 60.1673 320.021 56.9792C316.833 53.7911 312.509 52 308 52C312.509 52 316.833 50.2089 320.021 47.0208C323.209 43.8327 325 39.5087 325 35C325 39.5087 326.791 43.8327 329.979 47.0208C333.167 50.2089 337.491 52 342 52Z" fill="#E9D8C2"></path> <path d="M342 92C337.491 92 333.167 93.7911 329.979 96.9792C326.791 100.167 325 104.491 325 109C325 104.491 323.209 100.167 320.021 96.9792C316.833 93.7911 312.509 92 308 92C312.509 92 316.833 90.2089 320.021 87.0208C323.209 83.8327 325 79.5087 325 75C325 79.5087 326.791 83.8327 329.979 87.0208C333.167 90.2089 337.491 92 342 92Z" fill="#E9D8C2"></path> <path d="M342 132C337.491 132 333.167 133.791 329.979 136.979C326.791 140.167 325 144.491 325 149C325 144.491 323.209 140.167 320.021 136.979C316.833 133.791 312.509 132 308 132C312.509 132 316.833 130.209 320.021 127.021C323.209 123.833 325 119.509 325 115C325 119.509 326.791 123.833 329.979 127.021C333.167 130.209 337.491 132 342 132Z" fill="#E9D8C2"></path> <path d="M342 172C337.491 172 333.167 173.791 329.979 176.979C326.791 180.167 325 184.491 325 189C325 184.491 323.209 180.167 320.021 176.979C316.833 173.791 312.509 172 308 172C312.509 172 316.833 170.209 320.021 167.021C323.209 163.833 325 159.509 325 155C325 159.509 326.791 163.833 329.979 167.021C333.167 170.209 337.491 172 342 172Z" fill="#E9D8C2"></path> <path d="M342 212C337.491 212 333.167 213.791 329.979 216.979C326.791 220.167 325 224.491 325 229C325 224.491 323.209 220.167 320.021 216.979C316.833 213.791 312.509 212 308 212C312.509 212 316.833 210.209 320.021 207.021C323.209 203.833 325 199.509 325 195C325 199.509 326.791 203.833 329.979 207.021C333.167 210.209 337.491 212 342 212Z" fill="#E9D8C2"></path> <path d="M342 252C337.491 252 333.167 253.791 329.979 256.979C326.791 260.167 325 264.491 325 269C325 264.491 323.209 260.167 320.021 256.979C316.833 253.791 312.509 252 308 252C312.509 252 316.833 250.209 320.021 247.021C323.209 243.833 325 239.509 325 235C325 239.509 326.791 243.833 329.979 247.021C333.167 250.209 337.491 252 342 252Z" fill="#E9D8C2"></path> <path d="M342 292C337.491 292 333.167 293.791 329.979 296.979C326.791 300.167 325 304.491 325 309C325 304.491 323.209 300.167 320.021 296.979C316.833 293.791 312.509 292 308 292C312.509 292 316.833 290.209 320.021 287.021C323.209 283.833 325 279.509 325 275C325 279.509 326.791 283.833 329.979 287.021C333.167 290.209 337.491 292 342 292Z" fill="#E9D8C2"></path> <path d="M342 332C337.491 332 333.167 333.791 329.979 336.979C326.791 340.167 325 344.491 325 349C325 344.491 323.209 340.167 320.021 336.979C316.833 333.791 312.509 332 308 332C312.509 332 316.833 330.209 320.021 327.021C323.209 323.833 325 319.509 325 315C325 319.509 326.791 323.833 329.979 327.021C333.167 330.209 337.491 332 342 332Z" fill="#E9D8C2"></path> <path d="M342 372C337.491 372 333.167 373.791 329.979 376.979C326.791 380.167 325 384.491 325 389C325 384.491 323.209 380.167 320.021 376.979C316.833 373.791 312.509 372 308 372C312.509 372 316.833 370.209 320.021 367.021C323.209 363.833 325 359.509 325 355C325 359.509 326.791 363.833 329.979 367.021C333.167 370.209 337.491 372 342 372Z" fill="#E9D8C2"></path> <path d="M342 412C337.491 412 333.167 413.791 329.979 416.979C326.791 420.167 325 424.491 325 429C325 424.491 323.209 420.167 320.021 416.979C316.833 413.791 312.509 412 308 412C312.509 412 316.833 410.209 320.021 407.021C323.209 403.833 325 399.509 325 395C325 399.509 326.791 403.833 329.979 407.021C333.167 410.209 337.491 412 342 412Z" fill="#E9D8C2"></path> <path d="M342 452C337.491 452 333.167 453.791 329.979 456.979C326.791 460.167 325 464.491 325 469C325 464.491 323.209 460.167 320.021 456.979C316.833 453.791 312.509 452 308 452C312.509 452 316.833 450.209 320.021 447.021C323.209 443.833 325 439.509 325 435C325 439.509 326.791 443.833 329.979 447.021C333.167 450.209 337.491 452 342 452Z" fill="#E9D8C2"></path> </svg> 