<?xml version="1.0" encoding="UTF-8"?> <svg xmlns="http://www.w3.org/2000/svg" width="51" height="50" viewBox="0 0 51 50" fill="none"> <g clip-path="url(#clip0)"> <path d="M39.4796 15.3323C39.4778 15.3323 39.4759 15.332 39.4741 15.332H31.5095V14.4531C31.5095 12.9993 30.3272 11.8164 28.8741 11.8164H21.8466C20.3935 11.8164 19.2112 12.9993 19.2112 14.4531V15.332H11.2466C10.7575 15.332 10.3682 15.733 10.3682 16.2109V35.5469C10.3682 37.0007 11.5504 38.1836 13.0035 38.1836H37.7172C39.1703 38.1836 40.3525 37.0007 40.3525 35.5469V16.2295C40.3525 16.2283 40.3525 16.2272 40.3525 16.226C40.3189 15.6488 39.9641 15.3355 39.4796 15.3323ZM20.9681 14.4531C20.9681 13.9686 21.3623 13.5742 21.8466 13.5742H28.8741C29.3584 13.5742 29.7526 13.9686 29.7526 14.4531V15.332H20.9681V14.4531ZM38.2552 17.0898L35.5272 25.2779C35.4076 25.6374 35.0727 25.8789 34.6941 25.8789H29.7526V25C29.7526 24.5145 29.3594 24.1211 28.8741 24.1211H21.8466C21.3614 24.1211 20.9681 24.5145 20.9681 25V25.8789H16.0266C15.648 25.8789 15.3131 25.6374 15.1935 25.2779L12.4655 17.0898H38.2552ZM27.9957 25.8789V27.6367H22.725V25.8789H27.9957ZM38.5956 35.5469C38.5956 36.0314 38.2015 36.4258 37.7172 36.4258H13.0035C12.5192 36.4258 12.1251 36.0314 12.1251 35.5469V21.627L13.5267 25.8338C13.8858 26.9123 14.8906 27.6367 16.0266 27.6367H20.9681V28.5156C20.9681 29.0011 21.3614 29.3945 21.8466 29.3945H28.8741C29.3594 29.3945 29.7526 29.0011 29.7526 28.5156V27.6367H34.6941C35.8301 27.6367 36.8349 26.9123 37.194 25.8338L38.5956 21.627V35.5469Z" fill="#E3BE99"></path> </g> <rect x="1.37354" y="1" width="47.974" height="48" stroke="#E3BE99" stroke-width="2"></rect> <defs> <clipPath id="clip0"> <rect width="29.9844" height="30" fill="white" transform="translate(10.3682 10)"></rect> </clipPath> </defs> </svg> 